<svg width="99" height="24" viewBox="0 0 99 24" fill="none" xmlns="http://www.w3.org/2000/svg">
<g clip-path="url(#clip0_1444_27944)">
<path d="M42.9967 7.27734V15.6213C43.0012 16.7201 42.7886 17.8089 42.3712 18.8253C41.9539 19.8417 41.3399 20.7657 40.5645 21.5442C39.7891 22.3228 38.8677 22.9405 37.853 23.362C36.8383 23.7835 35.7503 24.0005 34.6516 24.0005C33.5528 24.0005 32.4649 23.7835 31.4502 23.362C30.4355 22.9405 29.514 22.3228 28.7386 21.5442C27.9633 20.7657 27.3493 19.8417 26.9319 18.8253C26.5145 17.8089 26.302 16.7201 26.3065 15.6213V7.27734H30.7539V15.6213C30.7454 16.1385 30.8399 16.6523 31.032 17.1326C31.224 17.6129 31.5097 18.0502 31.8725 18.4189C32.2352 18.7877 32.6677 19.0806 33.1448 19.2805C33.6219 19.4804 34.134 19.5834 34.6513 19.5834C35.1686 19.5834 35.6807 19.4804 36.1577 19.2805C36.6348 19.0806 37.0674 18.7877 37.4301 18.4189C37.7928 18.0502 38.0786 17.6129 38.2706 17.1326C38.4626 16.6523 38.5572 16.1385 38.5486 15.6213V7.27734H42.9967Z" fill="#878787"/>
<path d="M56.2334 23.9499V0.0625H60.6814V23.9499H56.2334Z" fill="#878787"/>
<path d="M98.5683 7.24414V11.6922H96.4607C95.8024 11.7009 95.1736 11.9662 94.7081 12.4317C94.2426 12.8972 93.9773 13.5261 93.9686 14.1843V23.9386H89.5205V14.1843C89.5259 12.3453 90.2588 10.5832 91.5592 9.28281C92.8596 7.98244 94.6217 7.24952 96.4607 7.24414H98.5683Z" fill="#878787"/>
<path d="M63.7504 23.9497V7.24379H68.1984V23.9497H63.7504ZM65.9744 0.0117188C65.4717 0.0117182 64.9803 0.160792 64.5623 0.440088C64.1443 0.719384 63.8185 1.11636 63.6261 1.58081C63.4337 2.04526 63.3834 2.55633 63.4815 3.0494C63.5795 3.54246 63.8216 3.99536 64.1771 4.35084C64.5326 4.70632 64.9855 4.9484 65.4785 5.04647C65.9716 5.14455 66.4827 5.09421 66.9471 4.90183C67.4116 4.70945 67.8085 4.38366 68.0878 3.96566C68.3671 3.54767 68.5162 3.05624 68.5162 2.55352C68.5162 2.21972 68.4505 1.8892 68.3227 1.58081C68.195 1.27243 68.0078 0.992222 67.7717 0.756194C67.5357 0.520167 67.2555 0.332939 66.9471 0.205202C66.6387 0.0774643 66.3082 0.0117188 65.9744 0.0117188V0.0117188Z" fill="#878787"/>
<path d="M87.2088 15.6289C87.2098 16.5564 87.0552 17.4775 86.7514 18.3538H79.5856V14.6337H82.6404C82.4464 13.8805 82.0328 13.2021 81.4522 12.6845C80.8717 12.1669 80.1504 11.8337 79.38 11.727C78.6096 11.6204 77.8248 11.7451 77.1255 12.0855C76.4262 12.4259 75.8438 12.9664 75.4525 13.6386C75.0611 14.3107 74.8784 15.0839 74.9275 15.8601C74.9766 16.6363 75.2554 17.3804 75.7284 17.9978C76.2014 18.6152 76.8472 19.078 77.5839 19.3275C78.3206 19.577 79.1147 19.6018 79.8656 19.3989C80.3313 21.1425 80.8219 22.9832 81.0104 23.6956C79.3663 24.1343 77.6275 24.0601 76.0267 23.4831C74.4259 22.9061 73.0397 21.8537 72.0536 20.467C71.0675 19.0802 70.5287 17.4253 70.5093 15.7238C70.4899 14.0223 70.9909 12.3555 71.9451 10.9466C72.8993 9.53772 74.2612 8.45402 75.8484 7.84063C77.4355 7.22725 79.1723 7.11346 80.8259 7.51452C82.4796 7.91557 83.9712 8.81232 85.1011 10.0847C86.231 11.357 86.9451 12.9442 87.1478 14.6337C87.1876 14.9639 87.208 15.2962 87.2088 15.6289V15.6289Z" fill="#878787"/>
<path d="M2.5418 5.08359C3.94559 5.08359 5.08359 3.94559 5.08359 2.5418C5.08359 1.138 3.94559 0 2.5418 0C1.138 0 0 1.138 0 2.5418C0 3.94559 1.138 5.08359 2.5418 5.08359Z" fill="#878787"/>
<path d="M50.9895 23.9385H53.6757V19.4906H50.9895C50.6999 19.4868 50.4232 19.3701 50.2185 19.1653C50.0137 18.9605 49.8969 18.6839 49.8931 18.3943V11.6921H53.6757V7.24396H49.8931V0.0625H45.4453V18.3943C45.4496 19.8634 46.0351 21.271 47.0739 22.3098C48.1127 23.3487 49.5204 23.9342 50.9895 23.9385V23.9385Z" fill="#878787"/>
<path d="M11.9945 23.9956C10.081 23.9971 8.1951 23.5404 6.49429 22.6638C4.79349 21.7872 3.32727 20.5162 2.21823 18.957C1.10918 17.3978 0.389549 15.5957 0.119493 13.7014C-0.150562 11.8072 0.0368121 9.87581 0.665948 8.06879L4.8693 9.52386C4.30688 11.1373 4.30871 12.8939 4.87451 14.5062C5.44031 16.1185 6.53656 17.491 7.98391 18.3991C9.43125 19.3073 11.144 19.6974 12.8418 19.5055C14.5397 19.3136 16.1222 18.5511 17.3303 17.3429C18.7429 15.9263 19.5361 14.0075 19.5361 12.007C19.5361 10.0065 18.743 8.08769 17.3305 6.6711C16.3235 5.67366 15.0578 4.97755 13.6762 4.66136C12.2945 4.34517 10.852 4.42148 9.51148 4.88169L8.0564 0.678336C10.1861 -0.0519799 12.4776 -0.172352 14.6722 0.33081C16.8667 0.833972 18.8769 1.94063 20.4757 3.52583C22.154 5.2025 23.2971 7.33938 23.7603 9.666C24.2236 11.9926 23.9861 14.4044 23.0781 16.596C22.17 18.7876 20.6322 20.6606 18.6592 21.9778C16.6862 23.295 14.3667 23.9972 11.9945 23.9956V23.9956Z" fill="#878787"/>
</g>
<defs>
<clipPath id="clip0_1444_27944">
<rect width="98.4" height="24" fill="white"/>
</clipPath>
</defs>
</svg>
