<svg width="113" height="68" viewBox="0 0 113 68" fill="none" xmlns="http://www.w3.org/2000/svg">
<path d="M30.3292 35.3126C30.0383 35.2301 29.7575 35.1095 29.4868 34.9506C29.2143 34.7772 29.0336 34.6294 28.9448 34.5074C28.9287 34.3763 28.9398 34.2863 28.9781 34.2373C29.0146 34.1737 29.1357 34.1367 29.3413 34.1262C29.5596 34.0994 29.9126 34.0856 30.4001 34.0848C30.5748 34.0634 30.7914 34.022 31.0498 33.9607C31.3083 33.8994 31.5431 33.8263 31.7544 33.7412C31.9801 33.6544 32.1022 33.5655 32.1206 33.4746C32.1934 33.4657 32.2053 33.4421 32.1562 33.4037C32.1054 33.3509 32.0473 33.2989 31.9819 33.2478C31.9237 33.255 31.8555 33.2412 31.7773 33.2064C31.6974 33.1572 31.6283 33.1361 31.5701 33.1432C31.5612 33.0704 31.4785 32.9993 31.3222 32.9299C31.1787 32.844 31.0306 32.781 30.8779 32.7406C30.5254 32.5179 30.2202 32.3189 29.9623 32.1437C29.7026 31.954 29.5974 31.8191 29.6466 31.7392C29.6395 31.6809 29.6359 31.6518 29.6359 31.6518C29.6341 31.6373 29.6332 31.63 29.6332 31.63C29.5313 31.6425 29.397 31.5112 29.2302 31.2362C29.078 30.9593 28.9876 30.7044 28.959 30.4715C28.9376 30.2968 28.9617 30.0722 29.0315 29.7977C29.0994 29.5086 29.2028 29.2077 29.3418 28.8951C29.4807 28.5825 29.6332 28.32 29.7992 28.1075C30.0308 27.8279 30.3262 27.5256 30.6853 27.2008C31.0426 26.8614 31.3971 26.5592 31.7488 26.2944C32.1132 26.0132 32.422 25.8202 32.6751 25.7152C32.9246 25.5811 33.1585 25.5007 33.3769 25.4739C33.6098 25.4453 33.8199 25.4712 34.0071 25.5517C34.1616 25.6066 34.306 25.6997 34.4403 25.8309C34.5875 25.9459 34.7136 26.0708 34.8188 26.2056C34.9368 26.3241 35.0166 26.4325 35.0583 26.5308C35.0797 26.7055 35.0893 26.9038 35.087 27.1258C35.0829 27.3332 35.0616 27.5205 35.023 27.6878C34.999 27.8533 34.936 27.9423 34.8341 27.9548C34.8341 27.9548 34.8132 27.9647 34.7713 27.9847C34.7422 27.9882 34.7321 28.0264 34.741 28.0992C34.7589 28.2448 34.6703 28.4256 34.4751 28.6416C34.2218 28.8649 33.9959 29.0108 33.7975 29.0795C33.5972 29.1336 33.4637 29.0688 33.3968 28.8849C33.3459 28.832 33.3106 28.7846 33.2906 28.7428C33.2707 28.7009 33.2316 28.6835 33.1734 28.6907C33.1734 28.6907 33.1489 28.6715 33.0999 28.6332C33.0508 28.5949 33.0201 28.5248 33.0075 28.4229C33.0004 28.3646 33.016 28.311 33.0543 28.262C33.0908 28.1984 33.1091 28.1666 33.1091 28.1666C33.1819 28.1576 33.2666 28.066 33.3634 27.8915C33.4585 27.7025 33.538 27.5081 33.6021 27.3081C33.679 27.0918 33.713 26.9472 33.704 26.8744C33.6933 26.7871 33.6725 26.7379 33.6416 26.727C33.6252 26.7142 33.5588 26.715 33.4424 26.7293C33.2493 26.8416 33.0161 26.9885 32.7429 27.1698C32.4696 27.3511 32.2109 27.5306 31.9667 27.7084C31.7353 27.8698 31.5686 28.0159 31.4664 28.1466C31.4207 28.2557 31.3923 28.3257 31.3813 28.3566C31.3686 28.3729 31.3331 28.3847 31.2748 28.3918C31.2677 28.3336 31.2203 28.3689 31.1327 28.4979C31.0579 28.6105 30.9593 28.7704 30.837 28.9775C30.7292 29.1829 30.6214 29.3882 30.5136 29.5935C30.4186 29.7825 30.3474 29.9243 30.2999 30.0187C30.2743 30.0514 30.2486 30.1433 30.2228 30.2942C30.2098 30.4288 30.2105 30.5543 30.2248 30.6708C30.188 30.8526 30.2104 30.9754 30.2922 31.0393C30.3721 31.0886 30.5483 31.1999 30.8208 31.3734C31.3768 31.6893 31.8156 31.9531 32.1371 32.1648C32.4586 32.3766 32.702 32.5536 32.8672 32.6958C33.0325 32.8381 33.1377 32.9729 33.1829 33.1004C33.4986 33.5049 33.6197 33.8299 33.5464 34.0753C33.4731 34.3208 33.2507 34.5549 32.8791 34.7779C32.7424 34.8686 32.5094 34.9563 32.1799 35.0411C31.8505 35.1258 31.5111 35.1897 31.1617 35.2326C30.8141 35.29 30.5366 35.3167 30.3292 35.3126ZM35.8299 33.7506C35.7574 33.6413 35.6739 33.5629 35.5794 33.5154C35.4831 33.4533 35.4314 33.3932 35.4242 33.335C35.4171 33.2767 35.4027 33.2194 35.381 33.163C35.372 33.0902 35.3349 33.0282 35.2695 32.9772C35.186 32.8987 35.1691 32.7013 35.2189 32.3849C35.2669 32.0539 35.3652 31.6503 35.5135 31.174C35.6602 30.6831 35.8405 30.1659 36.0545 29.6225C36.1567 29.4917 36.2544 29.3246 36.3476 29.121C36.4408 28.9175 36.5129 28.783 36.564 28.7176C36.5569 28.6594 36.5725 28.6058 36.6108 28.5567C36.6473 28.4932 36.6947 28.4578 36.7529 28.4506L36.7368 28.3196C36.7279 28.2468 36.7782 28.115 36.8878 27.9243C37.0119 27.7317 37.1633 27.521 37.3421 27.2922C37.5191 27.0488 37.7052 26.8191 37.9003 26.603C38.0936 26.3724 38.2577 26.2045 38.3926 26.0993C38.6732 25.8579 38.971 25.6958 39.2859 25.6128C39.6154 25.528 39.9082 25.5659 40.1643 25.7266C40.2134 25.7649 40.2951 25.8287 40.4095 25.9181C40.5239 26.0075 40.6547 26.1097 40.8018 26.2246C40.9617 26.3232 41.1224 26.4291 41.2841 26.5422L42.1805 27.1636L41.9215 28.3036C41.8038 28.9092 41.8154 29.4249 41.9563 29.8509C42.1119 30.2751 42.3039 30.6358 42.5325 30.9328C42.6249 31.084 42.7893 31.219 43.0255 31.3377C43.2763 31.4547 43.5054 31.5152 43.7127 31.5193C43.831 31.5196 43.9455 31.5498 44.0564 31.6101C44.1672 31.6704 44.2325 31.7806 44.2521 31.9407C44.27 32.0863 44.2552 32.2063 44.2077 32.3008C44.1602 32.3953 44.0654 32.4661 43.9234 32.513C43.4502 32.6303 42.9846 32.5692 42.5267 32.3299C42.0833 32.0888 41.6459 31.6549 41.2143 31.0281C41.1453 30.9479 41.0456 30.7976 40.9151 30.5772C40.7974 30.3405 40.7267 30.1866 40.7032 30.1156C40.654 30.1956 40.5618 30.3473 40.4267 30.5707C40.2898 30.7796 40.183 30.9331 40.1064 31.0312C39.2015 32.2062 38.3929 33.0222 37.6806 33.4791C36.9811 33.9196 36.3642 34.0101 35.8299 33.7506ZM36.4659 32.4313C36.4784 32.5332 36.6312 32.5144 36.9244 32.375C37.2304 32.2192 37.5475 31.9734 37.8757 31.6376C38.3188 31.1546 38.7565 30.628 39.1889 30.0577C39.6359 29.4857 39.9854 28.9625 40.2375 28.4883L40.6213 27.6432C40.4346 27.3262 40.2468 27.1202 40.0578 27.0252C39.8816 26.9139 39.7353 26.8654 39.6188 26.8797C39.4296 26.9029 39.1671 27.1124 38.8315 27.5083C38.5105 27.9023 38.1747 28.4164 37.824 29.0506C37.4733 29.6847 37.1516 30.3744 36.8589 31.1196C36.7491 31.4286 36.653 31.7286 36.5705 32.0195C36.5007 32.294 36.4659 32.4313 36.4659 32.4313ZM46.7919 32.4933C46.6589 32.6131 46.5632 32.6766 46.505 32.6837C46.445 32.6763 46.3251 32.6024 46.1453 32.4619C45.8365 32.2338 45.5792 31.763 45.3734 31.0494C45.1803 30.3195 45.0016 29.2849 44.8371 27.9456C44.8221 27.3416 44.7886 26.8286 44.7368 26.4064C44.6995 25.9825 44.6773 25.7414 44.6702 25.6831C44.7067 25.6195 44.7904 25.5797 44.9215 25.5636C45.067 25.5457 45.1943 25.5597 45.3034 25.6054C45.4579 25.6603 45.5659 25.7579 45.6275 25.8981C45.7036 26.0365 45.7722 26.2941 45.8332 26.6708C45.8924 27.0329 45.9685 27.5925 46.0615 28.3495C46.0893 28.9371 46.13 29.4493 46.1836 29.886C46.2355 30.3082 46.2868 30.5457 46.3376 30.5986C46.4084 30.6933 46.4774 30.7144 46.5449 30.6618C46.6251 30.5928 46.7609 30.4358 46.9525 30.1906C47.0493 30.0162 47.1689 29.7872 47.3115 29.5037C47.4522 29.2057 47.5637 28.9703 47.6459 28.7977C47.781 28.5742 47.9025 28.3598 48.0102 28.1545C48.1326 27.9474 48.2193 27.8111 48.2704 27.7458C48.3143 27.6221 48.3737 27.504 48.4485 27.3914C48.5233 27.2788 48.5836 27.1679 48.6293 27.0589C48.7555 26.7626 48.8952 26.5164 49.0484 26.3203C49.1999 26.1096 49.3047 26.0007 49.363 25.9935C49.4266 26.0301 49.4793 26.0384 49.5212 26.0184C49.5758 25.9822 49.6323 25.9605 49.6905 25.9533C49.7799 25.8389 49.9182 25.8219 50.1054 25.9024C50.169 25.9389 50.2262 25.9836 50.277 26.0365C50.326 26.0748 50.3541 26.123 50.3613 26.1813C50.3702 26.2541 50.3308 26.4141 50.2429 26.6613C50.1696 26.9067 50.0736 27.1475 49.9548 27.3838C49.8488 27.6037 49.7621 27.7399 49.6947 27.7925C49.6947 27.7925 49.6755 27.817 49.6372 27.8661C49.5989 27.9151 49.5542 27.9723 49.5031 28.0377C49.4865 28.1432 49.4142 28.3368 49.2863 28.6184C49.1565 28.8856 48.9949 29.1936 48.8013 29.5424C48.6077 29.8913 48.4068 30.2411 48.1987 30.5917C47.9905 30.9424 47.807 31.253 47.6481 31.5237C47.5276 31.7454 47.3825 31.9479 47.2129 32.1313C47.0416 32.3001 46.9012 32.4208 46.7919 32.4933ZM53.3286 32.4665C52.6881 32.5451 52.1345 32.3693 51.6679 31.939C51.1995 31.4941 50.9279 30.9068 50.8531 30.1771C50.8179 29.6495 50.851 29.0765 50.9524 28.4582C51.0666 27.8236 51.2425 27.2109 51.4803 26.6202C51.7163 26.0149 51.9904 25.4788 52.3025 25.012C52.6146 24.5451 52.9564 24.2002 53.328 23.9773C53.4646 23.8866 53.6103 23.8096 53.7651 23.7463C53.9344 23.6812 54.1064 23.6379 54.2811 23.6164C54.4413 23.5968 54.6122 23.6053 54.7941 23.6421C54.9741 23.6643 55.126 23.6974 55.2496 23.7414C55.5096 23.8129 55.714 23.9134 55.8629 24.0429C56.0118 24.1723 56.1559 24.3837 56.2954 24.6769C56.373 24.9481 56.419 25.1419 56.4333 25.2584C56.4476 25.3749 56.4326 25.554 56.3884 25.7959C56.2781 26.3414 56.1079 26.8204 55.8778 27.2328C55.6476 27.6453 55.3157 28.0111 54.8821 28.3303C54.7746 28.4174 54.6434 28.4926 54.4887 28.556C54.3467 28.603 54.1956 28.6363 54.0355 28.6559C53.7443 28.6917 53.4542 28.6756 53.1651 28.6077C52.8888 28.5234 52.6571 28.3819 52.4702 28.1832L52.2959 28.0273L52.2518 28.21C52.1545 28.6209 52.0827 28.9992 52.0365 29.3447C52.0048 29.6885 52.006 29.9986 52.0399 30.2752C52.0614 30.4499 52.0965 30.6155 52.1453 30.7721C52.2086 30.9268 52.2838 31.058 52.3709 31.1655C52.4398 31.2457 52.5425 31.2996 52.6789 31.3272C52.828 31.3384 52.9827 31.3342 53.1428 31.3146C53.2447 31.302 53.3466 31.2895 53.4485 31.277C53.5632 31.2482 53.6688 31.2056 53.7653 31.1495C54.0021 31.0317 54.187 30.913 54.32 30.7932C54.4677 30.6716 54.6144 30.5428 54.7602 30.4067L54.8422 30.3523L54.8204 30.355C54.9843 30.2462 55.1265 30.1401 55.2467 30.0366C55.3816 29.9314 55.449 29.8788 55.449 29.8788C55.5072 29.8716 55.561 29.8281 55.6103 29.7482C55.7196 29.6756 55.8679 29.6796 56.0551 29.7601C56.2568 29.8387 56.3675 29.9581 56.3872 30.1182C56.3816 30.1928 56.3304 30.3173 56.2336 30.4918C56.135 30.6516 56.0209 30.806 55.8915 30.9549C55.7765 31.102 55.6763 31.1882 55.5907 31.2135C55.578 31.2298 55.5306 31.2652 55.4486 31.3196C55.3648 31.3594 55.3102 31.3957 55.2846 31.4284L55.3065 31.4257C55.1969 31.6165 55.0766 31.7199 54.9456 31.736L54.7709 31.7574C54.7252 31.8665 54.5503 32.0062 54.2461 32.1765C53.9401 32.3323 53.6343 32.429 53.3286 32.4665ZM53.7214 27.5419C53.9834 27.5098 54.2001 27.4093 54.3715 27.2405C54.5556 27.0553 54.7088 26.8592 54.8312 26.652C55.0741 26.2232 55.195 25.8242 55.194 25.4549C55.2057 25.0693 55.1299 24.8126 54.9664 24.6849C54.8737 24.6519 54.791 24.6399 54.7182 24.6489C54.6582 24.6415 54.5371 24.6785 54.355 24.76C54.2276 24.8052 54.059 24.9367 53.8494 25.1545C53.6397 25.3724 53.4327 25.6121 53.2284 25.8736C53.0386 26.1333 52.8953 26.3504 52.7985 26.5248L52.571 27.0182C52.682 26.9602 52.7885 26.925 52.8904 26.9125C53.0051 26.8836 53.0715 26.8829 53.0897 26.9102C53.1057 27.0412 53.1428 27.1623 53.2007 27.2734C53.2715 27.3681 53.3468 27.4401 53.4268 27.4894C53.5213 27.5369 53.6194 27.5544 53.7214 27.5419ZM67.1561 30.9239C67.116 30.9583 67.0577 30.9655 66.9814 30.9453C66.9068 30.9397 66.8214 30.9058 66.7251 30.8438C66.6306 30.7963 66.527 30.7351 66.4144 30.6603C66.349 30.6092 66.3046 30.5482 66.2811 30.4772C66.2558 30.3916 66.2525 30.2442 66.2712 30.0351C66.2898 29.8259 66.3151 29.4903 66.347 29.0283C66.3695 28.73 66.3993 28.4308 66.4363 28.1308C66.4733 27.8307 66.5094 27.5824 66.5444 27.386C66.5776 27.1751 66.5942 27.0696 66.5942 27.0696C66.6634 27.0316 66.7385 26.8007 66.8194 26.377C66.915 25.9515 67.0143 25.4369 67.1175 24.8332C67.1507 24.6222 67.2106 24.2676 67.2972 23.7693C67.3838 23.2711 67.4722 22.7873 67.5623 22.3182C67.6415 21.8799 67.7042 21.4881 67.7505 21.1425C67.7949 20.7824 67.8171 20.6024 67.8171 20.6024C67.8171 20.6024 67.716 20.6813 67.5137 20.8391C67.3242 20.9806 67.0818 21.1729 66.7866 21.416C66.4896 21.6446 66.2025 21.8941 65.9254 22.1645C65.6958 22.3405 65.4224 22.5809 65.1052 22.8859C64.8026 23.189 64.53 23.4367 64.2877 23.629C63.9322 23.983 63.7134 24.1872 63.6314 24.2416C63.5477 24.2814 63.4358 24.273 63.2958 24.2163C63.0869 24.0794 62.9354 23.9281 62.8411 23.7623C62.7615 23.5948 62.7564 23.4329 62.8258 23.2766C62.8531 23.2584 62.9333 23.1895 63.0664 23.0697C63.214 22.9482 63.3744 22.8102 63.5476 22.656C63.7207 22.5017 63.8802 22.3566 64.0261 22.2204C64.1864 22.0825 64.3004 21.9873 64.3678 21.9347C64.4114 21.9293 64.4853 21.8685 64.5892 21.7523C64.6932 21.6361 64.8053 21.5263 64.9256 21.4229C64.9876 21.3266 65.2182 21.0988 65.6174 20.7395C66.0166 20.3801 66.4477 19.9799 66.9108 19.5389C67.4083 19.1379 67.8265 18.8132 68.1654 18.5647C68.5189 18.3144 68.7256 18.193 68.7856 18.2004C68.8293 18.1951 68.8984 18.2161 68.9929 18.2636C69.1019 18.3094 69.2055 18.3705 69.3035 18.4471C69.4016 18.5238 69.4633 18.6048 69.4886 18.6904C69.5884 18.7816 69.5734 19.0199 69.4434 19.4052C69.4012 19.5434 69.3361 19.7952 69.248 20.1607C69.1581 20.5116 69.0607 20.9225 68.956 21.3935C68.8641 21.8481 68.7721 22.3026 68.6802 22.7572C68.601 23.1955 68.5365 23.5728 68.4867 23.8893C68.4256 24.3548 68.3594 24.7176 68.2878 24.9776C68.2309 25.2358 68.173 25.4867 68.1143 25.7304C68.0683 25.9577 68.0185 26.2741 67.9649 26.6797C67.8916 26.9251 67.819 27.2369 67.7472 27.6151C67.6882 27.977 67.6365 28.338 67.5921 28.6981C67.5458 29.0437 67.5143 29.3283 67.4974 29.552C67.4203 29.8866 67.3605 30.1821 67.3181 30.4385C67.2757 30.6949 67.2217 30.8567 67.1561 30.9239ZM72.8776 29.4677C72.5923 29.3107 72.4416 29.1666 72.4255 29.0356C72.3566 28.9554 72.2857 28.9198 72.2129 28.9287C72.171 28.9486 72.122 28.9103 72.0658 28.8138C72.0242 28.7155 71.9808 28.6026 71.9356 28.4751C71.9031 28.3313 71.8906 28.2294 71.898 28.1694C71.942 28.0458 72.0213 27.9696 72.1359 27.9407C72.2488 27.8973 72.3598 27.8985 72.4688 27.9442C72.5907 27.9736 72.666 28.0456 72.6949 28.1602C72.7383 28.2731 72.8591 28.3543 73.0572 28.4039C73.27 28.4517 73.5356 28.4486 73.8541 28.3947C74.2599 28.3301 74.6695 28.1764 75.083 27.9335C75.5111 27.6889 75.8965 27.3977 76.2392 27.0601C76.5965 26.7207 76.8728 26.3838 77.0682 26.0495C77.1451 25.8332 77.2067 25.5523 77.2529 25.2067C77.2991 24.8612 77.3207 24.5556 77.3176 24.29C77.3146 24.0244 77.2767 23.8961 77.2039 23.905C77.2039 23.905 77.1831 23.8559 77.1414 23.7575C77.1144 23.6574 77.0718 23.5518 77.0139 23.4407C76.9143 23.2313 76.7201 23.0335 76.4312 22.8473C76.1406 22.6466 75.8653 22.5104 75.6053 22.4389C75.4998 22.4223 75.3079 22.4237 75.0295 22.4431C74.7639 22.4462 74.5237 22.4757 74.3089 22.5316C74.0778 22.5747 73.8667 22.6007 73.6757 22.6093C73.4992 22.6162 73.411 22.6197 73.411 22.6197C73.3364 22.6141 73.2201 22.5692 73.062 22.4852C72.9184 22.3994 72.7813 22.3054 72.6505 22.2032C72.5198 22.1011 72.4499 22.0136 72.441 21.9408C72.4576 21.8353 72.5107 21.6663 72.6004 21.4336C72.6882 21.1864 72.7953 20.9147 72.9214 20.6184C73.0604 20.3058 73.2093 20.0142 73.3681 19.7435C73.5252 19.4582 73.6803 19.2175 73.8336 19.0213C74.2113 18.4873 74.6625 18.0699 75.1871 17.7691C75.7244 17.4519 76.2933 17.2712 76.8937 17.227C77.3177 17.1898 77.6206 17.1895 77.8024 17.2263C77.997 17.2467 78.196 17.3627 78.3992 17.5741C78.5407 17.7637 78.614 17.9394 78.6191 18.1013C78.6242 18.2632 78.5794 18.3795 78.4847 18.4503C78.3899 18.521 78.2498 18.5234 78.0644 18.4575C77.8445 18.3515 77.5544 18.3354 77.194 18.4093C76.8482 18.4813 76.486 18.5996 76.1072 18.7643C75.8158 18.9183 75.5115 19.1478 75.1943 19.4527C74.8899 19.7413 74.7111 19.9701 74.658 20.1392C74.6051 20.19 74.5668 20.2391 74.543 20.2863C74.5338 20.3318 74.4992 20.3508 74.4392 20.3434C74.4392 20.3434 74.421 20.3752 74.3844 20.4388C74.3461 20.4878 74.3305 20.5414 74.3377 20.5997C74.2756 20.696 74.2327 20.7677 74.209 20.815C74.198 20.8459 74.1598 20.8358 74.0944 20.7847C74.0944 20.7847 74.0971 20.8065 74.1025 20.8502C74.1078 20.8939 74.1068 20.9457 74.0994 21.0057C74.0974 21.1094 74.1154 21.1959 74.1534 21.2651C74.2042 21.318 74.3697 21.342 74.6499 21.3371C75.021 21.3507 75.3047 21.3749 75.5011 21.4099C75.6957 21.4304 75.9884 21.5274 76.3791 21.7011C76.8153 21.884 77.1813 22.1567 77.477 22.5194C77.771 22.8675 77.9911 23.2764 78.1375 23.7461C78.2984 24.2139 78.3728 24.6998 78.3608 25.2037C78.3564 25.5293 78.3431 25.7822 78.3209 25.9622C78.2987 26.1423 78.2044 26.3977 78.0382 26.7284C77.7606 27.2353 77.4039 27.7003 76.9682 28.1232C76.5307 28.5315 76.0624 28.8698 75.5634 29.1379C75.0626 29.3915 74.5728 29.5551 74.0942 29.6286C73.6302 29.7004 73.2246 29.6468 72.8776 29.4677ZM81.4522 31.0304C81.1848 31.0189 80.994 30.9093 80.8799 30.7017C80.7803 30.4923 80.7673 30.2057 80.8408 29.842C80.9144 29.4784 81.0772 29.0594 81.3293 28.5851C81.446 28.4526 81.55 28.3364 81.6411 28.2365C81.7305 28.1221 81.7835 28.0122 81.8001 27.9067C81.8604 27.7959 81.9964 27.5797 82.2081 27.2581C82.4181 26.9221 82.6672 26.5442 82.9555 26.1246C83.2439 25.705 83.5259 25.2936 83.8014 24.8903C84.0916 24.4853 84.337 24.1374 84.5377 23.8468C84.7385 23.5562 84.8435 23.3881 84.8527 23.3427C84.9127 23.3501 84.9746 23.3129 85.0385 23.2312C85.1005 23.1349 85.1399 23.034 85.1565 22.9286C85.1858 22.8067 85.2461 22.6959 85.3373 22.596C85.4267 22.4816 85.5214 22.4109 85.6215 22.3838C85.6417 22.3075 85.671 22.2448 85.7093 22.1957C85.7476 22.1467 85.7704 22.0922 85.7778 22.0322C85.7852 21.9721 85.8081 21.9176 85.8464 21.8686C85.8993 21.8178 85.9294 21.7623 85.9368 21.7023C86.0535 21.5698 86.2533 21.331 86.536 20.986C86.8169 20.6264 87.1426 20.2096 87.5129 19.7356C87.8832 19.2616 88.2654 18.764 88.6595 18.2427C89.0536 17.7215 89.4221 17.2329 89.7651 16.7771C90.1081 16.3212 90.3864 15.9398 90.5999 15.6328C90.8134 15.3258 90.932 15.1487 90.9558 15.1015C91.0345 14.8997 91.1665 14.8318 91.3519 14.8977C91.4467 14.8269 91.5631 14.8126 91.7013 14.8548C91.7013 14.8548 91.713 14.8903 91.7365 14.9613C91.7728 15.0159 91.829 15.1125 91.9051 15.2509C91.9957 15.3875 92.0409 15.515 92.0407 15.6332C92.0386 15.7369 92.0029 15.8669 91.9334 16.0232C91.8803 16.1923 91.8099 16.3413 91.7223 16.4702C91.6493 16.5974 91.5152 16.769 91.3201 16.9851C91.1395 17.1994 90.855 17.5298 90.4665 17.9765C90.3789 18.1055 90.2001 18.3343 89.9302 18.663C89.673 18.9753 89.3976 19.3195 89.1039 19.6954C88.8084 20.0568 88.5521 20.3764 88.335 20.6542C88.1161 20.9175 88.0012 21.0647 87.9902 21.0956C87.9337 21.1173 87.8654 21.1626 87.7852 21.2315C87.7196 21.2987 87.6602 21.4168 87.6071 21.5859C87.5049 21.7167 87.338 21.9219 87.1064 22.2015C86.8893 22.4794 86.685 22.7409 86.4934 22.9861C86.3146 23.2149 86.2207 23.352 86.2115 23.3975C86.1877 23.4447 86.1485 23.4865 86.0939 23.5228C86.0392 23.559 85.97 23.5971 85.8862 23.6369C85.8699 23.6241 85.8498 23.6414 85.8261 23.6886C85.8169 23.7341 85.8123 23.7568 85.8123 23.7568C85.8194 23.815 85.7682 23.9395 85.6587 24.1303C85.5619 24.3047 85.4022 24.5091 85.1798 24.7432C84.9681 25.0648 84.6888 25.498 84.3419 26.043C84.0079 26.5717 83.6628 27.1312 83.3068 27.7217C82.9635 28.2958 82.6577 28.8136 82.3893 29.2751C82.1226 29.7511 81.9564 30.0819 81.8905 30.2673C81.808 30.5582 81.7357 30.7518 81.6736 30.848C81.6261 30.9425 81.5523 31.0033 81.4522 31.0304ZM88.7761 27.3161C89.0024 26.9928 89.1787 26.683 89.3048 26.3868C89.431 26.0905 89.5418 25.7297 89.6374 25.3042C89.6724 25.1078 89.6711 24.8567 89.6336 24.551C89.596 24.2453 89.5382 24.0751 89.46 24.0404C89.3055 23.9855 89.1281 23.9851 88.9279 24.0392C88.7405 24.077 88.5573 24.2103 88.3786 24.4391C88.0486 24.7604 87.7803 25.1628 87.5737 25.6462C87.3798 26.1133 87.1922 26.6314 87.0109 27.2004C86.899 27.6131 86.9019 27.9378 87.0197 28.1746C87.1502 28.395 87.3711 28.4492 87.6824 28.337C87.9955 28.2395 88.3601 27.8992 88.7761 27.3161ZM87.3606 29.507C87.215 29.5249 87.0877 29.5109 86.9787 29.4652C86.8842 29.4177 86.7724 29.3502 86.6435 29.2626C86.3819 29.0582 86.1941 28.8523 86.0799 28.6446C85.9658 28.437 85.9189 28.2359 85.9394 28.0413C85.956 27.9358 85.9525 27.8475 85.929 27.7765C85.9183 27.6892 85.9129 27.6455 85.9129 27.6455C85.8458 27.5799 85.8259 27.538 85.8532 27.5199C85.8805 27.5017 85.8988 27.4699 85.908 27.4245C85.9808 27.4156 85.9945 27.3474 85.9493 27.2199C85.9241 27.1344 85.95 26.9243 86.0271 26.5897C86.1043 26.2552 86.2132 25.9389 86.3539 25.6408C86.4124 25.5154 86.4955 25.3501 86.6033 25.1448C86.7111 24.9394 86.8334 24.7323 86.9703 24.5234C87.1218 24.3127 87.2631 24.1402 87.3944 24.0059C87.6552 23.7226 87.8876 23.5094 88.0917 23.3661C88.2957 23.2228 88.5252 23.106 88.7801 23.0156C89.0332 22.9106 89.2116 22.8592 89.3152 22.8612C89.4171 22.8487 89.5671 22.9264 89.765 23.0942C90.0395 23.1639 90.2458 23.2789 90.3837 23.4393C90.5343 23.5834 90.6439 23.8137 90.7123 24.1304C90.7843 24.4762 90.8044 24.8801 90.7725 25.3421C90.7533 25.7878 90.5519 26.374 90.1683 27.1009C89.9272 27.5442 89.6954 27.883 89.473 28.1172C89.2505 28.3514 88.9844 28.5909 88.6746 28.8358C88.4468 29.0264 88.2354 29.1705 88.0406 29.2683C87.8475 29.3807 87.6208 29.4603 87.3606 29.507ZM84.7516 19.6313C84.9779 19.308 85.1541 18.9982 85.2803 18.702C85.4065 18.4057 85.5173 18.0449 85.6128 17.6194C85.6478 17.423 85.6465 17.1719 85.609 16.8662C85.5715 16.5605 85.5136 16.3903 85.4355 16.3556C85.281 16.3007 85.1036 16.3003 84.9034 16.3544C84.7159 16.3922 84.5328 16.5255 84.354 16.7543C84.024 17.0756 83.7558 17.478 83.5491 17.9614C83.3553 18.4285 83.1677 18.9466 82.9863 19.5156C82.8745 19.9283 82.8774 20.253 82.9951 20.4898C83.1256 20.7102 83.3474 20.7716 83.6605 20.6741C83.9719 20.562 84.3356 20.2144 84.7516 19.6313ZM83.3115 21.803C83.166 21.8209 83.0386 21.807 82.9296 21.7612C82.8351 21.7137 82.7234 21.6462 82.5944 21.5586C82.3329 21.3543 82.145 21.1483 82.0309 20.9407C81.9167 20.733 81.8699 20.5319 81.8903 20.3373C81.9069 20.2318 81.9035 20.1436 81.88 20.0726C81.8692 19.9852 81.8639 19.9416 81.8639 19.9416C81.7967 19.8759 81.7768 19.834 81.8041 19.8159C81.8315 19.7978 81.8497 19.766 81.8589 19.7205C81.9317 19.7116 81.9455 19.6434 81.9003 19.516C81.875 19.4304 81.9009 19.2203 81.9781 18.8858C82.0552 18.5512 82.1641 18.2349 82.3049 17.9369C82.3634 17.8115 82.4465 17.6461 82.5543 17.4408C82.662 17.2355 82.7844 17.0283 82.9213 16.8194C83.0727 16.6087 83.2141 16.4362 83.3454 16.3019C83.6061 16.0187 83.8385 15.8054 84.0426 15.6621C84.2467 15.5189 84.4761 15.402 84.731 15.3116C84.9841 15.2067 85.1625 15.1552 85.2662 15.1573C85.3681 15.1448 85.518 15.2224 85.7159 15.3902C85.9905 15.4599 86.1967 15.575 86.3346 15.7354C86.4853 15.8794 86.5948 16.1098 86.6633 16.4265C86.7353 16.7723 86.7553 17.1762 86.7234 17.6382C86.7042 18.0838 86.5028 18.6701 86.1192 19.3969C85.8781 19.8403 85.6464 20.179 85.4239 20.4132C85.2015 20.6474 84.9353 20.887 84.6255 21.1319C84.3977 21.3224 84.1873 21.4738 83.9942 21.5862C83.7993 21.684 83.5718 21.7563 83.3115 21.803Z" fill="#1CDD90"/>
<path d="M30.4091 41.0076C20.2347 41.0286 16.6134 48.9498 10.8535 61.5948" stroke="#1CDD90" stroke-linecap="round"/>
<path d="M19.1661 57.7738L10.2159 62.3806L9.828 52.5831" stroke="#1CDD90" stroke-linecap="round" stroke-linejoin="round"/>
<path d="M85.1554 8.35695C69.1072 1.8181 40.4019 6.78229 26.4786 15.9379C20.1376 20.1077 8.87715 31.3164 17.5746 39.5256C19.1086 40.9735 20.8935 42.0837 22.7129 43.0106C42.7366 53.2108 68.3729 48.7739 87.3033 38.8751C90.1266 37.3988 92.8769 35.72 95.3361 33.5954C97.1754 32.0064 98.9086 30.104 100.231 27.9699C104.101 21.7223 102.205 16.146 96.6977 11.9285C90.3123 7.0387 82.3061 6.26344 74.836 6.21771C68.3038 6.17774 61.8619 6.80702 55.4428 7.93884C43.4042 10.0614 29.5646 12.786 20.3407 21.6758C16.3119 25.5587 12.419 33.2768 16.9325 38.5825C21.8234 44.3317 31.7934 45.1636 38.494 45.6808C56.5704 47.0761 84.2634 41.8834 99.183 30.5657C100.792 29.3452 102.432 28.1905 103.819 26.675C104.915 25.4776 105.941 24.1396 106.8 22.7226C112.884 12.6802 96.0913 8.89765 90.2968 8.60543C72.0685 7.68617 45.1035 6.44057 29.6838 16.7332" stroke="#1CDD90" stroke-miterlimit="1.5" stroke-linecap="round" stroke-linejoin="round"/>
</svg>
