<svg width="128" height="57" viewBox="0 0 128 57" fill="none" xmlns="http://www.w3.org/2000/svg">
<path d="M46.692 35.3126C46.4011 35.2301 46.1203 35.1095 45.8496 34.9506C45.5771 34.7772 45.3964 34.6294 45.3076 34.5074C45.2915 34.3763 45.3026 34.2863 45.3409 34.2373C45.3774 34.1737 45.4985 34.1367 45.7041 34.1262C45.9224 34.0994 46.2754 34.0856 46.7629 34.0848C46.9376 34.0634 47.1542 34.022 47.4126 33.9607C47.6711 33.8994 47.9059 33.8263 48.1171 33.7412C48.3429 33.6544 48.465 33.5655 48.4834 33.4746C48.5562 33.4657 48.568 33.4421 48.519 33.4037C48.4682 33.3509 48.4101 33.2989 48.3447 33.2478C48.2865 33.255 48.2183 33.2412 48.1401 33.2064C48.0602 33.1572 47.9911 33.1361 47.9329 33.1432C47.924 33.0704 47.8413 32.9993 47.685 32.9299C47.5415 32.844 47.3934 32.781 47.2407 32.7406C46.8882 32.5179 46.583 32.3189 46.3251 32.1437C46.0654 31.954 45.9602 31.8191 46.0094 31.7392C46.0023 31.6809 45.9987 31.6518 45.9987 31.6518C45.9969 31.6373 45.996 31.63 45.996 31.63C45.8941 31.6425 45.7598 31.5112 45.593 31.2362C45.4408 30.9593 45.3504 30.7044 45.3218 30.4715C45.3004 30.2968 45.3245 30.0722 45.3942 29.7977C45.4622 29.5086 45.5656 29.2077 45.7046 28.8951C45.8435 28.5825 45.996 28.32 46.162 28.1075C46.3936 27.8279 46.689 27.5256 47.0481 27.2008C47.4054 26.8614 47.7599 26.5592 48.1116 26.2944C48.476 26.0132 48.7848 25.8202 49.0379 25.7152C49.2874 25.5811 49.5213 25.5007 49.7397 25.4739C49.9726 25.4453 50.1827 25.4712 50.3699 25.5517C50.5244 25.6066 50.6688 25.6997 50.8031 25.8309C50.9502 25.9459 51.0764 26.0708 51.1816 26.2056C51.2996 26.3241 51.3794 26.4325 51.421 26.5308C51.4425 26.7055 51.4521 26.9038 51.4498 27.1258C51.4457 27.3332 51.4243 27.5205 51.3858 27.6878C51.3618 27.8533 51.2988 27.9423 51.1969 27.9548C51.1969 27.9548 51.176 27.9647 51.1341 27.9847C51.105 27.9882 51.0949 28.0264 51.1038 28.0992C51.1217 28.2448 51.0331 28.4256 50.8379 28.6416C50.5846 28.8649 50.3587 29.0108 50.1602 29.0795C49.96 29.1336 49.8265 29.0688 49.7595 28.8849C49.7087 28.832 49.6734 28.7846 49.6534 28.7428C49.6335 28.7009 49.5944 28.6835 49.5362 28.6907C49.5362 28.6907 49.5117 28.6715 49.4627 28.6332C49.4136 28.5949 49.3829 28.5248 49.3703 28.4229C49.3632 28.3646 49.3788 28.311 49.4171 28.262C49.4536 28.1984 49.4719 28.1666 49.4719 28.1666C49.5446 28.1576 49.6294 28.066 49.7262 27.8915C49.8212 27.7025 49.9008 27.5081 49.9649 27.3081C50.0418 27.0918 50.0758 26.9472 50.0668 26.8744C50.0561 26.7871 50.0353 26.7379 50.0044 26.727C49.988 26.7142 49.9216 26.715 49.8052 26.7293C49.6121 26.8416 49.3789 26.9885 49.1057 27.1698C48.8324 27.3511 48.5737 27.5306 48.3295 27.7084C48.0981 27.8698 47.9313 28.0159 47.8292 28.1466C47.7835 28.2557 47.7551 28.3257 47.7441 28.3566C47.7314 28.3729 47.6959 28.3847 47.6376 28.3918C47.6305 28.3336 47.5831 28.3689 47.4955 28.4979C47.4207 28.6105 47.3221 28.7704 47.1998 28.9775C47.092 29.1829 46.9842 29.3882 46.8764 29.5935C46.7814 29.7825 46.7101 29.9243 46.6626 30.0187C46.6371 30.0514 46.6114 30.1433 46.5856 30.2942C46.5726 30.4288 46.5732 30.5543 46.5875 30.6708C46.5508 30.8526 46.5732 30.9754 46.655 31.0393C46.7349 31.0886 46.9111 31.1999 47.1836 31.3734C47.7396 31.6893 48.1783 31.9531 48.4999 32.1648C48.8214 32.3766 49.0648 32.5536 49.23 32.6958C49.3953 32.8381 49.5005 32.9729 49.5457 33.1004C49.8613 33.5049 49.9825 33.8299 49.9092 34.0753C49.8359 34.3208 49.6135 34.5549 49.2419 34.7779C49.1052 34.8686 48.8722 34.9563 48.5427 35.0411C48.2133 35.1258 47.8739 35.1897 47.5245 35.2326C47.1769 35.29 46.8994 35.3167 46.692 35.3126ZM52.1927 33.7506C52.1202 33.6413 52.0367 33.5629 51.9422 33.5154C51.8459 33.4533 51.7942 33.3932 51.787 33.335C51.7799 33.2767 51.7655 33.2194 51.7437 33.163C51.7348 33.0902 51.6977 33.0282 51.6323 32.9772C51.5488 32.8987 51.5319 32.7013 51.5817 32.3849C51.6297 32.0539 51.7279 31.6503 51.8763 31.174C52.0229 30.6831 52.2033 30.1659 52.4173 29.6225C52.5195 29.4917 52.6171 29.3246 52.7104 29.121C52.8036 28.9175 52.8757 28.783 52.9268 28.7176C52.9197 28.6594 52.9352 28.6058 52.9736 28.5567C53.0101 28.4932 53.0575 28.4578 53.1157 28.4506L53.0996 28.3196C53.0907 28.2468 53.141 28.115 53.2505 27.9243C53.3747 27.7317 53.5261 27.521 53.7049 27.2922C53.8819 27.0488 54.0679 26.8191 54.2631 26.603C54.4564 26.3724 54.6205 26.2045 54.7554 26.0993C55.036 25.8579 55.3338 25.6958 55.6487 25.6128C55.9782 25.528 56.271 25.5659 56.5271 25.7266C56.5762 25.7649 56.6579 25.8287 56.7723 25.9181C56.8867 26.0075 57.0175 26.1097 57.1646 26.2246C57.3245 26.3232 57.4852 26.4291 57.6469 26.5422L58.5433 27.1636L58.2843 28.3036C58.1666 28.9092 58.1782 29.4249 58.3191 29.8509C58.4747 30.2751 58.6667 30.6358 58.8953 30.9328C58.9877 31.084 59.1521 31.219 59.3883 31.3377C59.6391 31.4547 59.8682 31.5152 60.0755 31.5193C60.1938 31.5196 60.3083 31.5498 60.4192 31.6101C60.53 31.6704 60.5953 31.7806 60.6149 31.9407C60.6328 32.0863 60.618 32.2063 60.5705 32.3008C60.523 32.3953 60.4282 32.4661 60.2862 32.513C59.813 32.6303 59.3474 32.5692 58.8895 32.3299C58.4461 32.0888 58.0087 31.6549 57.5771 31.0281C57.5081 30.9479 57.4084 30.7976 57.2779 30.5772C57.1601 30.3405 57.0895 30.1866 57.066 30.1156C57.0168 30.1956 56.9246 30.3473 56.7894 30.5707C56.6525 30.7796 56.5458 30.9331 56.4692 31.0312C55.5643 32.2062 54.7557 33.0222 54.0434 33.4791C53.3439 33.9196 52.727 34.0101 52.1927 33.7506ZM52.8287 32.4313C52.8412 32.5332 52.994 32.5144 53.2872 32.375C53.5932 32.2192 53.9103 31.9734 54.2384 31.6376C54.6816 31.1546 55.1193 30.628 55.5517 30.0577C55.9986 29.4857 56.3482 28.9625 56.6002 28.4883L56.9841 27.6432C56.7974 27.3262 56.6096 27.1202 56.4206 27.0252C56.2444 26.9139 56.0981 26.8654 55.9816 26.8797C55.7923 26.9029 55.5299 27.1124 55.1943 27.5083C54.8733 27.9023 54.5375 28.4164 54.1868 29.0506C53.8361 29.6847 53.5144 30.3744 53.2217 31.1196C53.1119 31.4286 53.0158 31.7286 52.9333 32.0195C52.8635 32.294 52.8287 32.4313 52.8287 32.4313ZM63.1547 32.4933C63.0216 32.6131 62.926 32.6766 62.8678 32.6837C62.8078 32.6763 62.6879 32.6024 62.5081 32.4619C62.1993 32.2338 61.942 31.763 61.7362 31.0494C61.5431 30.3195 61.3644 29.2849 61.1999 27.9456C61.1849 27.3416 61.1514 26.8286 61.0996 26.4064C61.0623 25.9825 61.0401 25.7414 61.0329 25.6831C61.0695 25.6195 61.1532 25.5797 61.2843 25.5636C61.4298 25.5457 61.5571 25.5597 61.6662 25.6054C61.8207 25.6603 61.9287 25.7579 61.9903 25.8981C62.0664 26.0365 62.1349 26.2941 62.196 26.6708C62.2552 27.0329 62.3313 27.5925 62.4243 28.3495C62.4521 28.9371 62.4928 29.4493 62.5464 29.886C62.5983 30.3082 62.6496 30.5457 62.7004 30.5986C62.7712 30.6933 62.8402 30.7144 62.9077 30.6618C62.9879 30.5928 63.1237 30.4358 63.3153 30.1906C63.4121 30.0162 63.5317 29.7872 63.6742 29.5037C63.815 29.2057 63.9265 28.9703 64.0087 28.7977C64.1438 28.5742 64.2652 28.3598 64.373 28.1545C64.4954 27.9474 64.5821 27.8111 64.6331 27.7458C64.6771 27.6221 64.7365 27.504 64.8113 27.3914C64.8861 27.2788 64.9464 27.1679 64.9921 27.0589C65.1183 26.7626 65.258 26.5164 65.4112 26.3203C65.5627 26.1096 65.6675 26.0007 65.7258 25.9935C65.7893 26.0301 65.8421 26.0384 65.884 26.0184C65.9386 25.9822 65.9951 25.9605 66.0533 25.9533C66.1427 25.8389 66.281 25.8219 66.4682 25.9024C66.5318 25.9389 66.589 25.9836 66.6398 26.0365C66.6888 26.0748 66.7169 26.123 66.7241 26.1813C66.733 26.2541 66.6935 26.4141 66.6057 26.6613C66.5324 26.9067 66.4364 27.1475 66.3176 27.3838C66.2116 27.6037 66.1249 27.7399 66.0575 27.7925C66.0575 27.7925 66.0383 27.817 66 27.8661C65.9617 27.9151 65.917 27.9723 65.8659 28.0377C65.8493 28.1432 65.777 28.3368 65.6491 28.6184C65.5193 28.8856 65.3577 29.1936 65.1641 29.5424C64.9705 29.8913 64.7696 30.2411 64.5614 30.5917C64.3533 30.9424 64.1698 31.253 64.0109 31.5237C63.8904 31.7454 63.7453 31.9479 63.5757 32.1313C63.4044 32.3001 63.264 32.4208 63.1547 32.4933ZM69.6914 32.4665C69.0508 32.5451 68.4973 32.3693 68.0307 31.939C67.5623 31.4941 67.2907 30.9068 67.2159 30.1771C67.1807 29.6495 67.2138 29.0765 67.3152 28.4582C67.4293 27.8236 67.6053 27.2109 67.8431 26.6202C68.0791 26.0149 68.3531 25.4788 68.6652 25.012C68.9773 24.5451 69.3192 24.2002 69.6908 23.9773C69.8274 23.8866 69.9731 23.8096 70.1279 23.7463C70.2972 23.6812 70.4692 23.6379 70.6439 23.6164C70.8041 23.5968 70.975 23.6053 71.1569 23.6421C71.3369 23.6643 71.4888 23.6974 71.6124 23.7414C71.8723 23.8129 72.0768 23.9134 72.2257 24.0429C72.3746 24.1723 72.5187 24.3837 72.6582 24.6769C72.7358 24.9481 72.7818 25.1419 72.7961 25.2584C72.8104 25.3749 72.7954 25.554 72.7512 25.7959C72.6409 26.3414 72.4707 26.8204 72.2405 27.2328C72.0104 27.6453 71.6785 28.0111 71.2449 28.3303C71.1374 28.4174 71.0062 28.4926 70.8514 28.556C70.7094 28.603 70.5584 28.6363 70.3982 28.6559C70.1071 28.6917 69.817 28.6756 69.5279 28.6077C69.2515 28.5234 69.0199 28.3819 68.833 28.1832L68.6587 28.0273L68.6146 28.21C68.5173 28.6209 68.4455 28.9992 68.3993 29.3447C68.3676 29.6885 68.3688 29.9986 68.4027 30.2752C68.4242 30.4499 68.4593 30.6155 68.5081 30.7721C68.5714 30.9268 68.6466 31.058 68.7337 31.1655C68.8026 31.2457 68.9053 31.2996 69.0417 31.3272C69.1908 31.3384 69.3455 31.3342 69.5056 31.3146C69.6075 31.302 69.7094 31.2895 69.8113 31.277C69.926 31.2482 70.0316 31.2056 70.1281 31.1495C70.3649 31.0317 70.5498 30.913 70.6828 30.7932C70.8305 30.6716 70.9772 30.5428 71.123 30.4067L71.205 30.3523L71.1832 30.355C71.3471 30.2462 71.4892 30.1401 71.6095 30.0366C71.7444 29.9314 71.8118 29.8788 71.8118 29.8788C71.87 29.8716 71.9238 29.8281 71.9731 29.7482C72.0824 29.6756 72.2307 29.6796 72.4179 29.7601C72.6196 29.8387 72.7303 29.9581 72.75 30.1182C72.7444 30.1928 72.6932 30.3173 72.5964 30.4918C72.4978 30.6516 72.3837 30.806 72.2543 30.9549C72.1393 31.102 72.0391 31.1882 71.9535 31.2135C71.9408 31.2298 71.8934 31.2652 71.8114 31.3196C71.7276 31.3594 71.673 31.3957 71.6474 31.4284L71.6693 31.4257C71.5597 31.6165 71.4394 31.7199 71.3084 31.736L71.1337 31.7574C71.088 31.8665 70.913 32.0062 70.6089 32.1765C70.3029 32.3323 69.9971 32.429 69.6914 32.4665ZM70.0841 27.5419C70.3462 27.5098 70.5629 27.4093 70.7342 27.2405C70.9184 27.0553 71.0716 26.8592 71.194 26.652C71.4369 26.2232 71.5578 25.8242 71.5568 25.4549C71.5685 25.0693 71.4927 24.8126 71.3292 24.6849C71.2365 24.6519 71.1538 24.6399 71.081 24.6489C71.021 24.6415 70.8999 24.6785 70.7178 24.76C70.5904 24.8052 70.4218 24.9367 70.2121 25.1545C70.0025 25.3724 69.7955 25.6121 69.5911 25.8736C69.4014 26.1333 69.2581 26.3504 69.1613 26.5248L68.9337 27.0182C69.0448 26.9602 69.1513 26.925 69.2532 26.9125C69.3679 26.8836 69.4343 26.8829 69.4524 26.9102C69.4685 27.0412 69.5056 27.1623 69.5635 27.2734C69.6343 27.3681 69.7096 27.4401 69.7896 27.4894C69.884 27.5369 69.9822 27.5544 70.0841 27.5419ZM83.5189 30.9239C83.4788 30.9583 83.4205 30.9655 83.3442 30.9453C83.2696 30.9397 83.1842 30.9058 83.0879 30.8438C82.9934 30.7963 82.8898 30.7351 82.7772 30.6603C82.7118 30.6092 82.6674 30.5482 82.6439 30.4772C82.6186 30.3916 82.6153 30.2442 82.6339 30.0351C82.6526 29.8259 82.6779 29.4903 82.7098 29.0283C82.7323 28.73 82.7621 28.4308 82.7991 28.1308C82.8361 27.8307 82.8722 27.5824 82.9071 27.386C82.9404 27.1751 82.957 27.0696 82.957 27.0696C83.0262 27.0316 83.1013 26.8007 83.1822 26.377C83.2778 25.9515 83.3771 25.4369 83.4803 24.8332C83.5135 24.6222 83.5734 24.2676 83.66 23.7693C83.7466 23.2711 83.835 22.7873 83.9251 22.3182C84.0043 21.8799 84.067 21.4881 84.1132 21.1425C84.1577 20.7824 84.1799 20.6024 84.1799 20.6024C84.1799 20.6024 84.0788 20.6813 83.8765 20.8391C83.687 20.9806 83.4446 21.1729 83.1494 21.416C82.8524 21.6446 82.5653 21.8941 82.2882 22.1645C82.0586 22.3405 81.7852 22.5809 81.468 22.8859C81.1653 23.189 80.8928 23.4367 80.6505 23.629C80.295 23.983 80.0762 24.1872 79.9942 24.2416C79.9105 24.2814 79.7986 24.273 79.6586 24.2163C79.4497 24.0794 79.2982 23.9281 79.2039 23.7623C79.1242 23.5948 79.1191 23.4329 79.1886 23.2766C79.2159 23.2584 79.2961 23.1895 79.4292 23.0697C79.5768 22.9482 79.7372 22.8102 79.9104 22.656C80.0835 22.5017 80.243 22.3566 80.3888 22.2204C80.5492 22.0825 80.6631 21.9873 80.7306 21.9347C80.7742 21.9293 80.848 21.8685 80.952 21.7523C81.0559 21.6361 81.1681 21.5263 81.2884 21.4229C81.3504 21.3266 81.581 21.0988 81.9802 20.7395C82.3794 20.3801 82.8105 19.9799 83.2736 19.5389C83.7711 19.1379 84.1893 18.8132 84.5282 18.5647C84.8817 18.3144 85.0884 18.193 85.1484 18.2004C85.1921 18.1951 85.2612 18.2161 85.3557 18.2636C85.4647 18.3094 85.5683 18.3705 85.6663 18.4471C85.7644 18.5238 85.8261 18.6048 85.8514 18.6904C85.9512 18.7816 85.9361 19.0199 85.8061 19.4052C85.764 19.5434 85.6989 19.7952 85.6108 20.1607C85.5208 20.5116 85.4235 20.9225 85.3188 21.3935C85.2269 21.8481 85.1349 22.3026 85.043 22.7572C84.9638 23.1955 84.8993 23.5728 84.8495 23.8893C84.7884 24.3548 84.7221 24.7176 84.6506 24.9776C84.5937 25.2358 84.5358 25.4867 84.4771 25.7304C84.4311 25.9577 84.3813 26.2741 84.3277 26.6797C84.2543 26.9251 84.1818 27.2369 84.11 27.6151C84.051 27.977 83.9993 28.338 83.9549 28.6981C83.9086 29.0437 83.8771 29.3283 83.8602 29.552C83.7831 29.8866 83.7233 30.1821 83.6809 30.4385C83.6385 30.6949 83.5845 30.8567 83.5189 30.9239ZM90.5321 30.2401C90.3538 30.2324 90.1894 30.1565 90.0387 30.0125C89.888 29.8684 89.7565 29.6999 89.6441 29.5068C89.5519 29.2374 89.6094 28.7427 89.8165 28.0227C90.0219 27.2882 90.3148 26.4248 90.6954 25.4323C90.9513 24.8689 91.0666 24.5445 91.0413 24.4589C91.0161 24.3733 90.8724 24.3467 90.6104 24.3788C90.4758 24.3658 90.3194 24.3555 90.1411 24.3478C89.961 24.3256 89.8456 24.288 89.7948 24.2352C89.5476 24.1473 89.3941 24.0405 89.3343 23.9149C89.2873 23.7729 89.3285 23.6866 89.4577 23.6559C89.5123 23.6197 89.5297 23.5806 89.5098 23.5387C89.4881 23.4823 89.4818 23.4313 89.491 23.3858C89.5329 23.3659 89.5839 23.3597 89.6439 23.3671C89.7184 23.3727 89.793 23.3783 89.8676 23.3839C90.0714 23.3589 90.2242 23.3401 90.3262 23.3276C90.4281 23.3151 90.5591 23.299 90.7192 23.2794C90.792 23.2704 90.8793 23.2597 90.9812 23.2472C91.0977 23.2329 91.2005 23.2277 91.2896 23.2315C91.497 23.2356 91.6335 23.2041 91.6991 23.1369C91.763 23.0552 91.8807 22.8708 92.0524 22.5837C92.1438 22.3656 92.2927 22.074 92.4991 21.7088C92.7036 21.329 92.8782 20.9455 93.0228 20.5584C93.6 19.4827 93.9044 18.7729 93.9361 18.4292C93.9823 18.0836 93.7961 17.9513 93.3776 18.0323C93.1464 18.0754 92.8906 18.1586 92.6102 18.2817C92.3444 18.403 91.9474 18.5995 91.4192 18.8712C90.9092 19.1703 90.5486 19.3623 90.3373 19.4473C90.1389 19.516 89.9543 19.5165 89.7834 19.4489C89.6943 19.445 89.6161 19.4103 89.549 19.3447C89.4946 19.2627 89.4538 19.1716 89.4268 19.0715C89.4125 18.9551 89.4063 18.845 89.4084 18.7413C89.4178 18.5776 89.6948 18.3663 90.2393 18.1073C90.7838 17.8483 91.4156 17.5787 92.1348 17.2983C92.4625 17.1989 92.7783 17.1232 93.0822 17.0711C93.3861 17.019 93.65 17.0014 93.8737 17.0183C94.112 17.0333 94.2674 17.0955 94.3399 17.2048C94.3399 17.2048 94.3571 17.2249 94.3916 17.265C94.4389 17.2887 94.4662 17.2706 94.4736 17.2106C94.5336 17.218 94.5844 17.2709 94.6261 17.3692C94.6659 17.453 94.7384 17.5623 94.8436 17.6971C95.0196 17.9267 95.1293 18.098 95.1727 18.2108C95.2307 18.3219 95.2512 18.4894 95.2344 18.7131C95.2104 18.8786 95.1572 19.0476 95.075 19.2203C94.9927 19.3929 94.9252 19.5047 94.8723 19.5555C94.8067 19.6226 94.7565 19.6953 94.7218 19.7734C94.7016 19.8498 94.6915 19.888 94.6915 19.888C94.6841 19.948 94.6476 20.0116 94.5819 20.0788C94.5145 20.1314 94.4498 20.2058 94.3877 20.3021C94.3803 20.3621 94.3519 20.4321 94.3027 20.512C94.2679 20.5902 94.246 20.652 94.2368 20.6974C94.224 20.7138 94.1765 20.8083 94.0942 20.9809C94.012 21.1536 93.9115 21.358 93.7927 21.5942C93.674 21.8305 93.5607 22.0513 93.4529 22.2566C93.3579 22.4456 93.293 22.5791 93.2583 22.6573C93.0777 22.8716 92.9928 23.0224 93.0036 23.1097C93.0143 23.1971 93.1196 23.2728 93.3196 23.3369C93.5796 23.4084 93.7986 23.5071 93.9766 23.633C94.1528 23.7444 94.2825 23.8984 94.3658 24.095C94.4161 24.3844 94.4003 24.5563 94.3183 24.6107C94.258 24.7215 94.1469 24.7795 93.985 24.7846C93.8376 24.7879 93.7385 24.7631 93.6877 24.7103C93.6333 24.6283 93.5216 24.5607 93.3525 24.5076C93.1962 24.4381 93.0426 24.3905 92.8917 24.3647C92.7407 24.3389 92.6434 24.3287 92.5997 24.3341C92.5451 24.3703 92.494 24.4357 92.4465 24.5302C92.3972 24.6101 92.3415 24.6982 92.2795 24.7945C92.1955 24.9526 92.0866 25.2098 91.9531 25.566C91.8323 25.906 91.7042 26.2468 91.5688 26.5885C91.4462 26.9139 91.3502 27.1547 91.2807 27.311C91.2751 27.3856 91.2404 27.4637 91.1765 27.5454C91.1272 27.6254 91.0943 27.7181 91.0777 27.8236C91.032 27.9326 90.9998 28.0917 90.9811 28.3009C90.9607 28.4955 90.9603 28.6729 90.98 28.833C90.9978 28.9786 91.0295 29.0559 91.075 29.0651C91.1878 29.0217 91.2697 29.0265 91.3205 29.0793C91.3841 29.1158 91.4376 29.1905 91.481 29.3034C91.5663 29.3964 91.5597 29.5228 91.4611 29.6827C91.3607 29.828 91.2213 29.956 91.0428 30.0665C90.866 30.1917 90.6958 30.2495 90.5321 30.2401ZM97.815 31.0304C97.5476 31.0189 97.3568 30.9093 97.2427 30.7017C97.1431 30.4923 97.1301 30.2057 97.2036 29.842C97.2772 29.4784 97.44 29.0594 97.6921 28.5851C97.8088 28.4526 97.9127 28.3364 98.0039 28.2365C98.0933 28.1221 98.1463 28.0122 98.1629 27.9067C98.2232 27.7959 98.3592 27.5797 98.5709 27.2581C98.7809 26.9221 99.03 26.5442 99.3183 26.1246C99.6067 25.705 99.8886 25.2936 100.164 24.8903C100.454 24.4853 100.7 24.1374 100.901 23.8468C101.101 23.5562 101.206 23.3881 101.215 23.3427C101.275 23.3501 101.337 23.3129 101.401 23.2312C101.463 23.1349 101.503 23.034 101.519 22.9286C101.549 22.8067 101.609 22.6959 101.7 22.596C101.789 22.4816 101.884 22.4109 101.984 22.3838C102.005 22.3075 102.034 22.2448 102.072 22.1957C102.11 22.1467 102.133 22.0922 102.141 22.0322C102.148 21.9721 102.171 21.9176 102.209 21.8686C102.262 21.8178 102.292 21.7623 102.3 21.7023C102.416 21.5698 102.616 21.331 102.899 20.986C103.18 20.6264 103.505 20.2096 103.876 19.7356C104.246 19.2616 104.628 18.764 105.022 18.2427C105.416 17.7215 105.785 17.2329 106.128 16.7771C106.471 16.3212 106.749 15.9398 106.963 15.6328C107.176 15.3258 107.295 15.1487 107.319 15.1015C107.397 14.8997 107.529 14.8318 107.715 14.8977C107.809 14.8269 107.926 14.8126 108.064 14.8548C108.064 14.8548 108.076 14.8903 108.099 14.9613C108.136 15.0159 108.192 15.1125 108.268 15.2509C108.359 15.3875 108.404 15.515 108.403 15.6332C108.401 15.7369 108.366 15.8669 108.296 16.0232C108.243 16.1923 108.173 16.3413 108.085 16.4702C108.012 16.5974 107.878 16.769 107.683 16.9851C107.502 17.1994 107.218 17.5298 106.829 17.9765C106.742 18.1055 106.563 18.3343 106.293 18.663C106.036 18.9753 105.76 19.3195 105.467 19.6954C105.171 20.0568 104.915 20.3764 104.698 20.6542C104.479 20.9175 104.364 21.0647 104.353 21.0956C104.297 21.1173 104.228 21.1626 104.148 21.2315C104.082 21.2987 104.023 21.4168 103.97 21.5859C103.868 21.7167 103.701 21.9219 103.469 22.2015C103.252 22.4794 103.048 22.7409 102.856 22.9861C102.677 23.2149 102.583 23.352 102.574 23.3975C102.551 23.4447 102.511 23.4865 102.457 23.5228C102.402 23.559 102.333 23.5971 102.249 23.6369C102.233 23.6241 102.213 23.6414 102.189 23.6886C102.18 23.7341 102.175 23.7568 102.175 23.7568C102.182 23.815 102.131 23.9395 102.021 24.1303C101.925 24.3047 101.765 24.5091 101.543 24.7432C101.331 25.0648 101.052 25.498 100.705 26.043C100.371 26.5717 100.026 27.1312 99.6696 27.7217C99.3263 28.2958 99.0205 28.8136 98.7521 29.2751C98.4854 29.7511 98.3192 30.0819 98.2533 30.2673C98.1708 30.5582 98.0985 30.7518 98.0364 30.848C97.9889 30.9425 97.9151 31.0033 97.815 31.0304ZM105.139 27.3161C105.365 26.9928 105.541 26.683 105.668 26.3868C105.794 26.0905 105.905 25.7297 106 25.3042C106.035 25.1078 106.034 24.8567 105.996 24.551C105.959 24.2453 105.901 24.0751 105.823 24.0404C105.668 23.9855 105.491 23.9851 105.291 24.0392C105.103 24.077 104.92 24.2103 104.741 24.4391C104.411 24.7604 104.143 25.1628 103.936 25.6462C103.743 26.1133 103.555 26.6314 103.374 27.2004C103.262 27.6131 103.265 27.9378 103.382 28.1746C103.513 28.395 103.734 28.4492 104.045 28.337C104.358 28.2395 104.723 27.8992 105.139 27.3161ZM103.723 29.507C103.578 29.5249 103.45 29.5109 103.341 29.4652C103.247 29.4177 103.135 29.3502 103.006 29.2626C102.745 29.0582 102.557 28.8523 102.443 28.6446C102.329 28.437 102.282 28.2359 102.302 28.0413C102.319 27.9358 102.315 27.8475 102.292 27.7765C102.281 27.6892 102.276 27.6455 102.276 27.6455C102.209 27.5799 102.189 27.538 102.216 27.5199C102.243 27.5017 102.262 27.4699 102.271 27.4245C102.344 27.4156 102.357 27.3474 102.312 27.2199C102.287 27.1344 102.313 26.9243 102.39 26.5897C102.467 26.2552 102.576 25.9389 102.717 25.6408C102.775 25.5154 102.858 25.3501 102.966 25.1448C103.074 24.9394 103.196 24.7323 103.333 24.5234C103.485 24.3127 103.626 24.1402 103.757 24.0059C104.018 23.7226 104.25 23.5094 104.454 23.3661C104.659 23.2228 104.888 23.106 105.143 23.0156C105.396 22.9106 105.574 22.8592 105.678 22.8612C105.78 22.8487 105.93 22.9264 106.128 23.0942C106.402 23.1639 106.609 23.2789 106.746 23.4393C106.897 23.5834 107.007 23.8137 107.075 24.1304C107.147 24.4762 107.167 24.8801 107.135 25.3421C107.116 25.7878 106.915 26.374 106.531 27.1009C106.29 27.5442 106.058 27.883 105.836 28.1172C105.613 28.3514 105.347 28.5909 105.037 28.8358C104.81 29.0264 104.598 29.1705 104.403 29.2683C104.21 29.3807 103.984 29.4603 103.723 29.507ZM101.114 19.6313C101.341 19.308 101.517 18.9982 101.643 18.702C101.769 18.4057 101.88 18.0449 101.976 17.6194C102.011 17.423 102.009 17.1719 101.972 16.8662C101.934 16.5605 101.876 16.3903 101.798 16.3556C101.644 16.3007 101.466 16.3003 101.266 16.3544C101.079 16.3922 100.896 16.5255 100.717 16.7543C100.387 17.0756 100.119 17.478 99.9119 17.9614C99.7181 18.4285 99.5305 18.9466 99.3491 19.5156C99.2373 19.9283 99.2402 20.253 99.3579 20.4898C99.4884 20.7102 99.7102 20.7716 100.023 20.6741C100.335 20.562 100.698 20.2144 101.114 19.6313ZM99.6743 21.803C99.5288 21.8209 99.4014 21.807 99.2924 21.7612C99.1979 21.7137 99.0862 21.6462 98.9572 21.5586C98.6957 21.3543 98.5078 21.1483 98.3937 20.9407C98.2795 20.733 98.2327 20.5319 98.2531 20.3373C98.2697 20.2318 98.2663 20.1436 98.2428 20.0726C98.232 19.9852 98.2267 19.9416 98.2267 19.9416C98.1595 19.8759 98.1396 19.834 98.1669 19.8159C98.1942 19.7978 98.2125 19.766 98.2217 19.7205C98.2945 19.7116 98.3083 19.6434 98.2631 19.516C98.2378 19.4304 98.2637 19.2203 98.3409 18.8858C98.418 18.5512 98.5269 18.2349 98.6677 17.9369C98.7261 17.8115 98.8093 17.6461 98.9171 17.4408C99.0248 17.2355 99.1472 17.0283 99.2841 16.8194C99.4355 16.6087 99.5769 16.4362 99.7082 16.3019C99.9689 16.0187 100.201 15.8054 100.405 15.6621C100.609 15.5189 100.839 15.402 101.094 15.3116C101.347 15.2067 101.525 15.1552 101.629 15.1573C101.731 15.1448 101.881 15.2224 102.079 15.3902C102.353 15.4599 102.559 15.575 102.697 15.7354C102.848 15.8794 102.958 16.1098 103.026 16.4265C103.098 16.7723 103.118 17.1762 103.086 17.6382C103.067 18.0838 102.866 18.6701 102.482 19.3969C102.241 19.8403 102.009 20.179 101.787 20.4132C101.564 20.6474 101.298 20.887 100.988 21.1319C100.761 21.3224 100.55 21.4738 100.357 21.5862C100.162 21.684 99.9346 21.7563 99.6743 21.803Z" fill="#1CDD90"/>
<path d="M38.1855 36.3457C32.1855 42.8457 21.6855 42.3457 4.93604 41.5341" stroke="#1CDD90" stroke-linecap="round"/>
<path d="M13.8587 37.5757L3.73096 41.6624L13.8587 45.3937" stroke="#1CDD90" stroke-linecap="round" stroke-linejoin="round"/>
<path d="M101.518 8.35707C85.4698 1.81822 56.7644 6.78241 42.8412 15.9381C36.5002 20.1078 25.2397 31.3165 33.9372 39.5257C35.4712 40.9737 37.256 42.0838 39.0755 43.0107C59.0992 53.2109 84.7354 48.774 103.666 38.8752C106.489 37.3989 109.239 35.7201 111.699 33.5955C113.538 32.0065 115.271 30.1041 116.593 27.97C120.464 21.7224 118.568 16.1461 113.06 11.9287C106.675 7.03883 98.6686 6.26356 91.1985 6.21783C84.6664 6.17786 78.2245 6.80714 71.8054 7.93896C59.7667 10.0615 45.9272 12.7862 36.7032 21.6759C32.6745 25.5588 28.7815 33.2769 33.295 38.5826C38.186 44.3318 48.1559 45.1637 54.8566 45.6809C72.9329 47.0762 100.626 41.8835 115.546 30.5658C117.154 29.3453 118.794 28.1907 120.182 26.6752C121.278 25.4777 122.304 24.1397 123.162 22.7227C129.247 12.6803 112.454 8.89777 106.659 8.60555C88.431 7.68629 61.4661 6.44069 46.0463 16.7333" stroke="#1CDD90" stroke-miterlimit="1.5" stroke-linecap="round" stroke-linejoin="round"/>
</svg>
