<svg width="20" height="20" viewBox="0 0 20 20" fill="none" xmlns="http://www.w3.org/2000/svg">
<g clip-path="url(#clip0_1444_27936)">
<path d="M0 2.66832C0 2.02481 0.225232 1.49392 0.675676 1.07566C1.12612 0.657373 1.71172 0.448242 2.43243 0.448242C3.14029 0.448242 3.71299 0.65415 4.15058 1.066C4.60102 1.49071 4.82626 2.04411 4.82626 2.72623C4.82626 3.344 4.60747 3.85878 4.16988 4.27064C3.71944 4.69535 3.12741 4.9077 2.39382 4.9077H2.37452C1.66666 4.9077 1.09396 4.69535 0.656371 4.27064C0.218784 3.84593 0 3.31181 0 2.66832ZM0.250965 19.5602V6.66446H4.53668V19.5602H0.250965ZM6.9112 19.5602H11.1969V12.3594C11.1969 11.909 11.2484 11.5615 11.3514 11.317C11.5315 10.8794 11.805 10.5094 12.1718 10.2069C12.5386 9.90448 12.9987 9.75326 13.5521 9.75326C14.9936 9.75326 15.7143 10.7249 15.7143 12.6683V19.5602H20V12.1664C20 10.2616 19.5496 8.81697 18.6486 7.83241C17.7477 6.84786 16.5573 6.35558 15.0772 6.35558C13.417 6.35558 12.1236 7.06986 11.1969 8.49844V8.53705H11.1776L11.1969 8.49844V6.66446H6.9112C6.93693 7.07629 6.94981 8.35685 6.94981 10.5062C6.94981 12.6554 6.93693 15.6735 6.9112 19.5602Z" fill="#0A66C2"/>
</g>
<defs>
<clipPath id="clip0_1444_27936">
<rect width="20" height="20" fill="white"/>
</clipPath>
</defs>
</svg>
