<svg width="20" height="20" viewBox="0 0 20 20" fill="none" xmlns="http://www.w3.org/2000/svg">
<path fill-rule="evenodd" clip-rule="evenodd" d="M14.264 7.22695C15.6028 8.17866 17.206 8.68714 18.8485 8.68097V5.4257C18.5256 5.4266 18.2036 5.39203 17.8882 5.32262V7.91598C16.242 7.9189 14.6364 7.40459 13.2983 6.44569V13.1407C13.2942 14.2393 12.993 15.3163 12.4264 16.2575C11.8599 17.1988 11.0492 17.9692 10.0803 18.487C9.11136 19.0048 8.02038 19.2508 6.92301 19.1988C5.82564 19.1468 4.7628 18.7989 3.84717 18.1918C4.6941 19.0487 5.77627 19.635 6.95665 19.8765C8.13703 20.118 9.36252 20.0038 10.4779 19.5483C11.5934 19.0928 12.5485 18.3166 13.2225 17.3179C13.8965 16.3193 14.259 15.143 14.264 13.9382V7.22695ZM15.4522 3.90658C14.7714 3.16867 14.3537 2.22638 14.264 1.22641V0.803223H13.3526C13.4652 1.43886 13.7104 2.04366 14.0721 2.57833C14.4339 3.11299 14.9041 3.56555 15.4522 3.90658V3.90658ZM5.95767 15.6147C5.64175 15.2016 5.44815 14.7081 5.3989 14.1904C5.34965 13.6726 5.44672 13.1515 5.67907 12.6862C5.91143 12.2209 6.26972 11.8302 6.71319 11.5586C7.15666 11.2869 7.66748 11.1452 8.18753 11.1496C8.47464 11.1495 8.76008 11.1934 9.0339 11.2798V7.91598C8.71381 7.87359 8.39098 7.85546 8.06817 7.86173V10.4768C7.40144 10.266 6.67982 10.314 6.04682 10.611C5.41383 10.9081 4.91584 11.4326 4.65191 12.0801C4.38798 12.7276 4.37745 13.4507 4.62241 14.1057C4.86736 14.7606 5.34987 15.2993 5.97394 15.6147H5.95767Z" fill="#E9435A"/>
<path fill-rule="evenodd" clip-rule="evenodd" d="M13.2981 6.42399C14.6362 7.38289 16.2418 7.8972 17.888 7.89428V5.30092C16.9501 5.1026 16.098 4.6149 15.452 3.90658C14.9039 3.56555 14.4337 3.11299 14.0719 2.57833C13.7102 2.04366 13.465 1.43886 13.3524 0.803223H10.9543V13.9382C10.9521 14.5196 10.7678 15.0857 10.4274 15.5571C10.087 16.0284 9.60758 16.3813 9.05638 16.5662C8.50517 16.7512 7.90988 16.7589 7.35409 16.5882C6.7983 16.4175 6.30991 16.0771 5.95747 15.6147C5.39894 15.3329 4.95164 14.8711 4.68775 14.3039C4.42385 13.7367 4.35875 13.0971 4.50294 12.4883C4.64714 11.8796 4.99222 11.3371 5.48252 10.9486C5.97281 10.56 6.57972 10.3479 7.20533 10.3466C7.49237 10.3475 7.77765 10.3914 8.0517 10.4768V7.86173C6.86764 7.89015 5.71765 8.26368 4.74289 8.93646C3.76813 9.60924 3.01102 10.552 2.5645 11.649C2.11798 12.746 2.00148 13.9495 2.2293 15.1118C2.45712 16.2741 3.01935 17.3445 3.84698 18.1918C4.76279 18.8032 5.82731 19.1548 6.92715 19.209C8.02698 19.2633 9.12093 19.0182 10.0925 18.4998C11.064 17.9815 11.8768 17.2093 12.4441 16.2656C13.0115 15.3218 13.3123 14.2419 13.3144 13.1407L13.2981 6.42399Z" fill="white"/>
<path fill-rule="evenodd" clip-rule="evenodd" d="M17.8883 5.30066V4.60078C17.027 4.60444 16.1822 4.36363 15.4523 3.90632C16.0967 4.61669 16.9494 5.10479 17.8883 5.30066V5.30066ZM13.3526 0.802966C13.3526 0.678181 13.3147 0.54797 13.2984 0.423185V0H9.98887V13.1404C9.986 13.8762 9.69132 14.5808 9.16952 15.0996C8.64771 15.6183 7.94141 15.9089 7.20562 15.9074C6.77237 15.9096 6.34477 15.8092 5.95776 15.6144C6.3102 16.0768 6.79859 16.4173 7.35438 16.5879C7.91017 16.7586 8.50546 16.7509 9.05666 16.566C9.60787 16.3811 10.0873 16.0282 10.4277 15.5568C10.7681 15.0855 10.9524 14.5194 10.9546 13.938V0.802966H13.3526ZM8.05199 7.85605V7.11276C6.69014 6.92776 5.30578 7.20946 4.12453 7.91196C2.94328 8.61446 2.03479 9.69633 1.54712 10.9813C1.05945 12.2662 1.02136 13.6784 1.43906 14.9877C1.85675 16.2971 2.7056 17.4264 3.84726 18.1915C3.02591 17.3423 2.46966 16.2723 2.24649 15.1121C2.02332 13.9519 2.14288 12.7519 2.59057 11.6586C3.03826 10.5652 3.79469 9.62598 4.76745 8.95552C5.74021 8.28506 6.88719 7.91244 8.06826 7.88317L8.05199 7.85605Z" fill="#74F0EC"/>
</svg>
