<svg width="20" height="20" viewBox="0 0 20 20" fill="none" xmlns="http://www.w3.org/2000/svg">
<path d="M19.582 5.17172C19.352 4.30856 18.6744 3.62885 17.8139 3.39817C16.2542 2.97893 10 2.97893 10 2.97893C10 2.97893 3.74583 2.97893 2.18612 3.39817C1.32564 3.62885 0.647904 4.30856 0.417924 5.17172C0 6.73614 0 10.0002 0 10.0002C0 10.0002 0 13.2642 0.417924 14.8288C0.647904 15.6919 1.32564 16.3716 2.18612 16.6023C3.74583 17.0215 10 17.0215 10 17.0215C10 17.0215 16.2542 17.0215 17.8139 16.6023C18.6744 16.3716 19.352 15.6919 19.582 14.8288C20 13.2642 20 10.0002 20 10.0002C20 10.0002 20 6.73614 19.582 5.17172Z" fill="#ED1D24"/>
<path d="M7.95459 12.9639L13.1819 10.0005L7.95459 7.03683V12.9639Z" fill="white"/>
</svg>
