<svg width="20" height="20" viewBox="0 0 20 20" fill="none" xmlns="http://www.w3.org/2000/svg">
<path d="M7.67256 12.1249L12.1292 4.09244C12.1905 3.98181 12.2518 3.87265 12.3072 3.75839C12.3576 3.65504 12.3999 3.55097 12.4276 3.43817C12.4859 3.20091 12.4699 2.95347 12.3794 2.72714C12.2911 2.50445 12.1323 2.31664 11.9272 2.19222C11.7256 2.07025 11.4884 2.02069 11.2547 2.05176C11.0213 2.08306 10.8076 2.19295 10.6391 2.36471C10.5588 2.44476 10.4932 2.53573 10.4326 2.63253C10.3655 2.73878 10.305 2.8494 10.2437 2.96002L9.96217 3.46728L9.67989 2.95929C9.61862 2.8494 9.55808 2.73878 9.49098 2.63253C9.43202 2.53588 9.36281 2.44585 9.28455 2.36398C9.12017 2.19406 8.90339 2.08412 8.66893 2.05176C8.43551 2.02092 8.19852 2.07047 7.99715 2.19222C7.79208 2.31668 7.6333 2.50448 7.54491 2.72714C7.4541 2.95315 7.43725 3.20202 7.49677 3.43817C7.52449 3.55097 7.5668 3.65504 7.6164 3.75839C7.67183 3.87265 7.7331 3.98181 7.79437 4.09244L8.70467 5.73283L5.15829 12.1241H2.72717C2.60536 12.1241 2.48282 12.1241 2.361 12.1314C2.25013 12.138 2.14218 12.1518 2.03423 12.1831C1.80811 12.2486 1.60971 12.3868 1.46675 12.5819C1.32393 12.7782 1.24696 13.0146 1.24683 13.2571C1.2467 13.4997 1.32341 13.7362 1.46602 13.9326C1.60971 14.1277 1.80738 14.2652 2.03423 14.3315C2.14218 14.3627 2.25013 14.3766 2.361 14.3831C2.48282 14.3904 2.60536 14.3904 2.7279 14.3904H12.281C12.3101 14.3268 12.3345 14.2611 12.3539 14.1939C12.6566 13.1634 11.9046 12.1241 10.8696 12.1241L7.67256 12.1249ZM3.51785 14.7608L2.94016 15.8525C2.88034 15.966 2.8198 16.0781 2.76583 16.1953C2.71583 16.3007 2.67673 16.4109 2.64912 16.5242C2.59059 16.7667 2.60686 17.0211 2.6958 17.2542C2.78406 17.4856 2.93943 17.6785 3.13855 17.8037C3.33695 17.9288 3.56818 17.9798 3.79575 17.947C4.02479 17.915 4.2334 17.8029 4.39824 17.6268C4.47702 17.5431 4.54121 17.4507 4.60102 17.3517C4.66667 17.2425 4.72575 17.129 4.78556 17.0155L5.62365 15.4318C5.558 15.3227 4.9329 14.362 3.51785 14.7608ZM18.5335 12.5732C18.3927 12.3832 18.1929 12.245 17.9652 12.1802C17.8586 12.1508 17.749 12.1335 17.6385 12.1285C17.5159 12.1212 17.3941 12.1212 17.2716 12.1212H14.8492L11.6471 6.43368C11.227 6.87377 10.9529 7.43231 10.8623 8.03332C10.745 8.78507 10.8853 9.55431 11.2605 10.2166L15.1074 17.0526C15.1687 17.1618 15.2292 17.2709 15.2963 17.3757C15.3576 17.4703 15.4233 17.5598 15.5028 17.6406C15.6713 17.8095 15.885 17.9172 16.1191 17.9485C16.3525 17.979 16.5881 17.931 16.7916 17.8102C16.9963 17.688 17.1554 17.5025 17.2446 17.2818C17.3358 17.0584 17.3511 16.8146 17.2927 16.5803C17.264 16.471 17.2237 16.3651 17.1724 16.2644C17.1177 16.1516 17.0557 16.0439 16.9944 15.9347L16.1074 14.3584H17.2716C17.3941 14.3584 17.5159 14.3584 17.6385 14.3518C17.7493 14.3453 17.8573 14.3315 17.9652 14.3009C18.1933 14.236 18.3934 14.0976 18.5342 13.9072C18.6768 13.7141 18.7535 13.4804 18.753 13.2405C18.7535 13.0007 18.6768 12.767 18.5342 12.5739L18.5335 12.5732Z" fill="#878787"/>
</svg>
