<svg width="77" height="77" viewBox="0 0 77 77" fill="none" xmlns="http://www.w3.org/2000/svg">
<path fill-rule="evenodd" clip-rule="evenodd" d="M25.5931 12.3143V12.3143C25.4495 10.501 25.2818 8.3853 23.989 6.67786L28.2604 6.5C30.8436 7.4326 32.4436 8.63414 34.4017 10.1046L34.4019 10.1047L34.4024 10.1051C34.6961 10.3257 34.9978 10.5522 35.312 10.7848C31.7862 9.89012 28.4453 11.1405 25.6594 13.1024C25.6354 12.848 25.6146 12.5846 25.5932 12.3145L25.5932 12.3144L25.5931 12.3143ZM54.0567 38.0837C54.0567 50.9327 47.745 62.1702 37.913 69.4893H68.576C69.6806 69.4893 70.576 68.5939 70.576 67.4893V8.67798C70.576 7.57341 69.6806 6.67798 68.576 6.67798H37.913C47.745 13.8193 54.0567 25.2401 54.0567 38.0837ZM5.43493 18.8154L5.45165 18.8199C6.7465 19.1741 8.03583 19.5268 9.33072 19.5268C12.1166 18.4542 12.8566 16.3145 11.7411 13.458C10.0706 11.1404 7.84527 9.89002 5.42932 9.35645V18.8154H5.43493ZM10.6256 28.447H11.9261L13.036 27.3745C12.481 26.4852 10.4406 27.7356 10.6256 28.447ZM12.1111 28.8081C10.4406 28.986 8.9608 28.6249 7.84531 27.9134C9.4701 28.3257 10.7794 27.3348 12.1184 26.3215C13.685 25.1359 15.2921 23.9196 17.4923 24.8844C19.5327 25.9516 21.7637 26.8463 24.359 27.0241L25.2895 28.8081C23.4341 26.4906 19.9083 26.8463 17.1224 27.202C16.2878 27.202 15.4532 27.708 14.6692 28.1833C13.7101 28.7647 12.8266 29.3004 12.1111 28.8081ZM12.4866 47.3637C9.5213 43.0789 8.5908 37.9048 8.5908 32.375C11.7411 34.159 16.1974 35.0483 20.2782 33.6254C16.3824 35.7651 12.4866 38.9774 12.4866 43.6179V47.3637ZM25.2895 68.0622C24.9195 68.5958 24.359 69.1348 23.989 69.4905L13.9665 69.3126C17.4924 65.2437 17.2456 59.8095 16.995 54.2929C16.7838 49.6451 16.57 44.9388 18.6078 40.9413C18.7152 40.7866 18.8197 40.6356 18.922 40.4878C20.2346 38.5913 21.1846 37.2186 23.2491 35.2336L23.4341 35.4115C21.0181 38.2626 18.9777 40.9413 18.6078 44.5093C18.4547 48.2008 20.8438 51.2812 23.1711 54.282C26.4674 58.532 29.6397 62.6221 25.2895 68.0622ZM7.42083 69.4876C6.3218 69.4876 5.42869 68.6008 5.42088 67.5018L5.25 43.4338C6.26065 44.8597 7.38755 46.256 8.50962 47.6463C13.5674 53.9134 18.5272 60.059 12.3017 68.2372L11.0012 69.4876H7.42083ZM20.8388 6.67798H6.5075C5.91516 6.67798 5.43496 7.15817 5.43496 7.75052C6.92041 7.92838 8.59084 8.46195 9.8913 9.00092C13.0472 10.7849 15.4575 13.6414 15.0876 17.2094L21.9543 16.498C22.8848 14.3583 23.2547 10.9682 22.3242 9.18419C21.9487 8.10625 21.3937 7.21695 20.8388 6.67798ZM37.7224 38.6238L37.1675 40.052L36.4276 38.268C34.7571 38.6238 33.0867 39.1627 32.1618 40.9467C32.0925 41.1465 32.1011 41.3969 32.1097 41.6507C32.1242 42.0747 32.139 42.5082 31.7918 42.7307C30.9479 42.5961 31.0633 41.5422 31.1695 40.5725C31.2037 40.2606 31.2369 39.9574 31.2369 39.6963C32.5374 38.4459 36.0632 35.7726 37.3637 36.8398C37.7224 37.0176 37.9074 37.9069 37.7224 38.6238ZM30.3008 51.4674C29.5706 50.9091 29.6447 50.0189 29.7104 49.2291C29.7284 49.0125 29.7458 48.8034 29.7458 48.6108L30.3008 48.0773C30.871 49.8278 31.997 49.2324 33.2104 48.5909C33.9771 48.1855 34.7787 47.7617 35.497 47.8994C35.9338 47.7324 36.0828 47.3684 36.2142 47.0474C36.3627 46.6846 36.4887 46.3768 36.9825 46.4711C38.0205 49.5896 35.6124 50.092 33.182 50.5991C32.1343 50.8177 31.0825 51.0372 30.3008 51.4674ZM43.6642 52.0063C44.4041 46.1154 43.8492 39.8742 39.3985 35.7672C39.0898 35.7082 38.741 35.7275 38.3854 35.7472C37.6693 35.7868 36.9258 35.8279 36.4276 35.2336C35.5031 36.0419 34.4636 36.63 33.4305 37.2145L33.4305 37.2145C32.1834 37.9201 30.9456 38.6204 29.9308 39.6963C28.5687 40.0525 27.2066 39.6161 25.8429 39.1791C25.1637 38.9615 24.4842 38.7438 23.8041 38.6238V37.9123C21.7745 39.212 21.6191 41.4585 21.4698 43.6182C21.4142 44.423 21.3594 45.2157 21.2087 45.9429C21.7443 48.1395 23.7399 49.4013 25.6473 50.6073C26.3748 51.0673 27.0895 51.5192 27.7055 52.0117C30.8002 52.4801 33.6098 51.437 36.2596 50.4533C36.6287 50.3163 36.9948 50.1804 37.3581 50.0499C37.472 50.1595 37.594 50.2618 37.7128 50.3613C38.1722 50.7466 38.5826 51.0907 38.2886 51.656C35.8782 54.8683 32.3524 56.2965 28.266 55.9408C30.6764 60.4035 29.0059 65.5776 26.4106 69.5012H28.8209C36.237 66.2782 43.1037 61.282 43.6642 52.0063ZM32.3411 12.5693C40.6933 12.0357 47.005 21.1335 49.0454 27.9137C50.9008 34.694 51.6407 51.4666 42.9243 58.7912C46.0801 51.6499 47.3806 40.5903 41.0688 34.3436C40.5644 33.718 40.51 32.8756 40.4559 32.0382C40.3711 30.7259 40.2871 29.426 38.4735 28.9917C38.2812 29.2211 38.1016 29.5576 37.9123 29.9125C37.3675 30.9333 36.7422 32.1051 35.5026 31.3092C34.4505 30.6371 33.2517 30.3156 32.0447 29.9919C31.3354 29.8017 30.6232 29.6107 29.9364 29.3474C30.6869 29.1674 31.6485 29.2511 32.6504 29.3382C34.6192 29.5095 36.7435 29.6944 37.728 27.9191C37.543 27.2077 37.173 26.1351 36.2425 25.9573C34.9887 26.4381 34.7537 25.9441 34.4459 25.2971C34.2983 24.9868 34.1339 24.6412 33.8322 24.3511C33.456 24.2603 33.0589 24.1796 32.6533 24.0973C30.6537 23.6913 28.4478 23.2435 27.5204 21.3168C28.5682 20.8111 29.3371 21.7268 30.0907 22.6242C30.4055 22.999 30.7176 23.3707 31.0463 23.6343C31.6609 23.398 31.622 22.9236 31.5811 22.4232C31.5604 22.1705 31.5392 21.9112 31.6012 21.6725C29.5608 19.8885 27.1449 18.1045 24.9195 16.8541C26.0294 15.0647 29.1853 12.7472 32.3411 12.5693Z" fill="#C0A971"/>
</svg>
