<svg width="77" height="77" viewBox="0 0 77 77" fill="none" xmlns="http://www.w3.org/2000/svg">
<path d="M36.7632 52.5692C35.7638 52.1761 35.0823 51.5645 35.0823 50.822C35.0823 50.1231 35.7638 49.4678 36.7178 49.0747C36.9904 48.9874 37.2629 48.9 37.5809 48.8126C37.6718 48.8126 37.7172 48.769 37.8081 48.769C38.1385 48.7162 38.4726 48.687 38.8075 48.6816C39.1425 48.687 39.4765 48.7162 39.807 48.769C39.8978 48.769 39.9433 48.8126 40.0341 48.8126C41.4879 49.1184 42.5327 49.9047 42.5327 50.7783C42.5327 51.6956 41.4424 52.4818 39.9887 52.7439C39.8978 52.7439 39.8524 52.7876 39.7615 52.7876C39.4461 52.8383 39.1273 52.8675 38.8075 52.8749C38.4878 52.8675 38.169 52.8383 37.8535 52.7876C37.7626 52.7876 37.7172 52.7439 37.6264 52.7439C37.3305 52.7323 37.0388 52.6733 36.7632 52.5692ZM35.264 42.1732C35.9936 43.9042 36.4528 45.7294 36.6269 47.5896C37.3319 47.3751 38.0683 47.2719 38.8075 47.2838C39.5452 47.2935 40.2783 47.3963 40.9882 47.5896C41.1404 45.726 41.6004 43.8976 42.351 42.1732C41.1983 42.4885 40.006 42.6502 38.8075 42.6537C37.6093 42.6472 36.4174 42.4855 35.264 42.1732V42.1732ZM38.8075 41.2122C44.5316 41.2122 49.7106 36.9752 53.2541 30.2483H53.345C53.4813 29.9863 53.6175 29.6805 53.7538 29.4184H23.8612C23.9975 29.6805 24.1338 29.9863 24.2701 30.2483H24.361C27.9045 36.9315 33.0834 41.2122 38.8075 41.2122V41.2122ZM57.9788 13.0818C58.0696 11.9024 58.1151 10.7231 58.1605 9.5H19.5454C19.5454 10.7231 19.6363 11.9024 19.7272 13.0818H57.9788ZM47.2574 19.0661C46.6188 19.0661 46.0064 19.31 45.5549 19.7442C45.1033 20.1783 44.8497 20.7672 44.8497 21.3812C44.8497 21.9952 45.1033 22.584 45.5549 23.0182C46.0064 23.4523 46.6188 23.6962 47.2574 23.6962C47.896 23.6962 48.5084 23.4523 48.96 23.0182C49.4115 22.584 49.6652 21.9952 49.6652 21.3812C49.6652 20.7672 49.4115 20.1783 48.96 19.7442C48.5084 19.31 47.896 19.0661 47.2574 19.0661ZM24.3155 21.3812C24.3114 20.7684 24.0563 20.1819 23.6057 19.7486C23.1551 19.3153 22.5451 19.0701 21.9078 19.0661C21.755 19.061 21.6022 19.0757 21.4535 19.1098C21.4288 19.1068 21.4038 19.1092 21.3802 19.1168C21.3566 19.1243 21.3351 19.1369 21.3172 19.1534C21.2263 19.1971 21.1355 19.1971 21.0446 19.2408C20.9992 19.2408 20.9538 19.2845 20.9083 19.2845C20.8076 19.3271 20.7154 19.3862 20.6357 19.4592C20.5903 19.4592 20.5903 19.5029 20.5449 19.5029C20.2236 19.7195 19.961 20.0072 19.7792 20.3416C19.5973 20.676 19.5016 21.0475 19.5 21.4248C19.4984 21.9909 19.7162 22.5373 20.111 22.9573C20.5058 23.3773 21.0493 23.6407 21.6352 23.6962C21.7261 23.6962 21.8169 23.7399 21.9078 23.7399C22.5497 23.726 23.1605 23.4717 23.6103 23.0311C24.06 22.5905 24.3131 21.9985 24.3155 21.3812ZM40.8973 54.0543C40.2185 54.2477 39.5154 54.3506 38.8075 54.3601C38.098 54.3722 37.3915 54.2688 36.7178 54.0543C36.3089 57.5925 33.3106 60.8248 27.5864 63.8388H50.0286C44.3045 60.8685 41.3062 57.6361 40.8973 54.0543ZM53.5267 65.3239H24.1338C23.8447 65.3239 23.5673 65.4344 23.3629 65.631C23.1584 65.8276 23.0435 66.0942 23.0435 66.3723C23.0435 66.6503 23.1584 66.917 23.3629 67.1136C23.5673 67.3102 23.8447 67.4206 24.1338 67.4206H53.5267C53.8142 67.4122 54.0887 67.3035 54.299 67.1148C54.5028 66.9174 54.6171 66.6505 54.617 66.3723C54.6082 66.0959 54.4952 65.8319 54.299 65.6297C54.1984 65.5313 54.0781 65.4535 53.9453 65.4009C53.8126 65.3484 53.6702 65.3222 53.5267 65.3239ZM38.8075 19.0661C38.169 19.0661 37.5565 19.31 37.105 19.7442C36.6534 20.1783 36.3998 20.7672 36.3998 21.3812C36.3998 21.9952 36.6534 22.584 37.105 23.0182C37.5565 23.4523 38.169 23.6962 38.8075 23.6962C39.4461 23.6962 40.0585 23.4523 40.5101 23.0182C40.9616 22.584 41.2153 21.9952 41.2153 21.3812C41.2153 20.7672 40.9616 20.1783 40.5101 19.7442C40.0585 19.31 39.4461 19.0661 38.8075 19.0661ZM56.9793 19.4592L56.7067 19.3282C56.6613 19.3282 56.6159 19.2845 56.5704 19.2845C56.4796 19.2408 56.3887 19.2408 56.2979 19.1971C56.2524 19.1971 56.207 19.1534 56.1616 19.1534C56.0137 19.1151 55.8602 19.1003 55.7073 19.1098C55.0691 19.1103 54.4573 19.3545 54.0062 19.7886C53.5551 20.2227 53.3018 20.8112 53.3018 21.4248C53.3018 22.0385 53.5551 22.627 54.0062 23.0611C54.4573 23.4952 55.0691 23.7394 55.7073 23.7399C56.3446 23.7359 56.9546 23.4907 57.4052 23.0574C57.8559 22.6241 58.1109 22.0376 58.1151 21.4248C58.1228 21.03 58.0218 20.6403 57.8223 20.2951C57.6229 19.9499 57.332 19.6615 56.9793 19.4592ZM55.5256 25.1377C55.2172 26.0886 54.8532 27.0219 54.4353 27.9333H23.1798C22.7709 27.016 22.4075 26.0987 22.0895 25.1377C22.6666 25.1134 23.2309 24.9664 23.7419 24.7072C24.2528 24.4481 24.6977 24.0833 25.0445 23.6391C25.3912 23.1949 25.6313 22.6823 25.7474 22.1382C25.8635 21.5941 25.8527 21.032 25.7158 20.4924C25.5789 19.9528 25.3193 19.449 24.9557 19.0174C24.5922 18.5858 24.1336 18.2371 23.6131 17.9962C23.0925 17.7554 22.5229 17.6285 21.9453 17.6247C21.3676 17.6209 20.7963 17.7402 20.2723 17.9741C20.0906 16.8384 19.9089 15.7027 19.7726 14.5233H57.797C57.6608 15.7027 57.5245 16.8384 57.2973 17.9741C56.7026 17.7082 56.0477 17.5909 55.3933 17.633C54.7389 17.6751 54.1061 17.8752 53.5535 18.2149C53.0009 18.5546 52.5464 19.0229 52.232 19.5763C51.9176 20.1298 51.7535 20.7505 51.7549 21.3812C51.7705 22.3504 52.1686 23.2778 52.8688 23.9753C53.5689 24.6729 54.5187 25.0884 55.5256 25.1377ZM34.2646 21.3812C34.2646 20.6382 34.0354 19.9119 33.6061 19.2941C33.1768 18.6764 32.5667 18.1949 31.8528 17.9106C31.1389 17.6262 30.3533 17.5519 29.5954 17.6968C28.8376 17.8417 28.1414 18.1995 27.595 18.7249C27.0486 19.2502 26.6765 19.9196 26.5258 20.6483C26.375 21.377 26.4524 22.1323 26.7481 22.8187C27.0438 23.5051 27.5446 24.0918 28.1871 24.5046C28.8296 24.9174 29.5849 25.1377 30.3576 25.1377C30.8728 25.1451 31.3843 25.053 31.8618 24.8668C32.3393 24.6806 32.773 24.4042 33.1374 24.0539C33.5017 23.7036 33.7892 23.2865 33.9828 22.8274C34.1765 22.3683 34.2723 21.8765 34.2646 21.3812ZM42.7145 21.3812C42.7145 20.6382 42.4853 19.9119 42.056 19.2941C41.6267 18.6764 41.0166 18.1949 40.3027 17.9106C39.5888 17.6262 38.8032 17.5518 38.0453 17.6968C37.2875 17.8417 36.5913 18.1995 36.0449 18.7249C35.4985 19.2502 35.1264 19.9196 34.9757 20.6483C34.8249 21.377 34.9023 22.1323 35.198 22.8187C35.4937 23.5051 35.9945 24.0918 36.637 24.5046C37.2794 24.9174 38.0348 25.1377 38.8075 25.1377C39.3206 25.1377 39.8287 25.0406 40.3027 24.8518C40.7767 24.663 41.2074 24.3863 41.5702 24.0375C41.933 23.6887 42.2208 23.2745 42.4171 22.8188C42.6135 22.363 42.7145 21.8745 42.7145 21.3812ZM51.1644 21.3812C51.1644 20.6382 50.9352 19.9119 50.5059 19.2941C50.0766 18.6764 49.4664 18.1949 48.7525 17.9106C48.0386 17.6262 47.2531 17.5519 46.4952 17.6968C45.7373 17.8417 45.0412 18.1995 44.4948 18.7249C43.9484 19.2502 43.5763 19.9196 43.4256 20.6483C43.2748 21.377 43.3522 22.1323 43.6479 22.8187C43.9436 23.5051 44.4443 24.0918 45.0868 24.5046C45.7293 24.9174 46.4847 25.1377 47.2574 25.1377C47.7705 25.1377 48.2786 25.0406 48.7526 24.8518C49.2266 24.663 49.6573 24.3863 50.0201 24.0375C50.3829 23.6887 50.6707 23.2745 50.867 22.8188C51.0634 22.363 51.1644 21.8745 51.1644 21.3812ZM30.3577 19.0661C29.7191 19.0661 29.1067 19.31 28.6551 19.7442C28.2036 20.1783 27.9499 20.7672 27.9499 21.3812C27.9499 21.9952 28.2036 22.584 28.6551 23.0182C29.1067 23.4523 29.7191 23.6962 30.3577 23.6962C30.9962 23.6962 31.6087 23.4523 32.0602 23.0182C32.5117 22.584 32.7654 21.9952 32.7654 21.3812C32.7654 20.7672 32.5117 20.1783 32.0602 19.7442C31.6087 19.31 30.9962 19.0661 30.3577 19.0661Z" fill="#C5A459"/>
</svg>
