<svg width="20" height="20" viewBox="0 0 20 20" fill="none" xmlns="http://www.w3.org/2000/svg">
<path d="M16.2015 4.30717C15.0668 3.77818 13.8382 3.39424 12.5584 3.1724C12.5471 3.17204 12.536 3.17415 12.5257 3.17857C12.5153 3.18299 12.5061 3.18963 12.4986 3.198C12.3451 3.47956 12.1659 3.84644 12.0464 4.128C10.689 3.92323 9.30852 3.92323 7.95109 4.128C7.83164 3.8379 7.65247 3.47956 7.49036 3.198C7.48183 3.18093 7.45623 3.1724 7.43063 3.1724C6.15084 3.39424 4.93076 3.77818 3.78748 4.30717C3.77895 4.30717 3.77042 4.3157 3.76188 4.32423C1.44118 7.79679 0.801286 11.1755 1.11697 14.5201C1.11697 14.5371 1.1255 14.5542 1.14257 14.5627C2.67832 15.689 4.15435 16.3715 5.61332 16.8237C5.63892 16.8323 5.66451 16.8237 5.67305 16.8067C6.01433 16.3374 6.32148 15.8425 6.58597 15.3221C6.60303 15.288 6.58597 15.2538 6.55184 15.2453C6.06552 15.0576 5.60479 14.8358 5.1526 14.5798C5.11847 14.5627 5.11847 14.5115 5.14406 14.4859C5.23792 14.4177 5.33177 14.3409 5.42562 14.2726C5.44268 14.2556 5.46828 14.2556 5.48534 14.2641C8.42034 15.6036 11.5857 15.6036 14.4866 14.2641C14.5036 14.2556 14.5292 14.2556 14.5463 14.2726C14.6402 14.3494 14.734 14.4177 14.8279 14.4945C14.862 14.5201 14.862 14.5713 14.8193 14.5883C14.3757 14.8528 13.9064 15.0661 13.4201 15.2538C13.386 15.2624 13.3774 15.305 13.386 15.3306C13.659 15.8511 13.9661 16.3459 14.2989 16.8152C14.3245 16.8237 14.3501 16.8323 14.3757 16.8237C15.8432 16.3715 17.3192 15.689 18.855 14.5627C18.872 14.5542 18.8806 14.5371 18.8806 14.5201C19.256 10.655 18.2577 7.30193 16.2356 4.32423C16.2271 4.3157 16.2186 4.30717 16.2015 4.30717ZM7.02963 12.4809C6.15084 12.4809 5.41709 11.6704 5.41709 10.6721C5.41709 9.67385 6.13377 8.8633 7.02963 8.8633C7.93402 8.8633 8.65071 9.68238 8.64218 10.6721C8.64218 11.6704 7.92549 12.4809 7.02963 12.4809ZM12.9764 12.4809C12.0976 12.4809 11.3639 11.6704 11.3639 10.6721C11.3639 9.67385 12.0806 8.8633 12.9764 8.8633C13.8808 8.8633 14.5975 9.68238 14.589 10.6721C14.589 11.6704 13.8808 12.4809 12.9764 12.4809Z" fill="#878787"/>
</svg>
