<svg width="76" height="76" viewBox="0 0 76 76" fill="none" xmlns="http://www.w3.org/2000/svg">
<path d="M56.4587 8.92212H13.7977L6.75513 67.0367C6.75513 67.0367 41.9678 67.0481 48.4994 67.0392C49.7129 67.0392 50.9238 66.9548 52.1233 66.7724C55.6012 66.2387 61.3691 64.5485 63.8024 58.8198C64.8858 56.2679 65.7159 49.1615 65.9921 47.2433C66.6647 42.5773 64.1672 39.877 61.6816 38.3125C61.1319 37.9681 61.2733 37.1379 61.9003 36.976C64.521 36.3009 66.9885 34.9075 67.6636 31.9336C68.1357 29.8468 68.5963 25.2559 68.9202 22.7039C70.3958 11.9896 63.2003 8.92212 56.4587 8.92212ZM51.5373 41.836H33.6003L33.1464 45.5236H51.0901L50.0346 54.0782H21.3785L23.8027 34.3647H52.4539L51.5373 41.836ZM52.8808 30.921H24.2224L25.3307 21.8874H53.9866L52.8808 30.921Z" fill="#22AF94"/>
</svg>
