<svg width="76" height="77" viewBox="0 0 76 77" fill="none" xmlns="http://www.w3.org/2000/svg">
<path fill-rule="evenodd" clip-rule="evenodd" d="M36.7927 15.1454C35.2613 17.0369 33.9341 19.0761 32.777 21.2336C32.5728 21.5587 32.2325 21.7951 31.8921 21.7951C27.2638 22.2975 22.8056 23.3319 18.6537 24.8688C18.994 27.2922 19.5726 29.6565 20.3553 31.9618C23.1119 30.75 26.1067 29.8339 29.2036 29.2132C29.3738 29.1837 29.5099 29.3314 29.4759 29.4792C28.6591 32.2573 28.1486 35.1832 27.9104 38.1386C27.8764 38.5524 27.6041 38.907 27.1617 39.0548C26.1748 39.3799 25.1878 39.7641 24.269 40.2074C25.2899 41.8624 26.413 43.3993 27.6722 44.9065C27.7743 45.0543 27.8764 45.2316 27.8764 45.4385C28.1827 49.8716 29.1355 54.157 30.667 58.1468C30.9733 58.9743 31.3136 59.8019 31.6879 60.5998C31.79 60.7772 31.5178 60.9545 31.3136 60.8363C30.4288 60.2452 29.5439 59.6245 28.6931 58.9743C23.6904 55.221 19.4364 50.7583 16.1013 45.7636C14.2636 43.0742 12.7321 40.2074 11.507 37.2224C10.486 34.7399 9.66927 32.1687 9.09073 29.5383C8.44412 26.7307 8.06977 23.8639 8.00171 20.9085C7.96768 20.1105 8.44412 19.3717 9.26089 18.9875C12.1876 17.5984 15.2505 16.4162 18.4155 15.4705C24.5412 13.6381 31.1434 12.6333 37.9839 12.6333H38.4943C38.6985 12.6333 38.8006 12.8402 38.6985 12.988C38.0519 13.6677 37.4053 14.377 36.7927 15.1454ZM57.552 15.4717C60.7511 16.447 63.7799 17.5996 66.7066 18.9887C67.5234 19.3433 67.9999 20.0822 67.9999 20.8802C67.8978 23.806 67.5234 26.7023 66.9108 29.51C66.3323 32.1403 65.5155 34.7115 64.4946 37.1941C63.2354 40.1791 61.7039 43.0163 59.9003 45.7353C56.5651 50.7299 52.2771 55.1926 47.3084 58.946C44.4838 61.0739 41.4209 62.9654 38.1879 64.6204C38.0517 64.6795 37.9156 64.6204 37.8475 64.5318C36.214 62.1083 34.8527 59.4484 33.7977 56.5521C33.049 54.4833 32.4705 52.2963 32.0281 50.0502C31.9941 49.8433 32.2663 49.7251 32.4365 49.8729C34.1381 51.4097 35.9758 52.7987 37.9496 54.0991C43.5989 50.4048 48.3294 45.6466 51.7326 40.2086C53.3661 37.6079 54.6934 34.8593 55.6803 31.9925C56.463 29.7169 57.0416 27.323 57.3819 24.8995C51.3923 22.7125 44.8241 21.5008 37.9496 21.5008H36.9627C36.7926 21.5008 36.6905 21.353 36.7585 21.2053C38.5622 18.1316 40.7743 15.4422 43.2586 13.2256C43.5309 13.0187 43.8712 12.9005 44.2456 12.9301C48.8739 13.3438 53.2981 14.2009 57.552 15.4717Z" fill="#1493FF"/>
</svg>
