<svg width="77" height="76" viewBox="0 0 77 76" fill="none" xmlns="http://www.w3.org/2000/svg">
<path fill-rule="evenodd" clip-rule="evenodd" d="M64.2283 20.653C64.8147 21.2172 65.3553 21.8212 65.8493 22.4783L65.8428 22.4717C69.1112 26.8059 70.0474 32.6668 68.413 38.5476C65.5397 48.9087 54.8969 57.0197 44.1882 57.0197H36.8272L20.8861 67.4006C20.2601 67.812 19.5351 68.0312 18.7971 68.0312C17.6768 68.0312 16.6356 67.5402 15.9371 66.6773C15.7591 66.5247 8.16747 58.8847 8.01591 58.699C7.31737 57.8295 7.04718 56.6945 7.28442 55.5794L16.6685 11.0751C17.0507 9.27633 18.6521 7.96875 20.4709 7.96875H44.1552C49.1504 7.96875 53.6711 9.85379 56.8146 13.1858C56.8313 13.2027 56.9197 13.2916 57.0652 13.4378C58.35 14.7298 64.0863 20.4979 64.2283 20.653ZM20.471 11.2874H44.1553C53.9743 11.2874 60.1226 19.6639 57.3352 29.6931C54.7981 38.8396 45.3811 45.7426 36.2803 45.7426H27.944L11.1858 56.6546C10.8233 56.8869 10.4213 56.6612 10.507 56.2696L13.6372 41.4348C14.6982 36.4102 19.5946 32.3415 24.5831 32.3415C24.8467 32.3415 25.0115 32.5539 24.9588 32.8193L23.7462 38.5674L38.2836 29.1024C38.6461 28.8701 39.0481 29.0957 38.9624 29.4873L37.5522 36.1713H38.567C42.5342 36.1713 46.699 33.2575 47.9248 29.2816C49.3284 24.715 46.5804 20.8586 42.1388 20.8586H27.4827L26.9753 23.2481C25.9143 28.2727 21.018 32.3415 16.0294 32.3415C15.7658 32.3415 15.601 32.1291 15.6538 31.8636L19.8977 11.7653C19.9504 11.4998 20.2074 11.2874 20.471 11.2874Z" fill="#8000FF"/>
</svg>
