<svg width="24" height="24" viewBox="0 0 24 24" fill="none" xmlns="http://www.w3.org/2000/svg">
    <path d="M17 2H7C4.23858 2 2 4.23858 2 7V17C2 19.7614 4.23858 22 7 22H17C19.7614 22 22 19.7614 22 17V7C22 4.23858 19.7614 2 17 2Z" stroke="#3B82F6" stroke-width="2" stroke-linecap="round" stroke-linejoin="round"/>
    <path d="M15.5 11.5C15.5 13.433 13.933 15 12 15C10.067 15 8.5 13.433 8.5 11.5C8.5 9.567 10.067 8 12 8C13.933 8 15.5 9.567 15.5 11.5Z" stroke="#3B82F6" stroke-width="2"/>
    <path d="M16.5 7.5H16.51" stroke="#3B82F6" stroke-width="2" stroke-linecap="round" stroke-linejoin="round"/>
</svg>
