<svg width="152" height="28" viewBox="0 0 152 28" fill="none" xmlns="http://www.w3.org/2000/svg">
<path d="M14 0L18.1145 8.33688L27.3148 9.67376L20.6574 16.1631L22.229 25.3262L14 21L5.77101 25.3262L7.34261 16.1631L0.685209 9.67376L9.8855 8.33688L14 0Z" fill="#C5A459"/>
<path d="M45 0L49.1145 8.33688L58.3148 9.67376L51.6574 16.1631L53.229 25.3262L45 21L36.771 25.3262L38.3426 16.1631L31.6852 9.67376L40.8855 8.33688L45 0Z" fill="#C5A459"/>
<path d="M76 0L80.1145 8.33688L89.3148 9.67376L82.6574 16.1631L84.229 25.3262L76 21L67.771 25.3262L69.3426 16.1631L62.6852 9.67376L71.8855 8.33688L76 0Z" fill="#C5A459"/>
<path d="M107 0L111.114 8.33688L120.315 9.67376L113.657 16.1631L115.229 25.3262L107 21L98.771 25.3262L100.343 16.1631L93.6852 9.67376L102.886 8.33688L107 0Z" fill="#C5A459"/>
<path d="M138 0L142.114 8.33688L151.315 9.67376L144.657 16.1631L146.229 25.3262L138 21L129.771 25.3262L131.343 16.1631L124.685 9.67376L133.886 8.33688L138 0Z" fill="#C5A459"/>
</svg>
