<svg width="77" height="76" viewBox="0 0 77 76" fill="none" xmlns="http://www.w3.org/2000/svg">
<path d="M42.4008 6.25C41.0808 6.09 39.7507 6.02 38.4406 6C22.5597 6 8.78886 17.87 6.78874 34.06C4.45861 52.89 13.0291 61.74 21.4096 65.94C26.9299 68.72 32.3602 69.48 34.5404 69.75C35.8605 69.91 37.1705 70 38.5106 70C54.3815 70 68.1523 58.13 70.1525 41.94C72.3326 24.39 59.8919 8.43 42.4008 6.25ZM23.2897 62.49C21.9196 61.82 20.6496 61.05 19.4895 60.21C17.9994 59.12 16.6493 57.85 15.4893 56.43C15.2192 56.1 14.9592 55.76 14.7092 55.41C15.2092 55.41 15.6993 55.38 16.1793 55.31C19.5795 54.86 24.0398 53.31 24.6498 52.99C24.6498 52.99 27.2599 51.73 30.7302 48.83L23.2897 62.49ZM44.2809 65.44C43.7309 65.56 43.1709 65.66 42.6108 65.75L47.5111 48.21L43.8409 47.93C44.861 46.56 46.1211 45.15 47.2011 44.01C47.7311 43.96 48.2412 43.89 48.7412 43.82L49.0012 42.89L49.7813 43.28C51.9614 48.24 50.9913 51.09 50.9913 51.09C50.5913 52.97 49.1812 55.89 48.0612 58.24C47.1911 60.04 46.4911 61.5 46.5411 61.87C46.5411 62.02 45.441 63.7 44.2809 65.44ZM66.1722 41.52C64.7821 52.61 57.0517 61.5 46.9011 64.74L46.7111 62.59C46.9511 62.19 47.1111 61.94 47.1111 61.87C47.0611 61.5 47.7611 60.04 48.6312 58.24C49.7513 55.89 51.1613 52.97 51.5614 51.09C51.5614 51.09 52.5214 48.3 50.4113 43.41C50.0513 40.96 50.0513 42.12 50.0513 40.37C50.0513 40.3 49.8913 40.37 49.6513 40.52C49.7113 39.9 49.7813 39.25 49.7913 39.21L50.7013 35.09C50.7013 35.02 50.7513 34.95 50.8113 34.9L57.8117 28.8C57.8117 28.8 57.8817 28.73 57.8917 28.69C57.9317 28.62 57.9517 28.55 57.9617 28.48L58.6518 25.58C58.6518 25.58 58.6718 25.49 58.6718 25.44L58.5118 23.84C58.5118 23.38 58.0717 23.07 57.6317 22.96H57.6017L53.3015 23.68H53.2615L51.5114 23.81H51.4614L49.6813 23.65C49.6113 23.65 49.5312 23.61 49.4712 23.56L48.9812 23.1L48.9612 23.08L48.3312 22.4L48.3112 22.38C48.3112 22.38 48.2912 22.37 48.2812 22.36L47.5811 21.8C47.5811 21.8 47.5611 21.78 47.5411 21.77C47.5311 21.77 47.5211 21.76 47.5111 21.75L46.2111 21.15H46.1811C46.1811 21.15 46.111 21.12 46.071 21.12L44.0009 21.01L41.1408 20.82C41.1408 20.82 41.0408 20.8 40.9808 20.76L40.1607 20.27C40.0207 20.18 39.9007 20.08 39.7907 19.95L39.6007 19.71C39.4707 19.55 39.4007 19.37 39.3707 19.18L39.2807 18.62C39.2807 18.62 39.2706 18.59 39.2607 18.58C39.2607 18.56 39.2506 18.55 39.2506 18.53L38.5406 17.04C38.5406 17.04 38.5406 17.02 38.5306 17L37.9706 16.16C37.8606 16.02 37.7406 15.89 37.5806 15.81C37.5406 15.79 37.5105 15.77 37.4905 15.73L37.0705 15.26C37.0705 15.26 36.9705 15.17 36.9005 15.15C36.6505 15.1 36.4205 15.24 36.3705 15.49C36.3505 15.56 36.3005 15.63 36.2505 15.68C36.0905 15.81 35.8605 15.79 35.7404 15.63L35.4404 15.28V15.26C35.4404 15.26 35.4304 15.25 35.4304 15.24L34.7804 14.24C34.7304 14.17 34.6804 14.14 34.6104 14.1L33.8903 13.82C33.7503 13.77 33.5903 13.8 33.4803 13.91L32.9803 14.43C32.9103 14.49 32.8703 14.59 32.8703 14.68L32.9103 15.77V15.79L32.6403 21.99V22.05C31.3802 27.71 30.5301 35.8 30.8702 41.74C29.9001 41.99 28.93 42.24 27.97 42.49C22.2296 44.01 16.6793 45.48 10.539 43.65C10.2489 40.87 10.309 37.84 10.709 34.59C12.4391 20.54 24.3298 9.99 38.4406 9.97C39.5907 9.97 40.7507 10.04 41.9108 10.18C57.2417 12.12 68.1023 26.15 66.1722 41.52Z" fill="#E0B404"/>
</svg>
