<svg width="228" height="220" viewBox="0 0 228 220" fill="none" xmlns="http://www.w3.org/2000/svg">
<mask id="path-1-inside-1_1418_34529" fill="white">
<path fill-rule="evenodd" clip-rule="evenodd" d="M70.9991 20.2926C70.4976 13.9639 69.9125 6.57992 65.4004 0.620753L80.3079 0C89.3237 3.25486 94.9079 7.44838 101.742 12.5805C102.768 13.3507 103.821 14.142 104.919 14.9544C92.6135 11.8319 80.9535 16.1959 71.2304 23.043C71.1467 22.1551 71.0738 21.2356 70.9991 20.2926ZM170.341 110.231C170.341 155.075 148.313 194.295 113.998 219.84H221.015C224.87 219.84 227.995 216.715 227.995 212.86V7.6014C227.995 3.74632 224.87 0.621165 221.015 0.621165H113.998C148.313 25.5452 170.341 65.4049 170.341 110.231ZM0.644993 42.982L0.703325 42.9979H0.703341H0.703356C5.22251 44.2341 9.72243 45.465 14.2418 45.465C23.9649 41.7217 26.5473 34.2538 22.6541 24.2842C16.8242 16.1957 9.05738 11.8316 0.625425 9.96931V42.982H0.644993ZM18.7612 76.5976H23.3L27.1736 72.8543C25.2368 69.7505 18.1156 74.1146 18.7612 76.5976ZM23.9456 77.8578C18.1156 78.4786 12.9508 77.2183 9.05759 74.7353C14.7283 76.1743 19.298 72.7159 23.971 69.1793C29.4386 65.0414 35.0475 60.7965 42.7267 64.1637C49.8479 67.8882 57.6343 71.0108 66.6922 71.6315L69.9398 77.8578C63.4642 69.7693 51.1587 71.0108 41.4355 72.2523C38.5228 72.2523 35.6101 74.0182 32.8737 75.6771C29.5264 77.7065 26.4428 79.5759 23.9456 77.8578ZM25.2566 142.619C14.9074 127.665 11.6598 109.606 11.6598 90.3067C22.6546 96.533 38.2078 99.6367 52.4501 94.6707C38.8534 102.138 25.2566 113.35 25.2566 129.546V142.619ZM69.9395 214.859C68.6483 216.721 66.692 218.602 65.4008 219.844L30.4209 219.223C42.727 205.022 41.8654 186.056 40.9908 166.803C40.2539 150.581 39.5077 134.156 46.6196 120.204C46.9916 119.668 47.3537 119.145 47.7081 118.633L47.7094 118.631L47.7111 118.629L47.7163 118.621C52.2973 112.002 55.6132 107.211 62.8184 100.284L63.464 100.904C55.032 110.855 47.9108 120.204 46.6196 132.657C46.0853 145.54 54.4236 156.292 62.5463 166.764C74.0506 181.597 85.1222 195.873 69.9395 214.859ZM7.57645 219.834C3.74072 219.834 0.623631 216.739 0.596398 212.903L0 128.903C3.5273 133.88 7.46028 138.753 11.3764 143.605C29.0286 165.478 46.3388 186.927 24.6111 215.47L20.0724 219.834H7.57645ZM54.4069 0.621165H4.38917C2.3218 0.621165 0.645875 2.29709 0.645875 4.36446C5.83025 4.98521 11.6602 6.84744 16.199 8.7285C27.2134 14.9548 35.6258 24.9244 34.3346 37.3771L58.3001 34.8941C61.5476 27.4262 62.8389 15.5944 59.5913 9.36811C58.2805 5.60599 56.3437 2.50223 54.4069 0.621165ZM113.332 112.116L111.395 117.1L108.812 110.874C102.982 112.116 97.1524 113.997 93.9244 120.223C93.6827 120.92 93.7125 121.794 93.7427 122.68C93.7932 124.16 93.8448 125.673 92.6332 126.449C89.6877 125.98 90.0906 122.301 90.4612 118.917V118.917C90.5805 117.828 90.6964 116.77 90.6964 115.859C95.2352 111.495 107.541 102.165 112.08 105.889C113.332 106.51 113.977 109.614 113.332 112.116ZM87.4293 156.941C84.8808 154.993 85.1394 151.886 85.3688 149.129C85.4317 148.373 85.4925 147.644 85.4925 146.972L87.4293 145.109C89.4194 151.219 93.3491 149.141 97.5841 146.902C100.26 145.487 103.058 144.008 105.565 144.489C107.089 143.906 107.609 142.635 108.068 141.515C108.586 140.249 109.026 139.174 110.749 139.504C114.372 150.387 105.967 152.141 97.4849 153.911C93.8285 154.674 90.1576 155.44 87.4293 156.941ZM134.069 158.822C136.652 138.262 134.715 116.48 119.181 102.146C118.104 101.94 116.886 102.007 115.646 102.076C113.146 102.214 110.551 102.358 108.812 100.284C105.586 103.105 101.958 105.157 98.3524 107.197C93.9998 109.66 89.6798 112.104 86.1381 115.859C81.3842 117.102 76.6304 115.579 71.8707 114.054L71.8707 114.054C69.5004 113.294 67.1288 112.534 64.7549 112.116V109.633C57.6714 114.168 57.1294 122.009 56.6082 129.547C56.414 132.355 56.2227 135.122 55.6969 137.66C57.5663 145.327 64.5309 149.73 71.188 153.939C73.7271 155.545 76.2214 157.122 78.3713 158.841C89.1722 160.476 98.9783 156.835 108.226 153.402L108.228 153.401C109.516 152.923 110.793 152.449 112.06 151.994C112.458 152.376 112.884 152.733 113.298 153.081C114.901 154.425 116.334 155.626 115.308 157.6C106.895 168.811 94.5896 173.795 80.3277 172.554C88.74 188.129 82.91 206.187 73.8521 219.881H82.2644C108.147 208.633 132.113 191.195 134.069 158.822ZM94.5508 21.1826C123.701 19.3203 145.729 51.0726 152.851 74.7363C159.326 98.4001 161.909 156.939 131.487 182.502C142.501 157.578 147.04 118.979 125.012 97.1774C123.251 94.9937 123.061 92.0536 122.872 89.1311C122.576 84.5512 122.283 80.0142 115.954 78.4985C115.282 79.299 114.656 80.4738 113.995 81.7122C112.093 85.275 109.911 89.3648 105.585 86.587C101.913 84.2412 97.7287 83.1191 93.5162 81.9895C91.0405 81.3256 88.5551 80.659 86.158 79.7399C88.7775 79.1118 92.1336 79.4038 95.6303 79.7081C102.501 80.3059 109.916 80.9509 113.352 74.7551C112.706 72.2721 111.415 68.5288 108.167 67.9081C103.791 69.5861 102.971 67.8621 101.897 65.6041C101.381 64.5209 100.808 63.3148 99.7548 62.3025C98.4418 61.9853 97.0558 61.7039 95.6403 61.4165C88.6616 59.9997 80.9627 58.4367 77.7261 51.7121C81.383 49.9474 84.0665 53.1431 86.6967 56.2752C87.7953 57.5835 88.8846 58.8807 90.0316 59.8007C92.1766 58.9758 92.0411 57.3202 91.8981 55.5736C91.8259 54.6918 91.7518 53.7867 91.9685 52.9536C84.8473 46.7273 76.4153 40.501 68.6485 36.137C72.5221 29.8918 83.5365 21.8033 94.5508 21.1826Z"/>
</mask>
<path d="M65.4004 0.620753L65.3588 -0.378381L63.4498 -0.298888L64.6032 1.22441L65.4004 0.620753ZM70.9991 20.2926L71.996 20.2136L71.996 20.2136L70.9991 20.2926ZM80.3079 0L80.6475 -0.940582L80.4627 -1.00731L80.2663 -0.999134L80.3079 0ZM101.742 12.5805L102.343 11.7809L102.343 11.7809L101.742 12.5805ZM104.919 14.9544L104.673 15.9237L105.514 14.1507L104.919 14.9544ZM71.2304 23.043L70.2348 23.1369L70.3966 24.8532L71.8061 23.8606L71.2304 23.043ZM113.998 219.84L113.401 219.038L110.98 220.84H113.998V219.84ZM113.998 0.621165V-0.378835H110.919L113.41 1.43026L113.998 0.621165ZM0.703325 42.9979L0.439522 43.9625L0.569045 43.9979H0.703325V42.9979ZM0.644993 42.982L0.908795 42.0174L0.779273 41.982H0.644993V42.982ZM0.703356 42.9979L0.967202 42.0333L0.837658 41.9979H0.703356V42.9979ZM14.2418 45.465V46.465H14.4276L14.601 46.3982L14.2418 45.465ZM22.6541 24.2842L23.5856 23.9205L23.5395 23.8024L23.4654 23.6995L22.6541 24.2842ZM0.625425 9.96931L0.841085 8.99285L-0.374575 8.72436V9.96931H0.625425ZM0.625425 42.982H-0.374575V43.982H0.625425V42.982ZM23.3 76.5976V77.5976H23.7042L23.9949 77.3167L23.3 76.5976ZM18.7612 76.5976L17.7934 76.8492L17.9879 77.5976H18.7612V76.5976ZM27.1736 72.8543L27.8685 73.5734L28.4502 73.0112L28.0219 72.3249L27.1736 72.8543ZM9.05759 74.7353L9.30355 73.7661L8.51986 75.5785L9.05759 74.7353ZM23.9456 77.8578L24.5124 77.034L24.2076 76.8243L23.8397 76.8635L23.9456 77.8578ZM23.971 69.1793L23.3676 68.3819L23.3676 68.3819L23.971 69.1793ZM42.7267 64.1637L43.1902 63.2776L43.1597 63.2617L43.1283 63.2479L42.7267 64.1637ZM66.6922 71.6315L67.5789 71.1691L67.3197 70.6722L66.7606 70.6339L66.6922 71.6315ZM69.9398 77.8578L69.1591 78.4828L70.8264 77.3954L69.9398 77.8578ZM41.4355 72.2523V73.2523H41.4991L41.5622 73.2443L41.4355 72.2523ZM32.8737 75.6771L32.3553 74.822L32.3553 74.822L32.8737 75.6771ZM11.6598 90.3067L12.1526 89.4365L10.6598 88.5911V90.3067H11.6598ZM25.2566 142.619L24.4343 143.188L26.2566 145.821V142.619H25.2566ZM52.4501 94.6707L52.9315 95.5472L52.1209 93.7264L52.4501 94.6707ZM65.4008 219.844L65.383 220.844L65.7961 220.851L66.0939 220.565L65.4008 219.844ZM69.9395 214.859L69.1585 214.234L69.1372 214.261L69.1178 214.289L69.9395 214.859ZM30.4209 219.223L29.6652 218.568L28.2641 220.185L30.4032 220.223L30.4209 219.223ZM40.9908 166.803L41.9897 166.757L41.9897 166.757L40.9908 166.803ZM46.6196 120.204L45.7982 119.634L45.7595 119.689L45.7287 119.75L46.6196 120.204ZM47.7081 118.633L48.5304 119.202L48.5307 119.202L47.7081 118.633ZM47.7094 118.631L48.532 119.2L48.5332 119.198L47.7094 118.631ZM47.7111 118.629L46.8887 118.06L46.8873 118.062L47.7111 118.629ZM47.7163 118.621L46.894 118.052L46.8939 118.052L47.7163 118.621ZM62.8184 100.284L63.5114 99.5628L62.8183 98.8964L62.1253 99.5628L62.8184 100.284ZM63.464 100.904L64.2269 101.551L64.834 100.834L64.157 100.184L63.464 100.904ZM46.6196 132.657L45.625 132.554L45.6218 132.584L45.6205 132.615L46.6196 132.657ZM62.5463 166.764L61.7561 167.377L61.7561 167.377L62.5463 166.764ZM0.596398 212.903L-0.403577 212.91L0.596398 212.903ZM0 128.903L0.815836 128.325L-1.02255 125.731L-0.999975 128.91L0 128.903ZM11.3764 143.605L10.5982 144.233L10.5982 144.233L11.3764 143.605ZM24.6111 215.47L25.3042 216.19L25.36 216.137L25.4068 216.075L24.6111 215.47ZM20.0724 219.834V220.834H20.4751L20.7655 220.555L20.0724 219.834ZM54.4069 0.621165L55.1036 -0.0961897L54.8126 -0.378835H54.4069V0.621165ZM0.645875 4.36446H-0.354125V5.25186L0.52699 5.35736L0.645875 4.36446ZM16.199 8.7285L16.6911 7.85796L16.6381 7.828L16.5819 7.80469L16.199 8.7285ZM34.3346 37.3771L33.3399 37.2739L33.2129 38.4986L34.4376 38.3717L34.3346 37.3771ZM58.3001 34.8941L58.4031 35.8887L58.9842 35.8285L59.2171 35.2928L58.3001 34.8941ZM59.5913 9.36811L58.647 9.69712L58.6709 9.76595L58.7046 9.83057L59.5913 9.36811ZM111.395 117.1L110.471 117.483L111.425 119.784L112.327 117.462L111.395 117.1ZM113.332 112.116L114.264 112.478L114.285 112.423L114.3 112.365L113.332 112.116ZM108.812 110.874L109.736 110.491L109.417 109.723L108.604 109.896L108.812 110.874ZM93.9244 120.223L93.0366 119.763L93.0033 119.827L92.9796 119.895L93.9244 120.223ZM93.7427 122.68L92.7433 122.714L92.7433 122.714L93.7427 122.68ZM92.6332 126.449L92.4757 127.437L92.852 127.497L93.1729 127.291L92.6332 126.449ZM90.4612 118.917L91.4553 119.026L91.4612 118.972V118.917H90.4612ZM90.4612 118.917L89.4672 118.808L89.4612 118.862V118.917H90.4612ZM90.6964 115.859L90.0033 115.138L89.6964 115.433V115.859H90.6964ZM112.08 105.889L111.445 106.662L111.533 106.735L111.635 106.785L112.08 105.889ZM85.3688 149.129L86.3654 149.212L86.3654 149.212L85.3688 149.129ZM87.4293 156.941L86.8219 157.736L87.34 158.132L87.9114 157.817L87.4293 156.941ZM85.4925 146.972L84.7994 146.251L84.4925 146.546V146.972H85.4925ZM87.4293 145.109L88.3801 144.8L87.886 143.283L86.7361 144.388L87.4293 145.109ZM97.5841 146.902L97.1167 146.018L97.1167 146.018L97.5841 146.902ZM105.565 144.489L105.377 145.471L105.656 145.524L105.922 145.423L105.565 144.489ZM108.068 141.515L108.993 141.894L108.993 141.894L108.068 141.515ZM110.749 139.504L111.698 139.188L111.513 138.632L110.937 138.522L110.749 139.504ZM97.4849 153.911L97.6892 154.89L97.6892 154.89L97.4849 153.911ZM119.181 102.146L119.859 101.411L119.649 101.217L119.369 101.164L119.181 102.146ZM134.069 158.822L133.077 158.698L133.073 158.73L133.071 158.762L134.069 158.822ZM115.646 102.076L115.701 103.074L115.646 102.076ZM108.812 100.284L109.579 99.6412L108.923 98.8588L108.154 99.5308L108.812 100.284ZM98.3524 107.197L98.8448 108.067L98.8448 108.067L98.3524 107.197ZM86.1381 115.859L86.3911 116.826L86.6687 116.754L86.8656 116.545L86.1381 115.859ZM71.8707 114.054L71.5545 115.003L71.5656 115.006L71.8707 114.054ZM71.8707 114.054L72.1869 113.105L72.1758 113.101L71.8707 114.054ZM64.7549 112.116H63.7549V112.954L64.5811 113.1L64.7549 112.116ZM64.7549 109.633H65.7549V107.805L64.2157 108.79L64.7549 109.633ZM56.6082 129.547L57.6059 129.616L57.6059 129.616L56.6082 129.547ZM55.6969 137.66L54.7177 137.457L54.672 137.678L54.7254 137.897L55.6969 137.66ZM71.188 153.939L70.6536 154.785L70.6536 154.785L71.188 153.939ZM78.3713 158.841L77.7468 159.622L77.9563 159.79L78.2217 159.83L78.3713 158.841ZM108.226 153.402L107.889 152.46L107.878 152.464L108.226 153.402ZM108.228 153.401L108.565 154.343L108.576 154.339L108.228 153.401ZM112.06 151.994L112.753 151.273L112.306 150.843L111.722 151.053L112.06 151.994ZM113.298 153.081L113.94 152.315L113.94 152.315L113.298 153.081ZM115.308 157.6L116.107 158.2L116.157 158.134L116.195 158.061L115.308 157.6ZM80.3277 172.554L80.4144 171.558L78.5661 171.397L79.4478 173.029L80.3277 172.554ZM73.8521 219.881L73.018 219.33L71.9916 220.881H73.8521V219.881ZM82.2644 219.881V220.881H82.4724L82.663 220.799L82.2644 219.881ZM152.851 74.7363L153.815 74.4724L153.812 74.4602L153.808 74.4482L152.851 74.7363ZM94.5508 21.1826L94.6071 22.181L94.6146 22.1805L94.5508 21.1826ZM131.487 182.502L130.572 182.098L132.13 183.268L131.487 182.502ZM125.012 97.1774L124.233 97.805L124.268 97.8487L124.308 97.8881L125.012 97.1774ZM122.872 89.1311L121.874 89.1955L121.874 89.1955L122.872 89.1311ZM115.954 78.4985L116.186 77.526L115.585 77.3819L115.187 77.856L115.954 78.4985ZM113.995 81.7122L113.112 81.2414L113.112 81.2414L113.995 81.7122ZM105.585 86.587L106.125 85.7455L106.123 85.7443L105.585 86.587ZM93.5162 81.9895L93.2572 82.9553L93.2572 82.9553L93.5162 81.9895ZM86.158 79.7399L85.9249 78.7675L82.7894 79.5193L85.8 80.6736L86.158 79.7399ZM95.6303 79.7081L95.5436 80.7043L95.5436 80.7043L95.6303 79.7081ZM113.352 74.7551L114.226 75.2401L114.42 74.8904L114.319 74.5035L113.352 74.7551ZM108.167 67.9081L108.355 66.9259L108.075 66.8724L107.809 66.9744L108.167 67.9081ZM101.897 65.6041L100.994 66.0337L100.994 66.0337L101.897 65.6041ZM99.7548 62.3025L100.448 61.5817L100.253 61.394L99.9896 61.3305L99.7548 62.3025ZM95.6403 61.4165L95.4413 62.3965L95.4413 62.3965L95.6403 61.4165ZM77.7261 51.7121L77.2915 50.8115L76.3918 51.2457L76.825 52.1458L77.7261 51.7121ZM86.6967 56.2752L85.9309 56.9183L85.9309 56.9183L86.6967 56.2752ZM90.0316 59.8007L89.406 60.5808L89.8542 60.9404L90.3906 60.7341L90.0316 59.8007ZM91.8981 55.5736L92.8948 55.4921L92.8948 55.4921L91.8981 55.5736ZM91.9685 52.9536L92.9363 53.2053L93.0917 52.6074L92.6267 52.2008L91.9685 52.9536ZM68.6485 36.137L67.7987 35.6099L67.2483 36.4972L68.1587 37.0088L68.6485 36.137ZM64.6032 1.22441C68.9115 6.91448 69.497 13.996 70.0022 20.3716L71.996 20.2136C71.4982 13.9319 70.9135 6.24536 66.1977 0.0171014L64.6032 1.22441ZM80.2663 -0.999134L65.3588 -0.378381L65.442 1.61989L80.3495 0.999134L80.2663 -0.999134ZM102.343 11.7809C95.507 6.64768 89.8178 2.37008 80.6475 -0.940582L79.9684 0.940582C88.8296 4.13965 94.3089 8.24909 101.142 13.3802L102.343 11.7809ZM105.514 14.1507C104.42 13.3406 103.369 12.5513 102.343 11.7809L101.142 13.3802C102.167 14.1501 103.223 14.9434 104.324 15.7582L105.514 14.1507ZM71.8061 23.8606C81.4026 17.1028 92.7606 12.9009 104.673 15.9237L105.165 13.9852C92.4664 10.7629 80.5045 15.2891 70.6546 22.2254L71.8061 23.8606ZM70.0022 20.3716C70.0768 21.3131 70.1503 22.2402 70.2348 23.1369L72.226 22.9491C72.1431 22.07 72.0708 21.1581 71.996 20.2136L70.0022 20.3716ZM114.595 220.642C149.14 194.926 171.341 155.419 171.341 110.231H169.341C169.341 154.731 147.485 193.664 113.401 219.038L114.595 220.642ZM221.015 218.84H113.998V220.84H221.015V218.84ZM226.995 212.86C226.995 216.162 224.318 218.84 221.015 218.84V220.84C225.423 220.84 228.995 217.267 228.995 212.86H226.995ZM226.995 7.6014V212.86H228.995V7.6014H226.995ZM221.015 1.62117C224.318 1.62117 226.995 4.29861 226.995 7.6014H228.995C228.995 3.19404 225.423 -0.378835 221.015 -0.378835V1.62117ZM113.998 1.62117H221.015V-0.378835H113.998V1.62117ZM171.341 110.231C171.341 65.0675 149.145 24.9139 114.586 -0.187931L113.41 1.43026C147.48 26.1765 169.341 65.7422 169.341 110.231H171.341ZM0.967127 42.0333L0.908795 42.0174L0.381191 43.9465L0.439522 43.9625L0.967127 42.0333ZM0.703341 41.9979H0.703325V43.9979H0.703341V41.9979ZM0.703356 41.9979H0.703341V43.9979H0.703356V41.9979ZM14.2418 44.465C9.88029 44.465 5.51225 43.2766 0.967202 42.0333L0.439511 43.9625C4.93277 45.1916 9.56458 46.465 14.2418 46.465V44.465ZM21.7227 24.648C23.6171 29.4992 23.8738 33.5853 22.6205 36.8512C21.3755 40.0951 18.5627 42.7299 13.8825 44.5317L14.601 46.3982C19.6439 44.4567 22.9839 41.486 24.4877 37.5678C25.983 33.6714 25.5844 29.0389 23.5856 23.9205L21.7227 24.648ZM0.409766 10.9458C8.63312 12.762 16.1743 17.0043 21.8429 24.8689L23.4654 23.6995C17.474 15.3871 9.48163 10.9012 0.841085 8.99285L0.409766 10.9458ZM1.62543 42.982V9.96931H-0.374575V42.982H1.62543ZM0.644993 41.982H0.625425V43.982H0.644993V41.982ZM23.3 75.5976H18.7612V77.5976H23.3V75.5976ZM26.4787 72.1352L22.605 75.8785L23.9949 77.3167L27.8685 73.5734L26.4787 72.1352ZM19.729 76.3459C19.6969 76.2226 19.7355 75.828 20.2908 75.1787C20.8003 74.583 21.5825 73.9763 22.4617 73.5174C23.3467 73.0555 24.2414 72.7894 24.9636 72.7805C25.6615 72.7719 26.0807 72.9918 26.3252 73.3837L28.0219 72.3249C27.2981 71.1649 26.1008 70.7664 24.9389 70.7807C23.8013 70.7947 22.5929 71.1929 21.5363 71.7444C20.4738 72.2989 19.4756 73.0548 18.7709 73.8787C18.1122 74.649 17.5026 75.731 17.7934 76.8492L19.729 76.3459ZM8.51986 75.5785C12.6224 78.195 18.0185 79.4946 24.0514 78.8522L23.8397 76.8635C18.2127 77.4626 13.2791 76.2417 9.59532 73.8922L8.51986 75.5785ZM23.3676 68.3819C18.597 71.9923 14.4287 75.0666 9.30355 73.7661L8.81163 75.7046C15.0279 77.282 19.999 73.4394 24.5745 69.9767L23.3676 68.3819ZM43.1283 63.2479C39.0247 61.4485 35.4293 61.6814 32.1642 62.9223C28.9604 64.14 26.0761 66.332 23.3676 68.3819L24.5745 69.9767C27.3335 67.8887 29.9875 65.8893 32.8748 64.7918C35.7009 63.7177 38.7495 63.5117 42.3251 65.0796L43.1283 63.2479ZM66.7606 70.6339C57.8971 70.0265 50.2515 66.9708 43.1902 63.2776L42.2632 65.0498C49.4443 68.8056 57.3714 71.9951 66.6239 72.6292L66.7606 70.6339ZM70.8264 77.3954L67.5789 71.1691L65.8056 72.094L69.0531 78.3203L70.8264 77.3954ZM41.5622 73.2443C46.4319 72.6225 51.8298 72.0192 56.7992 72.5506C61.7554 73.0806 66.1507 74.725 69.1591 78.4828L70.7204 77.2329C67.2533 72.9022 62.258 71.123 57.0118 70.562C51.7788 70.0024 46.1623 70.6407 41.3088 71.2604L41.5622 73.2443ZM33.3921 76.5323C34.7704 75.6966 36.1308 74.8734 37.5007 74.2537C38.8682 73.6351 40.177 73.2523 41.4355 73.2523V71.2523C39.7814 71.2523 38.1775 71.7525 36.6763 72.4315C35.1776 73.1095 33.7134 73.9986 32.3553 74.822L33.3921 76.5323ZM23.3788 78.6817C24.9861 79.7875 26.7468 79.6813 28.4104 79.1203C30.0381 78.5715 31.7475 77.5293 33.3921 76.5323L32.3553 74.822C30.6526 75.8543 29.1465 76.7615 27.7713 77.2252C26.432 77.6768 25.4023 77.6463 24.5124 77.034L23.3788 78.6817ZM10.6598 90.3067C10.6598 109.705 13.9214 127.997 24.4343 143.188L26.0789 142.05C15.8934 127.332 12.6598 109.508 12.6598 90.3067H10.6598ZM52.1209 93.7264C38.2056 98.5784 22.9526 95.5525 12.1526 89.4365L11.1671 91.1768C22.3566 97.5134 38.2099 100.695 52.7794 95.6149L52.1209 93.7264ZM26.2566 129.546C26.2566 113.96 39.3564 103.003 52.9315 95.5472L51.9687 93.7942C38.3503 101.274 24.2566 112.739 24.2566 129.546H26.2566ZM26.2566 142.619V129.546H24.2566V142.619H26.2566ZM66.0939 220.565C67.3695 219.338 69.403 217.388 70.7613 215.429L69.1178 214.289C67.8937 216.055 66.0144 217.867 64.7077 219.123L66.0939 220.565ZM30.4032 220.223L65.383 220.844L65.4185 218.844L30.4386 218.223L30.4032 220.223ZM39.9918 166.848C40.8709 186.2 41.664 204.722 29.6652 218.568L31.1766 219.878C43.79 205.323 42.8599 185.912 41.9897 166.757L39.9918 166.848ZM45.7287 119.75C38.4751 133.979 39.2577 150.688 39.9918 166.848L41.9897 166.757C41.2501 150.475 40.5402 134.332 47.5106 120.658L45.7287 119.75ZM46.8859 118.064C46.5314 118.576 46.1697 119.099 45.7982 119.634L47.4411 120.774C47.8136 120.238 48.176 119.714 48.5304 119.202L46.8859 118.064ZM46.8869 118.062L46.8856 118.064L48.5307 119.202L48.532 119.2L46.8869 118.062ZM46.8873 118.062L46.8856 118.064L48.5332 119.198L48.535 119.195L46.8873 118.062ZM46.8939 118.052L46.8887 118.06L48.5336 119.198L48.5387 119.19L46.8939 118.052ZM62.1253 99.5628C54.8456 106.562 51.4839 111.42 46.894 118.052L48.5386 119.19C53.1107 112.584 56.3807 107.861 63.5115 101.004L62.1253 99.5628ZM64.157 100.184L63.5114 99.5628L62.1253 101.004L62.7709 101.625L64.157 100.184ZM47.6143 132.76C48.8704 120.645 55.7902 111.507 64.2269 101.551L62.701 100.258C54.2738 110.203 46.9512 119.763 45.625 132.554L47.6143 132.76ZM63.3365 166.152C55.1556 155.604 47.1023 145.15 47.6188 132.698L45.6205 132.615C45.0682 145.931 53.6916 156.979 61.7561 167.377L63.3365 166.152ZM70.7205 215.484C78.4973 205.758 79.6186 197.108 77.2094 188.97C74.8373 180.958 69.0564 173.527 63.3365 166.152L61.7561 167.377C67.5405 174.835 73.0475 181.958 75.2916 189.538C77.4986 196.993 76.5644 204.973 69.1585 214.234L70.7205 215.484ZM-0.403577 212.91C-0.372443 217.295 3.1912 220.834 7.57645 220.834V218.834C4.29023 218.834 1.6197 216.182 1.59637 212.896L-0.403577 212.91ZM-0.999975 128.91L-0.403577 212.91L1.59637 212.896L0.999975 128.896L-0.999975 128.91ZM12.1546 142.977C8.23483 138.12 4.32197 133.271 0.815836 128.325L-0.815836 129.482C2.73263 134.488 6.68573 139.385 10.5982 144.233L12.1546 142.977ZM25.4068 216.075C36.4582 201.558 37.6378 188.72 33.7116 176.725C29.8252 164.852 20.9488 153.874 12.1546 142.977L10.5982 144.233C19.4563 155.209 28.061 165.892 31.8108 177.347C35.5208 188.681 34.4918 200.839 23.8154 214.864L25.4068 216.075ZM20.7655 220.555L25.3042 216.19L23.918 214.749L19.3793 219.113L20.7655 220.555ZM7.57645 220.834H20.0724V218.834H7.57645V220.834ZM4.38917 1.62117H54.4069V-0.378835H4.38917V1.62117ZM1.64587 4.36446C1.64587 2.84938 2.87409 1.62117 4.38917 1.62117V-0.378835C1.76952 -0.378835 -0.354125 1.74481 -0.354125 4.36446H1.64587ZM16.5819 7.80469C11.996 5.90411 6.07275 4.0071 0.76476 3.37155L0.52699 5.35736C5.58776 5.96331 11.3245 7.79076 15.8161 9.6523L16.5819 7.80469ZM35.3292 37.4802C36.6801 24.4522 27.8609 14.1722 16.6911 7.85796L15.7069 9.59904C26.5658 15.7375 34.5714 25.3967 33.3399 37.2739L35.3292 37.4802ZM58.197 33.8994L34.2315 36.3824L34.4376 38.3717L58.4031 35.8887L58.197 33.8994ZM58.7046 9.83057C60.2033 12.7039 60.7015 17.0002 60.3837 21.5966C60.0678 26.1667 58.956 30.8782 57.383 34.4953L59.2171 35.2928C60.8917 31.4421 62.0493 26.5038 62.379 21.7345C62.7068 16.9914 62.2268 12.2586 60.4779 8.90565L58.7046 9.83057ZM53.7102 1.33852C55.5108 3.08725 57.3747 6.04569 58.647 9.69712L60.5356 9.0391C59.1863 5.16629 57.1767 1.9172 55.1036 -0.0961897L53.7102 1.33852ZM112.327 117.462L114.264 112.478L112.399 111.753L110.463 116.738L112.327 117.462ZM107.889 111.257L110.471 117.483L112.318 116.717L109.736 110.491L107.889 111.257ZM94.8122 120.683C97.8152 114.891 103.225 113.086 109.021 111.852L108.604 109.896C102.74 111.145 96.4896 113.102 93.0366 119.763L94.8122 120.683ZM94.7421 122.646C94.7099 121.702 94.701 121.036 94.8693 120.55L92.9796 119.895C92.6643 120.805 92.715 121.886 92.7433 122.714L94.7421 122.646ZM93.1729 127.291C94.0731 126.714 94.4739 125.863 94.6418 125.025C94.8012 124.228 94.7664 123.357 94.7421 122.646L92.7433 122.714C92.7695 123.483 92.7857 124.108 92.6807 124.632C92.5841 125.114 92.4049 125.408 92.0935 125.607L93.1729 127.291ZM89.4672 118.808C89.2866 120.457 89.0695 122.37 89.3159 123.932C89.4415 124.728 89.6993 125.526 90.2179 126.174C90.7566 126.848 91.5143 127.283 92.4757 127.437L92.7907 125.462C92.2794 125.38 91.9828 125.179 91.7802 124.926C91.5575 124.647 91.3869 124.225 91.2914 123.62C91.0956 122.379 91.2652 120.762 91.4553 119.026L89.4672 118.808ZM89.4612 118.917V118.917H91.4612V118.917H89.4612ZM89.6964 115.859C89.6964 116.704 89.5881 117.704 89.4672 118.808L91.4553 119.026C91.5728 117.953 91.6964 116.836 91.6964 115.859H89.6964ZM112.714 105.116C111.225 103.895 109.221 103.841 107.242 104.286C105.24 104.737 103.035 105.745 100.891 106.973C96.5956 109.434 92.3198 112.911 90.0033 115.138L91.3895 116.58C93.6117 114.443 97.7581 111.073 101.885 108.709C103.952 107.524 105.959 106.625 107.681 106.238C109.428 105.845 110.664 106.022 111.445 106.662L112.714 105.116ZM114.3 112.365C114.664 110.955 114.662 109.4 114.397 108.098C114.264 107.445 114.058 106.821 113.773 106.295C113.495 105.783 113.093 105.276 112.524 104.993L111.635 106.785C111.692 106.813 111.84 106.927 112.015 107.249C112.183 107.558 112.333 107.983 112.437 108.496C112.647 109.527 112.645 110.774 112.363 111.866L114.3 112.365ZM84.3722 149.047C84.1536 151.673 83.7701 155.402 86.8219 157.736L88.0366 156.147C85.9914 154.583 86.1251 152.098 86.3654 149.212L84.3722 149.047ZM84.4925 146.972C84.4925 147.594 84.436 148.281 84.3722 149.047L86.3654 149.212C86.4275 148.466 86.4925 147.693 86.4925 146.972H84.4925ZM86.7361 144.388L84.7994 146.251L86.1856 147.692L88.1224 145.83L86.7361 144.388ZM97.1167 146.018C96.0483 146.583 95.0509 147.109 94.1064 147.502C93.1576 147.897 92.3421 148.122 91.6446 148.136C90.9824 148.15 90.4247 147.975 89.921 147.531C89.3901 147.064 88.8468 146.232 88.3801 144.8L86.4784 145.419C87.0068 147.041 87.701 148.241 88.599 149.032C89.5242 149.847 90.5868 150.158 91.6851 150.136C92.7483 150.115 93.8336 149.782 94.875 149.349C95.9205 148.914 97.0024 148.341 98.0516 147.786L97.1167 146.018ZM105.753 143.506C104.248 143.218 102.724 143.529 101.298 144.044C99.8728 144.559 98.4409 145.318 97.1167 146.018L98.0516 147.786C99.4031 147.071 100.708 146.383 101.977 145.925C103.246 145.467 104.374 145.279 105.377 145.471L105.753 143.506ZM107.142 141.136C106.671 142.288 106.283 143.143 105.208 143.554L105.922 145.423C107.895 144.668 108.548 142.982 108.993 141.894L107.142 141.136ZM110.937 138.522C109.823 138.309 108.925 138.536 108.254 139.2C107.688 139.759 107.377 140.562 107.142 141.136L108.993 141.894C109.276 141.202 109.445 140.835 109.66 140.622C109.768 140.515 109.952 140.369 110.561 140.486L110.937 138.522ZM97.6892 154.89C99.8002 154.449 101.961 153.999 103.936 153.401C105.907 152.803 107.766 152.037 109.254 150.927C110.764 149.801 111.896 148.317 112.371 146.33C112.839 144.367 112.64 142.017 111.698 139.188L109.8 139.82C110.67 142.432 110.779 144.383 110.425 145.865C110.077 147.324 109.258 148.429 108.059 149.323C106.839 150.233 105.232 150.918 103.355 151.487C101.481 152.055 99.411 152.487 97.2807 152.932L97.6892 154.89ZM87.9114 157.817C90.4812 156.403 93.987 155.662 97.6892 154.89L97.2807 152.932C93.6701 153.685 89.8341 154.476 86.9471 156.065L87.9114 157.817ZM118.503 102.881C133.667 116.874 135.648 138.224 133.077 158.698L135.061 158.947C137.655 138.301 135.762 116.086 119.859 101.411L118.503 102.881ZM115.701 103.074C116.973 103.004 118.06 102.95 118.993 103.128L119.369 101.164C118.148 100.93 116.8 101.011 115.59 101.077L115.701 103.074ZM108.046 100.926C110.158 103.445 113.317 103.206 115.701 103.074L115.59 101.077C112.975 101.222 110.944 101.27 109.579 99.6412L108.046 100.926ZM98.8448 108.067C102.437 106.035 106.155 103.935 109.471 101.036L108.154 99.5308C105.017 102.274 101.479 104.279 97.86 106.327L98.8448 108.067ZM86.8656 116.545C90.2873 112.917 94.4726 110.541 98.8448 108.067L97.86 106.327C93.5271 108.778 89.0723 111.29 85.4106 115.173L86.8656 116.545ZM71.5656 115.006C76.2652 116.512 81.3072 118.156 86.3911 116.826L85.8851 114.891C81.4613 116.048 76.9956 114.646 72.1758 113.102L71.5656 115.006ZM71.5544 115.002L71.5545 115.003L72.1869 113.105L72.1869 113.105L71.5544 115.002ZM64.5811 113.1C66.8765 113.505 69.1828 114.243 71.5655 115.006L72.1758 113.101C69.818 112.346 67.381 111.564 64.9288 111.131L64.5811 113.1ZM63.7549 109.633V112.116H65.7549V109.633H63.7549ZM57.6059 129.616C58.1343 121.973 58.6991 114.698 65.2942 110.475L64.2157 108.79C56.6438 113.639 56.1245 122.045 55.6106 129.478L57.6059 129.616ZM56.6761 137.863C57.2182 135.247 57.4127 132.409 57.6059 129.616L55.6106 129.478C55.4154 132.302 55.2273 134.998 54.7177 137.457L56.6761 137.863ZM71.7224 153.094C64.9768 148.829 58.4251 144.627 56.6685 137.423L54.7254 137.897C56.7076 146.026 64.085 150.631 70.6536 154.785L71.7224 153.094ZM78.9958 158.06C76.7947 156.3 74.251 154.693 71.7224 153.094L70.6536 154.785C73.2032 156.397 75.6482 157.944 77.7468 159.622L78.9958 158.06ZM107.878 152.464C98.5941 155.911 89.0274 159.442 78.5209 157.852L78.2217 159.83C89.3169 161.509 99.3625 157.759 108.574 154.339L107.878 152.464ZM107.891 152.46L107.889 152.461L108.563 154.343L108.565 154.343L107.891 152.46ZM111.722 151.053C110.449 151.51 109.167 151.986 107.88 152.464L108.576 154.339C109.865 153.86 111.137 153.388 112.398 152.935L111.722 151.053ZM113.94 152.315C113.522 151.964 113.122 151.628 112.753 151.273L111.367 152.715C111.793 153.125 112.245 153.503 112.655 153.847L113.94 152.315ZM116.195 158.061C116.516 157.443 116.674 156.828 116.651 156.214C116.629 155.6 116.429 155.06 116.146 154.589C115.611 153.701 114.701 152.953 113.94 152.315L112.655 153.847C113.498 154.554 114.106 155.078 114.432 155.62C114.579 155.864 114.645 156.079 114.653 156.287C114.66 156.495 114.612 156.769 114.42 157.138L116.195 158.061ZM80.2409 173.55C94.8143 174.819 107.469 169.712 116.107 158.2L114.508 156.999C106.321 167.909 94.3648 172.772 80.4144 171.558L80.2409 173.55ZM74.6861 220.433C83.8124 206.636 89.887 188.148 81.2075 172.079L79.4478 173.029C87.5931 188.11 82.0077 205.739 73.018 219.33L74.6861 220.433ZM82.2644 218.881H73.8521V220.881H82.2644V218.881ZM133.071 158.762C131.15 190.546 107.657 207.755 81.8659 218.964L82.663 220.799C108.638 209.51 133.075 191.844 135.067 158.883L133.071 158.762ZM153.808 74.4482C150.208 62.4845 142.848 48.4898 132.69 37.7017C122.533 26.9158 109.468 19.2275 94.4871 20.1846L94.6146 22.1805C108.784 21.2753 121.308 28.5321 131.233 39.0728C141.157 49.6111 148.372 63.3244 151.893 75.0245L153.808 74.4482ZM132.13 183.268C147.632 170.242 154.64 148.905 156.999 128.019C159.36 107.11 157.088 86.4318 153.815 74.4724L151.886 75.0003C155.089 86.7046 157.346 107.127 155.012 127.795C152.675 148.484 145.764 169.199 130.844 181.737L132.13 183.268ZM124.308 97.8881C135.077 108.546 139.401 123.357 139.641 138.684C139.88 154.011 136.03 169.749 130.572 182.098L132.402 182.906C137.959 170.331 141.885 154.308 141.64 138.653C141.396 122.999 136.975 107.611 125.715 96.4666L124.308 97.8881ZM121.874 89.1955C122.058 92.0399 122.238 95.3298 124.233 97.805L125.79 96.5497C124.265 94.6577 124.064 92.0673 123.87 89.0666L121.874 89.1955ZM115.721 79.471C118.628 80.1672 120.016 81.5043 120.772 83.0951C121.576 84.7853 121.723 86.8582 121.874 89.1955L123.87 89.0666C123.725 86.824 123.578 84.3385 122.579 82.2363C121.532 80.0347 119.609 78.3455 116.186 77.526L115.721 79.471ZM114.877 82.183C115.555 80.9115 116.13 79.8439 116.72 79.1409L115.187 77.856C114.434 78.7541 113.756 80.036 113.112 81.2414L114.877 82.183ZM105.044 87.4285C106.251 88.203 107.405 88.5603 108.514 88.4966C109.627 88.4326 110.564 87.9518 111.345 87.2906C112.846 86.0202 113.956 83.9087 114.877 82.183L113.112 81.2414C112.132 83.0785 111.2 84.7933 110.053 85.764C109.51 86.2234 108.972 86.4669 108.399 86.4999C107.822 86.533 107.082 86.3598 106.125 85.7455L105.044 87.4285ZM93.2572 82.9553C97.4958 84.092 101.526 85.1809 105.046 87.4297L106.123 85.7443C102.299 83.3015 97.9616 82.1462 93.7753 81.0236L93.2572 82.9553ZM85.8 80.6736C88.2538 81.6145 90.79 82.2937 93.2572 82.9553L93.7753 81.0236C91.2911 80.3574 88.8563 79.7035 86.516 78.8062L85.8 80.6736ZM95.717 78.7118C92.2771 78.4125 88.7369 78.0932 85.9249 78.7675L86.3912 80.7123C88.8181 80.1304 91.99 80.3951 95.5436 80.7043L95.717 78.7118ZM112.477 74.2701C110.946 77.0305 108.545 78.2905 105.61 78.7936C102.62 79.3061 99.1849 79.0135 95.717 78.7118L95.5436 80.7043C98.9468 81.0004 102.655 81.3293 105.948 80.7648C109.297 80.1909 112.321 78.6756 114.226 75.2401L112.477 74.2701ZM107.979 68.8903C109.227 69.1287 110.157 69.9686 110.882 71.1549C111.612 72.3492 112.067 73.7889 112.384 75.0068L114.319 74.5035C113.99 73.2383 113.477 71.5649 112.588 70.1116C111.695 68.6504 110.355 67.3082 108.355 66.9259L107.979 68.8903ZM100.994 66.0337C101.49 67.0769 102.085 68.4117 103.3 69.1016C104.59 69.8344 106.261 69.7098 108.525 68.8418L107.809 66.9744C105.697 67.7843 104.77 67.6368 104.288 67.3626C103.729 67.0455 103.378 66.3893 102.8 65.1745L100.994 66.0337ZM99.0617 63.0233C99.9654 63.8923 100.472 64.9361 100.994 66.0337L102.8 65.1746C102.291 64.1057 101.65 62.7374 100.448 61.5817L99.0617 63.0233ZM95.4413 62.3965C96.8606 62.6847 98.228 62.9624 99.52 63.2745L99.9896 61.3305C98.6555 61.0082 97.2511 60.7232 95.8393 60.4365L95.4413 62.3965ZM76.825 52.1458C78.5778 55.7873 81.5332 57.999 84.8773 59.4701C88.1949 60.9296 91.9742 61.6926 95.4413 62.3965L95.8393 60.4365C92.3277 59.7236 88.7682 58.9968 85.6826 57.6394C82.6234 56.2936 80.1111 54.3615 78.6271 51.2784L76.825 52.1458ZM87.4625 55.6322C86.1746 54.0986 84.7511 52.3905 83.1506 51.325C82.3325 50.7803 81.4261 50.3725 80.4241 50.2478C79.411 50.1218 78.3647 50.2936 77.2915 50.8115L78.1607 52.6127C78.9159 52.2483 79.5764 52.1578 80.1772 52.2325C80.789 52.3086 81.4036 52.5646 82.0422 52.9898C83.3552 53.8639 84.5885 55.3198 85.9309 56.9183L87.4625 55.6322ZM90.6573 59.0206C89.6024 58.1746 88.5787 56.9614 87.4625 55.6322L85.9309 56.9183C87.0119 58.2057 88.1667 59.5869 89.406 60.5808L90.6573 59.0206ZM90.9015 55.6552C90.977 56.5783 91.0172 57.2284 90.8635 57.7505C90.7434 58.1588 90.4834 58.5556 89.6727 58.8674L90.3906 60.7341C91.7249 60.2209 92.4696 59.3774 92.7822 58.3151C93.0613 57.3665 92.9622 56.3155 92.8948 55.4921L90.9015 55.6552ZM91.0006 52.702C90.7337 53.7285 90.8322 54.8095 90.9015 55.6552L92.8948 55.4921C92.8196 54.5741 92.77 53.8449 92.9363 53.2053L91.0006 52.702ZM68.1587 37.0088C75.8516 41.3313 84.2274 47.5137 91.3102 53.7065L92.6267 52.2008C85.4671 45.9409 76.9791 39.6707 69.1384 35.2651L68.1587 37.0088ZM94.4946 20.1841C88.7739 20.5066 83.105 22.7608 78.3924 25.7023C73.6873 28.6392 69.8377 32.3226 67.7987 35.6099L69.4983 36.6641C71.333 33.7061 74.9273 30.2228 79.4514 27.3989C83.968 24.5797 89.3135 22.4793 94.6071 22.181L94.4946 20.1841Z" fill="white" fill-opacity="0.02" mask="url(#path-1-inside-1_1418_34529)"/>
</svg>
