<svg width="139" height="207" viewBox="0 0 139 207" fill="none" xmlns="http://www.w3.org/2000/svg">
<mask id="path-1-inside-1_1418_34528" fill="white">
<path d="M61.6281 153.753C58.0602 152.35 55.6275 150.167 55.6275 147.516C55.6275 145.021 58.0602 142.682 61.466 141.278C62.4391 140.966 63.4121 140.655 64.5474 140.343C64.8717 140.343 65.0339 140.187 65.3583 140.187C66.538 139.998 67.7305 139.894 68.9262 139.875V139.875C70.1219 139.894 71.3144 139.998 72.4941 140.187C72.8185 140.187 72.9807 140.343 73.305 140.343C78.4948 141.434 82.2249 144.241 82.2249 147.36C82.2249 150.634 78.3326 153.441 73.1428 154.377C72.8185 154.377 72.6563 154.533 72.3319 154.533C71.2058 154.714 70.0677 154.818 68.9262 154.845V154.845C67.7847 154.818 66.6466 154.714 65.5204 154.533C65.196 154.533 65.0339 154.377 64.7095 154.377C63.6534 154.336 62.6119 154.125 61.6281 153.753V153.753ZM56.2762 116.64C58.8806 122.82 60.5201 129.336 61.1416 135.976C63.6582 135.211 66.2871 134.842 68.9262 134.885C71.5596 134.919 74.1769 135.286 76.7108 135.976C77.2542 129.324 78.8966 122.796 81.5762 116.64C77.4611 117.766 73.2047 118.343 68.9262 118.356C64.6486 118.332 60.3937 117.755 56.2762 116.64V116.64ZM68.9262 113.21C89.3608 113.21 107.849 98.084 120.499 74.0698H120.824C121.31 73.1342 121.797 72.0426 122.283 71.107H15.5692C16.0558 72.0426 16.5423 73.1342 17.0288 74.0698H17.3532C30.0032 97.928 48.4917 113.21 68.9262 113.21V113.21ZM137.366 12.7868C137.69 8.5765 137.852 4.36621 138.015 0H0.162213C0.162213 4.36622 0.48657 8.5765 0.810923 12.7868H137.366ZM99.0916 34.1501C96.8119 34.1501 94.6256 35.0208 93.0136 36.5707C91.4016 38.1206 90.4961 40.2228 90.4961 42.4147C90.4961 44.6066 91.4016 46.7087 93.0136 48.2587C94.6256 49.8086 96.8119 50.6793 99.0916 50.6793V50.6793C101.371 50.6793 103.558 49.8086 105.169 48.2587C106.781 46.7087 107.687 44.6066 107.687 42.4147C107.687 40.2228 106.781 38.1206 105.169 36.5707C103.558 35.0208 101.371 34.1501 99.0916 34.1501V34.1501ZM17.191 42.4147C17.1761 40.2272 16.2657 38.1334 14.657 36.5866C13.0482 35.0397 10.8706 34.1644 8.59553 34.1501V34.1501C8.05012 34.1319 7.50464 34.1843 6.97377 34.306C6.88571 34.2955 6.79633 34.3041 6.71215 34.3311C6.62798 34.358 6.55113 34.4028 6.48722 34.4619C6.16287 34.6179 5.83851 34.6179 5.51414 34.7738C5.35195 34.7738 5.18979 34.9297 5.02759 34.9297C4.66813 35.0819 4.33888 35.293 4.05452 35.5535C3.89232 35.5535 3.89233 35.7094 3.73016 35.7094C2.58304 36.4829 1.64562 37.5096 0.996565 38.7035C0.347514 39.8973 0.00577558 41.2235 3.18626e-05 42.5706C-0.00573681 44.5916 0.771988 46.5421 2.18139 48.0414C3.59079 49.5407 5.53071 50.4812 7.62248 50.6793C7.94684 50.6793 8.27119 50.8353 8.59557 50.8353C10.8871 50.7856 13.0678 49.8777 14.6734 48.3048C16.2789 46.732 17.1822 44.6185 17.191 42.4147V42.4147ZM76.3865 159.055C73.9634 159.745 71.4532 160.113 68.9262 160.147C66.3932 160.19 63.8709 159.821 61.466 159.055C60.0064 171.686 49.3025 183.225 28.8679 193.985H108.984C88.5499 183.381 77.8461 171.842 76.3865 159.055V159.055ZM121.472 199.287H16.5424C15.5101 199.287 14.52 199.681 13.7901 200.383C13.0601 201.085 12.6501 202.036 12.6501 203.029C12.6501 204.022 13.0601 204.974 13.7901 205.675C14.52 206.377 15.5101 206.771 16.5424 206.771H121.472C122.499 206.741 123.478 206.353 124.229 205.68C124.957 204.975 125.365 204.022 125.365 203.029C125.333 202.042 124.93 201.1 124.229 200.378C123.87 200.027 123.441 199.749 122.967 199.561C122.493 199.374 121.985 199.28 121.472 199.287V199.287ZM68.9262 34.1501C66.6465 34.1501 64.4602 35.0208 62.8483 36.5707C61.2363 38.1206 60.3307 40.2228 60.3307 42.4147C60.3307 44.6066 61.2363 46.7087 62.8483 48.2587C64.4602 49.8086 66.6465 50.6793 68.9262 50.6793V50.6793C71.2059 50.6793 73.3922 49.8086 75.0042 48.2587C76.6161 46.7087 77.5217 44.6066 77.5217 42.4147C77.5217 40.2228 76.6161 38.1206 75.0042 36.5707C73.3922 35.0208 71.2059 34.1501 68.9262 34.1501V34.1501ZM133.798 35.5535L132.825 35.0857C132.663 35.0857 132.5 34.9298 132.338 34.9298C132.014 34.7738 131.69 34.7738 131.365 34.6179C131.203 34.6179 131.041 34.4619 130.879 34.4619C130.351 34.325 129.803 34.2723 129.257 34.306V34.306C126.979 34.308 124.794 35.1797 123.184 36.7294C121.574 38.2791 120.669 40.3801 120.669 42.5706C120.669 44.7612 121.574 46.8622 123.184 48.4119C124.794 49.9616 126.979 50.8332 129.257 50.8353V50.8353C131.532 50.8209 133.71 49.9456 135.318 48.3988C136.927 46.8519 137.837 44.7581 137.852 42.5706C137.88 41.1612 137.519 39.7698 136.807 38.5374C136.095 37.3051 135.057 36.2757 133.798 35.5535V35.5535ZM128.608 55.8252C127.507 59.2197 126.208 62.5516 124.716 65.8051H13.1366C11.677 62.5304 10.3795 59.2558 9.24427 55.8252C11.3045 55.7383 13.3191 55.2135 15.1432 54.2885C16.9672 53.3634 18.5553 52.0611 19.7932 50.4753C21.0312 48.8895 21.8882 47.0595 22.3026 45.1172C22.717 43.1748 22.6785 41.1682 22.1898 39.2418C21.7011 37.3155 20.7745 35.5172 19.4765 33.9764C18.1786 32.4356 16.5415 31.1905 14.6832 30.3308C12.8249 29.4711 10.7916 29.0181 8.7294 29.0044C6.66723 28.9907 4.62755 29.4167 2.75708 30.2517C2.10837 26.1973 1.45964 22.143 0.973099 17.9327H136.717C136.231 22.143 135.744 26.1973 134.933 30.2517C132.81 29.3025 130.472 28.8837 128.136 29.034C125.8 29.1843 123.541 29.8988 121.568 31.1115C119.595 32.3242 117.973 33.9958 116.85 35.9715C115.728 37.9473 115.142 40.1634 115.147 42.4147C115.203 45.8749 116.624 49.1855 119.124 51.6756C121.623 54.1657 125.014 55.6491 128.608 55.8252V55.8252ZM52.7083 42.4147C52.7083 39.7623 51.8903 37.1696 50.3577 34.9642C48.8251 32.7589 46.6469 31.04 44.0983 30.025C41.5497 29.01 38.7454 28.7444 36.0398 29.2619C33.3343 29.7793 30.8491 31.0565 28.8985 32.932C26.948 34.8075 25.6196 37.1971 25.0814 39.7984C24.5433 42.3998 24.8195 45.0962 25.8751 47.5467C26.9308 49.9971 28.7184 52.0916 31.0121 53.5652C33.3057 55.0387 36.0023 55.8252 38.7609 55.8252C40.6 55.8516 42.426 55.5227 44.1306 54.8581C45.8351 54.1935 47.3836 53.2067 48.6843 51.9561C49.9849 50.7055 51.0112 49.2167 51.7024 47.5777C52.3937 45.9388 52.7357 44.1831 52.7083 42.4147V42.4147ZM82.8736 42.4147C82.8736 39.7623 82.0556 37.1696 80.5231 34.9642C78.9905 32.7589 76.8122 31.04 74.2637 30.025C71.7151 29.01 68.9107 28.7444 66.2052 29.2618C63.4997 29.7793 61.0145 31.0565 59.0639 32.932C57.1133 34.8075 55.7849 37.197 55.2468 39.7984C54.7086 42.3998 54.9848 45.0962 56.0405 47.5467C57.0961 49.9971 58.8838 52.0916 61.1774 53.5652C63.4711 55.0387 66.1677 55.8252 68.9262 55.8252C70.7578 55.8253 72.5716 55.4785 74.2638 54.8046C75.956 54.1307 77.4936 53.1429 78.7888 51.8976C80.084 50.6523 81.1113 49.1739 81.8122 47.5468C82.5131 45.9197 82.8738 44.1758 82.8736 42.4147V42.4147ZM113.039 42.4147C113.039 39.7623 112.221 37.1696 110.688 34.9642C109.156 32.7589 106.978 31.04 104.429 30.025C101.88 29.01 99.0761 28.7444 96.3705 29.2619C93.665 29.7793 91.1798 31.0565 89.2292 32.932C87.2787 34.8075 85.9503 37.1971 85.4121 39.7984C84.874 42.3998 85.1502 45.0962 86.2058 47.5467C87.2615 49.9971 89.0491 52.0916 91.3428 53.5652C93.6364 55.0387 96.333 55.8252 99.0916 55.8252C100.923 55.8253 102.737 55.4785 104.429 54.8046C106.121 54.1307 107.659 53.1429 108.954 51.8976C110.249 50.6523 111.277 49.1739 111.978 47.5468C112.678 45.9197 113.039 44.1758 113.039 42.4147V42.4147ZM38.7609 34.1501C36.4812 34.1501 34.2949 35.0208 32.6829 36.5707C31.071 38.1206 30.1654 40.2228 30.1654 42.4147C30.1654 44.6066 31.071 46.7087 32.6829 48.2587C34.2949 49.8086 36.4812 50.6793 38.7609 50.6793V50.6793C41.0405 50.6793 43.2268 49.8086 44.8388 48.2587C46.4508 46.7087 47.3564 44.6066 47.3564 42.4147C47.3564 40.2228 46.4508 38.1206 44.8388 36.5707C43.2268 35.0208 41.0405 34.1501 38.7609 34.1501V34.1501Z"/>
</mask>
<path d="M61.6281 153.753C58.0602 152.35 55.6275 150.167 55.6275 147.516C55.6275 145.021 58.0602 142.682 61.466 141.278C62.4391 140.966 63.4121 140.655 64.5474 140.343C64.8717 140.343 65.0339 140.187 65.3583 140.187C66.538 139.998 67.7305 139.894 68.9262 139.875V139.875C70.1219 139.894 71.3144 139.998 72.4941 140.187C72.8185 140.187 72.9807 140.343 73.305 140.343C78.4948 141.434 82.2249 144.241 82.2249 147.36C82.2249 150.634 78.3326 153.441 73.1428 154.377C72.8185 154.377 72.6563 154.533 72.3319 154.533C71.2058 154.714 70.0677 154.818 68.9262 154.845V154.845C67.7847 154.818 66.6466 154.714 65.5204 154.533C65.196 154.533 65.0339 154.377 64.7095 154.377C63.6534 154.336 62.6119 154.125 61.6281 153.753V153.753ZM56.2762 116.64C58.8806 122.82 60.5201 129.336 61.1416 135.976C63.6582 135.211 66.2871 134.842 68.9262 134.885C71.5596 134.919 74.1769 135.286 76.7108 135.976C77.2542 129.324 78.8966 122.796 81.5762 116.64C77.4611 117.766 73.2047 118.343 68.9262 118.356C64.6486 118.332 60.3937 117.755 56.2762 116.64V116.64ZM68.9262 113.21C89.3608 113.21 107.849 98.084 120.499 74.0698H120.824C121.31 73.1342 121.797 72.0426 122.283 71.107H15.5692C16.0558 72.0426 16.5423 73.1342 17.0288 74.0698H17.3532C30.0032 97.928 48.4917 113.21 68.9262 113.21V113.21ZM137.366 12.7868C137.69 8.5765 137.852 4.36621 138.015 0H0.162213C0.162213 4.36622 0.48657 8.5765 0.810923 12.7868H137.366ZM99.0916 34.1501C96.8119 34.1501 94.6256 35.0208 93.0136 36.5707C91.4016 38.1206 90.4961 40.2228 90.4961 42.4147C90.4961 44.6066 91.4016 46.7087 93.0136 48.2587C94.6256 49.8086 96.8119 50.6793 99.0916 50.6793V50.6793C101.371 50.6793 103.558 49.8086 105.169 48.2587C106.781 46.7087 107.687 44.6066 107.687 42.4147C107.687 40.2228 106.781 38.1206 105.169 36.5707C103.558 35.0208 101.371 34.1501 99.0916 34.1501V34.1501ZM17.191 42.4147C17.1761 40.2272 16.2657 38.1334 14.657 36.5866C13.0482 35.0397 10.8706 34.1644 8.59553 34.1501V34.1501C8.05012 34.1319 7.50464 34.1843 6.97377 34.306C6.88571 34.2955 6.79633 34.3041 6.71215 34.3311C6.62798 34.358 6.55113 34.4028 6.48722 34.4619C6.16287 34.6179 5.83851 34.6179 5.51414 34.7738C5.35195 34.7738 5.18979 34.9297 5.02759 34.9297C4.66813 35.0819 4.33888 35.293 4.05452 35.5535C3.89232 35.5535 3.89233 35.7094 3.73016 35.7094C2.58304 36.4829 1.64562 37.5096 0.996565 38.7035C0.347514 39.8973 0.00577558 41.2235 3.18626e-05 42.5706C-0.00573681 44.5916 0.771988 46.5421 2.18139 48.0414C3.59079 49.5407 5.53071 50.4812 7.62248 50.6793C7.94684 50.6793 8.27119 50.8353 8.59557 50.8353C10.8871 50.7856 13.0678 49.8777 14.6734 48.3048C16.2789 46.732 17.1822 44.6185 17.191 42.4147V42.4147ZM76.3865 159.055C73.9634 159.745 71.4532 160.113 68.9262 160.147C66.3932 160.19 63.8709 159.821 61.466 159.055C60.0064 171.686 49.3025 183.225 28.8679 193.985H108.984C88.5499 183.381 77.8461 171.842 76.3865 159.055V159.055ZM121.472 199.287H16.5424C15.5101 199.287 14.52 199.681 13.7901 200.383C13.0601 201.085 12.6501 202.036 12.6501 203.029C12.6501 204.022 13.0601 204.974 13.7901 205.675C14.52 206.377 15.5101 206.771 16.5424 206.771H121.472C122.499 206.741 123.478 206.353 124.229 205.68C124.957 204.975 125.365 204.022 125.365 203.029C125.333 202.042 124.93 201.1 124.229 200.378C123.87 200.027 123.441 199.749 122.967 199.561C122.493 199.374 121.985 199.28 121.472 199.287V199.287ZM68.9262 34.1501C66.6465 34.1501 64.4602 35.0208 62.8483 36.5707C61.2363 38.1206 60.3307 40.2228 60.3307 42.4147C60.3307 44.6066 61.2363 46.7087 62.8483 48.2587C64.4602 49.8086 66.6465 50.6793 68.9262 50.6793V50.6793C71.2059 50.6793 73.3922 49.8086 75.0042 48.2587C76.6161 46.7087 77.5217 44.6066 77.5217 42.4147C77.5217 40.2228 76.6161 38.1206 75.0042 36.5707C73.3922 35.0208 71.2059 34.1501 68.9262 34.1501V34.1501ZM133.798 35.5535L132.825 35.0857C132.663 35.0857 132.5 34.9298 132.338 34.9298C132.014 34.7738 131.69 34.7738 131.365 34.6179C131.203 34.6179 131.041 34.4619 130.879 34.4619C130.351 34.325 129.803 34.2723 129.257 34.306V34.306C126.979 34.308 124.794 35.1797 123.184 36.7294C121.574 38.2791 120.669 40.3801 120.669 42.5706C120.669 44.7612 121.574 46.8622 123.184 48.4119C124.794 49.9616 126.979 50.8332 129.257 50.8353V50.8353C131.532 50.8209 133.71 49.9456 135.318 48.3988C136.927 46.8519 137.837 44.7581 137.852 42.5706C137.88 41.1612 137.519 39.7698 136.807 38.5374C136.095 37.3051 135.057 36.2757 133.798 35.5535V35.5535ZM128.608 55.8252C127.507 59.2197 126.208 62.5516 124.716 65.8051H13.1366C11.677 62.5304 10.3795 59.2558 9.24427 55.8252C11.3045 55.7383 13.3191 55.2135 15.1432 54.2885C16.9672 53.3634 18.5553 52.0611 19.7932 50.4753C21.0312 48.8895 21.8882 47.0595 22.3026 45.1172C22.717 43.1748 22.6785 41.1682 22.1898 39.2418C21.7011 37.3155 20.7745 35.5172 19.4765 33.9764C18.1786 32.4356 16.5415 31.1905 14.6832 30.3308C12.8249 29.4711 10.7916 29.0181 8.7294 29.0044C6.66723 28.9907 4.62755 29.4167 2.75708 30.2517C2.10837 26.1973 1.45964 22.143 0.973099 17.9327H136.717C136.231 22.143 135.744 26.1973 134.933 30.2517C132.81 29.3025 130.472 28.8837 128.136 29.034C125.8 29.1843 123.541 29.8988 121.568 31.1115C119.595 32.3242 117.973 33.9958 116.85 35.9715C115.728 37.9473 115.142 40.1634 115.147 42.4147C115.203 45.8749 116.624 49.1855 119.124 51.6756C121.623 54.1657 125.014 55.6491 128.608 55.8252V55.8252ZM52.7083 42.4147C52.7083 39.7623 51.8903 37.1696 50.3577 34.9642C48.8251 32.7589 46.6469 31.04 44.0983 30.025C41.5497 29.01 38.7454 28.7444 36.0398 29.2619C33.3343 29.7793 30.8491 31.0565 28.8985 32.932C26.948 34.8075 25.6196 37.1971 25.0814 39.7984C24.5433 42.3998 24.8195 45.0962 25.8751 47.5467C26.9308 49.9971 28.7184 52.0916 31.0121 53.5652C33.3057 55.0387 36.0023 55.8252 38.7609 55.8252C40.6 55.8516 42.426 55.5227 44.1306 54.8581C45.8351 54.1935 47.3836 53.2067 48.6843 51.9561C49.9849 50.7055 51.0112 49.2167 51.7024 47.5777C52.3937 45.9388 52.7357 44.1831 52.7083 42.4147V42.4147ZM82.8736 42.4147C82.8736 39.7623 82.0556 37.1696 80.5231 34.9642C78.9905 32.7589 76.8122 31.04 74.2637 30.025C71.7151 29.01 68.9107 28.7444 66.2052 29.2618C63.4997 29.7793 61.0145 31.0565 59.0639 32.932C57.1133 34.8075 55.7849 37.197 55.2468 39.7984C54.7086 42.3998 54.9848 45.0962 56.0405 47.5467C57.0961 49.9971 58.8838 52.0916 61.1774 53.5652C63.4711 55.0387 66.1677 55.8252 68.9262 55.8252C70.7578 55.8253 72.5716 55.4785 74.2638 54.8046C75.956 54.1307 77.4936 53.1429 78.7888 51.8976C80.084 50.6523 81.1113 49.1739 81.8122 47.5468C82.5131 45.9197 82.8738 44.1758 82.8736 42.4147V42.4147ZM113.039 42.4147C113.039 39.7623 112.221 37.1696 110.688 34.9642C109.156 32.7589 106.978 31.04 104.429 30.025C101.88 29.01 99.0761 28.7444 96.3705 29.2619C93.665 29.7793 91.1798 31.0565 89.2292 32.932C87.2787 34.8075 85.9503 37.1971 85.4121 39.7984C84.874 42.3998 85.1502 45.0962 86.2058 47.5467C87.2615 49.9971 89.0491 52.0916 91.3428 53.5652C93.6364 55.0387 96.333 55.8252 99.0916 55.8252C100.923 55.8253 102.737 55.4785 104.429 54.8046C106.121 54.1307 107.659 53.1429 108.954 51.8976C110.249 50.6523 111.277 49.1739 111.978 47.5468C112.678 45.9197 113.039 44.1758 113.039 42.4147V42.4147ZM38.7609 34.1501C36.4812 34.1501 34.2949 35.0208 32.6829 36.5707C31.071 38.1206 30.1654 40.2228 30.1654 42.4147C30.1654 44.6066 31.071 46.7087 32.6829 48.2587C34.2949 49.8086 36.4812 50.6793 38.7609 50.6793V50.6793C41.0405 50.6793 43.2268 49.8086 44.8388 48.2587C46.4508 46.7087 47.3564 44.6066 47.3564 42.4147C47.3564 40.2228 46.4508 38.1206 44.8388 36.5707C43.2268 35.0208 41.0405 34.1501 38.7609 34.1501V34.1501Z" stroke="white" stroke-opacity="0.02" stroke-width="2" mask="url(#path-1-inside-1_1418_34528)"/>
</svg>
