<svg width="264" height="266" viewBox="0 0 264 266" fill="none" xmlns="http://www.w3.org/2000/svg">
<path d="M119.272 49.9932L119.755 49.803C119.795 49.7873 119.837 49.7701 119.882 49.7523C119.979 49.7133 120.083 49.6713 120.182 49.6353L120.705 49.4449L120.838 49.9859C121.046 50.8315 121.222 51.6732 121.381 52.5197L121.004 52.6269C123.274 62.897 122.199 73.6049 117.919 83.2642L117.658 83.8521L117.657 83.8553L117.648 83.8757L117.402 84.4307L117.395 84.4118C117.177 84.871 116.952 85.3307 116.721 85.7872C116.721 85.7872 116.721 85.7873 116.721 85.7874L116.275 85.5612C115.511 87.0695 114.666 88.5383 113.745 89.9614L119.272 49.9932ZM119.272 49.9932L119.48 50.4689L119.272 49.9932ZM74.5037 112.905C78.3564 111.435 81.668 108.875 84.0078 105.555C86.1806 102.471 87.422 98.864 87.5999 95.1409L68.7291 113.715C60.5753 113.581 52.5706 111.588 45.3602 107.901C45.3226 107.939 45.2848 107.977 45.247 108.014L44.8943 107.66L45.1264 107.217C45.1713 107.241 45.2163 107.264 45.2612 107.287C47.7052 104.756 49.5955 101.768 50.8156 98.5028C52.0961 95.0766 52.6089 91.4247 52.3198 87.7908M74.5037 112.905L74.3265 112.441L74.5041 112.905C74.504 112.905 74.5039 112.905 74.5037 112.905ZM74.5037 112.905C72.6676 113.608 70.7367 114.048 68.771 114.213L68.746 114.215L68.7209 114.215C60.3135 114.077 52.0627 111.981 44.6623 108.103L44.0584 107.786L44.5417 107.306C47.1134 104.747 49.0923 101.686 50.3473 98.3278C51.6022 94.9699 52.1046 91.3913 51.8214 87.8307M51.8214 87.8307L52.3198 87.7908M51.8214 87.8307C51.7412 86.8302 51.6024 85.1504 51.4233 84.0457M51.8214 87.8307C51.8214 87.8306 51.8214 87.8305 51.8214 87.8304L52.3198 87.7908M52.3198 87.7908C52.2287 86.6539 52.0567 84.5644 51.8289 83.4864M160.036 75.2571C150.132 68.5713 142.913 58.7636 139.607 47.4958L139.429 46.8868L140.063 46.8556C140.185 46.8496 140.305 46.838 140.443 46.8245L140.479 46.8211C140.48 46.821 140.48 46.8209 140.481 46.8208C144.473 46.3893 148.307 45.0653 151.681 42.9538C155.056 40.8419 157.879 37.9999 159.928 34.6523L159.93 34.6499C160.302 34.0493 160.648 33.4334 160.965 32.8039C157.805 30.6075 154.175 29.1257 150.342 28.4711C146.368 27.7925 142.286 28.0215 138.42 29.1398C137.626 29.371 136.833 29.6435 136.051 29.948L135.347 30.2222L135.37 29.4669C135.503 25.071 133.864 19.5085 131.109 14.4154C128.355 9.32436 124.528 4.781 120.358 2.37246C119.285 1.77767 118.178 1.2409 117.044 0.764613L163.882 77.041C168.454 78.9188 173.581 79.0925 178.277 77.5288C182.788 76.027 186.598 73.0239 189.039 69.0616C189.132 69.224 189.228 69.385 189.327 69.5445M160.036 75.2571C160.036 75.2569 160.035 75.2567 160.035 75.2565L160.317 74.8434L160.037 75.2578C160.037 75.2576 160.036 75.2574 160.036 75.2571ZM160.036 75.2571C161.199 76.0501 162.41 76.7841 163.636 77.4763L163.663 77.4916L163.692 77.5035C168.375 79.4269 173.625 79.6047 178.435 78.0032C182.971 76.493 186.819 73.4994 189.327 69.5445M189.327 69.5445C191.297 72.7469 194.149 75.3568 197.567 77.0764C201.239 78.9236 205.396 79.6592 209.501 79.1893M189.327 69.5445C189.427 69.3864 189.525 69.2267 189.621 69.0655C191.545 72.2867 194.379 74.9125 197.792 76.6297C201.38 78.4347 205.443 79.1528 209.456 78.6911M209.501 79.1893C212.765 78.9735 215.921 77.9602 218.675 76.2425L218.676 76.2415C224.911 72.322 230.217 67.1611 234.244 61.0997L234.619 60.5356L233.969 60.3435C230.444 59.301 227.189 57.5423 224.42 55.185C221.651 52.8278 219.431 49.9264 217.909 46.6742M209.501 79.1893C209.505 79.1888 209.509 79.1883 209.514 79.1879L209.456 78.6911M209.501 79.1893C209.497 79.1895 209.493 79.1898 209.489 79.1901L209.456 78.6911M217.909 46.6742C217.51 45.8136 217.161 44.9324 216.864 44.0346M217.909 46.6742L217.456 46.8862M217.909 46.6742C217.909 46.6748 217.91 46.6754 217.91 46.676L217.456 46.8862M216.864 44.0346C220.759 42.6163 224.952 42.1252 229.089 42.6061C233.383 43.1052 237.479 44.6357 241.008 47.0577L241.211 47.1969L241.445 47.1212L241.468 47.1138L241.794 47.0083L241.813 46.6659C242.07 42.0653 243.619 37.6192 246.294 33.8098C248.969 30.0011 252.668 26.9736 256.992 25.0568M216.864 44.0346C216.814 43.8852 216.766 43.7353 216.719 43.5851L216.242 43.7334M216.864 44.0346C216.716 44.0884 216.568 44.1436 216.421 44.2001L216.242 43.7334M256.992 25.0568C258.797 24.2871 260.686 23.721 262.623 23.369M256.992 25.0568C256.99 25.0573 256.99 25.0577 256.988 25.0582L256.792 24.5983M256.992 25.0568C256.993 25.0563 256.994 25.0559 256.995 25.0554L256.792 24.5983M262.623 23.369C256.904 35.5962 251.96 48.1511 247.818 60.9638M262.623 23.369C262.822 23.3328 263.022 23.2988 263.223 23.2671C257.451 35.5744 252.465 48.2153 248.294 61.1178C245.314 70.3207 242.756 79.6513 240.618 89.1095C237.65 102.263 233.329 127.645 233.329 127.645M262.623 23.369C262.709 23.1846 262.796 23.0003 262.882 22.816C260.786 23.1688 258.741 23.767 256.792 24.5983M247.818 60.9638C244.834 70.1811 242.271 79.5263 240.13 88.9993L240.13 88.9994C238.644 95.5876 236.82 105.231 235.369 113.22C234.643 117.217 234.01 120.801 233.558 123.387C233.332 124.68 233.152 125.723 233.028 126.444C232.966 126.804 232.918 127.083 232.886 127.272L232.849 127.487L232.843 127.521M247.818 60.9638L248.293 61.1174L247.818 60.964C247.818 60.9639 247.818 60.9639 247.818 60.9638ZM232.843 127.521C231.132 132.473 227.489 136.583 222.688 138.965M232.843 127.521C232.847 127.508 232.852 127.495 232.856 127.482L233.329 127.645M232.843 127.521L232.839 127.542L232.837 127.556L232.836 127.56L232.836 127.56C232.836 127.561 232.836 127.561 232.956 127.581L233.329 127.645M222.688 138.965C222.476 139.034 222.246 139.032 222.035 138.96C221.816 138.886 221.633 138.74 221.515 138.553L221.502 138.532L221.499 138.528M222.688 138.965C222.678 138.97 222.669 138.975 222.659 138.98L222.88 139.428M222.688 138.965C222.697 138.963 222.706 138.96 222.714 138.957L222.88 139.428M221.499 138.528C221.499 138.526 221.499 138.523 221.5 138.519C221.507 138.47 221.537 138.387 221.607 138.266C221.715 138.078 221.858 137.899 222.003 137.72C222.048 137.663 222.093 137.607 222.137 137.55M221.499 138.528L221.487 138.512C221.497 138.526 221.498 138.538 221.498 138.538C221.498 138.538 221.498 138.535 221.499 138.528ZM222.137 137.55C223.49 136.058 224.444 134.264 224.914 132.327C225.383 130.388 225.353 128.367 224.827 126.443M222.137 137.55C222.141 137.545 222.146 137.54 222.15 137.535L221.754 137.228M222.137 137.55C222.133 137.555 222.129 137.56 222.124 137.565L221.754 137.228M224.827 126.443C224.293 123.858 221.673 121.982 217.735 120.722C213.747 119.447 208.22 118.74 201.525 118.633C188.129 118.417 169.945 120.601 149.794 125.561L149.906 126.016L149.794 125.561C129.646 130.525 112.663 137.047 101.071 143.46C95.2785 146.664 90.8067 149.855 87.9608 152.829C85.1495 155.767 83.7938 158.638 84.6101 161.151M224.827 126.443C224.825 126.438 224.824 126.432 224.822 126.427L224.34 126.559M224.827 126.443C224.828 126.449 224.829 126.454 224.83 126.46L224.34 126.559M84.6101 161.151C85.102 163.082 86.0771 164.865 87.4476 166.342C88.8178 167.818 90.5407 168.941 92.4628 169.615M84.6101 161.151C84.6119 161.156 84.6138 161.162 84.6156 161.168L85.0906 161.011M84.6101 161.151C84.6087 161.145 84.6073 161.14 84.6059 161.134L85.0906 161.011M92.4628 169.615C92.5294 169.643 92.597 169.672 92.6646 169.7C92.8799 169.789 93.0958 169.879 93.2852 169.992C93.408 170.066 93.4792 170.127 93.5136 170.17C93.5175 170.174 93.5204 170.178 93.5226 170.182M92.4628 169.615C92.4686 169.617 92.4745 169.619 92.4804 169.621L92.645 169.149M92.4628 169.615C92.457 169.612 92.4513 169.61 92.4455 169.607L92.645 169.149M93.5226 170.182L93.522 170.193C93.5108 170.408 93.4234 170.614 93.2711 170.777C93.1242 170.934 92.9254 171.041 92.7053 171.078M93.5226 170.182C93.5292 170.191 93.529 170.193 93.5276 170.189C93.526 170.184 93.5231 170.174 93.525 170.158L93.5229 170.176L93.5226 170.182ZM92.7053 171.078C87.3061 171.232 82.0631 169.321 78.1056 165.762M92.7053 171.078C92.6969 171.08 92.6885 171.081 92.68 171.082L92.7513 171.577M92.7053 171.078C92.7156 171.078 92.7259 171.078 92.7363 171.077L92.7513 171.577M78.1056 165.762L78.0891 165.741C78.0596 165.703 78.0154 165.646 77.9568 165.57C77.8618 165.447 77.7305 165.276 77.5654 165.062L77.444 164.904C76.9981 164.325 76.3515 163.486 75.5475 162.446C73.9395 160.368 71.7016 157.491 69.1786 154.296C64.135 147.911 57.9429 140.245 53.3643 135.162L53.364 135.162C46.7836 127.874 39.8922 120.752 32.7096 114.074M78.1056 165.762C78.0958 165.753 78.0859 165.744 78.0761 165.735L77.826 165.509L77.5229 165.656C77.7616 165.612 78.0136 165.704 78.0744 165.737C78.08 165.74 78.084 165.743 78.0862 165.745C78.0951 165.753 78.1082 165.767 78.1123 165.772L78.12 165.78L78.1056 165.762ZM32.7096 114.074C22.7029 104.69 12.1171 95.9056 1.01116 87.7703M32.7096 114.074C32.7093 114.074 32.7091 114.074 32.7089 114.073L32.369 114.439L32.7104 114.075C32.7101 114.075 32.7098 114.074 32.7096 114.074ZM1.01116 87.7703C2.8857 87.0232 4.84393 86.4881 6.84707 86.1763M1.01116 87.7703C0.85302 87.6544 0.694776 87.5387 0.536425 87.4232C2.5398 86.5981 4.63981 86.0122 6.79033 85.6791M1.01116 87.7703C0.829685 87.8426 0.648993 87.9169 0.46912 87.9932C11.6491 96.1674 22.3022 104.999 32.3684 114.439C39.5385 121.106 46.4199 128.217 52.9928 135.497C61.1107 144.508 74.3374 161.689 77.1885 165.392C77.545 165.855 77.7393 166.107 77.741 166.106C81.8066 169.778 87.2007 171.743 92.7513 171.577M6.84707 86.1763C11.7899 85.8176 16.5464 87.4798 20.7195 89.7866C24.8968 92.0957 28.4488 95.0274 30.9738 97.1527L31.1133 97.2702H31.2957H31.3184H31.5419L31.6909 97.1037C33.5893 94.9834 36.4039 91.9705 39.8723 89.3505C43.2222 86.8201 47.151 84.68 51.4233 84.0457M6.84707 86.1763C6.85368 86.1752 6.86026 86.1742 6.86687 86.1732L6.79033 85.6791M6.84707 86.1763C6.8404 86.1768 6.83373 86.1773 6.82706 86.1777L6.79033 85.6791M51.4233 84.0457C51.5782 84.0227 51.7336 84.0017 51.8894 83.9827L51.8289 83.4864M51.4233 84.0457C51.3963 83.8792 51.3684 83.7258 51.3397 83.5898L51.8289 83.4864M51.8289 83.4864C42.6806 84.6012 35.1261 92.5174 31.3184 96.7702H31.2957C26.2434 92.5174 16.9584 84.9301 6.79033 85.6791M92.7513 171.577C93.092 171.528 93.4047 171.366 93.6363 171.118C93.8678 170.871 94.0039 170.553 94.0213 170.219C94.0795 169.746 93.3422 169.439 92.8314 169.227L92.78 169.206C92.7323 169.186 92.6869 169.167 92.645 169.149M92.645 169.149C90.7918 168.502 89.1322 167.421 87.8141 166.001C86.496 164.582 85.5603 162.867 85.0906 161.011M85.0906 161.011C82.1533 152.081 109.679 135.959 149.913 126.046C190.155 116.141 222.473 117.344 224.34 126.559M224.34 126.559C224.849 128.407 224.879 130.348 224.428 132.209C223.976 134.07 223.058 135.795 221.754 137.228M221.754 137.228C221.717 137.276 221.675 137.328 221.631 137.384C221.288 137.811 220.789 138.43 221.092 138.819C221.272 139.106 221.548 139.323 221.874 139.434C222.2 139.545 222.556 139.543 222.88 139.428M222.88 139.428C227.823 136.985 231.577 132.752 233.329 127.645M256.792 24.5983C252.385 26.5511 248.613 29.6373 245.885 33.5224C243.264 37.2538 241.702 41.5854 241.351 46.0818C241.426 46.1319 241.5 46.1823 241.574 46.2332L241.315 46.6101C241.315 46.6194 241.314 46.6288 241.314 46.6381L241.291 46.6454C241.287 46.6423 241.282 46.6392 241.277 46.6361L240.815 46.6103C240.82 46.5191 240.825 46.4279 240.831 46.3369C237.341 44.0468 233.335 42.5964 229.147 42.1094C224.773 41.601 220.337 42.1591 216.242 43.7334M216.242 43.7334C216.576 44.8087 216.982 45.8619 217.456 46.8862M217.456 46.8862C219.009 50.204 221.273 53.1628 224.095 55.5658C226.787 57.8571 229.929 59.593 233.329 60.6702C233.356 60.629 233.384 60.5877 233.411 60.5463L233.828 60.823L233.686 61.3025C233.636 61.2877 233.586 61.2727 233.536 61.2576C229.585 67.0716 224.436 72.03 218.41 75.8182C215.723 77.4941 212.643 78.4824 209.456 78.6911M140.595 47.3113C144.64 46.865 148.525 45.519 151.946 43.3777C155.386 41.2252 158.264 38.3279 160.355 34.9134C160.811 34.1779 161.227 33.4198 161.602 32.6421C158.3 30.2663 154.474 28.6695 150.426 27.9782C146.378 27.287 142.22 27.5202 138.281 28.6595C137.642 28.8454 137.005 29.0573 136.374 29.2904C136.373 29.3596 136.371 29.4285 136.369 29.4972L135.87 29.482L135.688 29.0161C135.751 28.9916 135.814 28.9673 135.877 28.9431C135.867 19.924 128.994 6.78014 120.604 1.93725C119.512 1.33215 118.387 0.786233 117.234 0.301999L140.595 47.3113ZM140.595 47.3113C140.586 47.279 140.576 47.2466 140.567 47.2143L140.524 47.227L140.595 47.3113ZM140.087 47.355L140.523 47.2273L140.087 47.355ZM140.087 47.355L140.112 47.8544C140.153 47.8524 140.194 47.8498 140.234 47.8469L140.087 47.355ZM154.827 229.719C156.094 230.821 157.661 231.519 159.32 231.742C159.21 231.808 159.093 231.878 158.967 231.951C157.882 232.58 156.213 233.425 153.898 234.273C149.268 235.968 142.048 237.674 131.736 237.674C121.42 237.674 114.824 236.067 110.823 234.479C108.823 233.685 107.47 232.895 106.624 232.311C106.531 232.247 106.444 232.185 106.362 232.126C106.468 232.114 106.58 232.099 106.695 232.083C107.643 231.952 108.916 231.685 110.195 231.142C111.475 230.599 112.781 229.771 113.768 228.508C114.76 227.237 115.407 225.554 115.407 223.348C115.407 219.149 115.341 199.767 115.274 181.436C115.241 172.27 115.208 163.366 115.183 156.754L115.153 148.808L115.144 146.6L115.143 146.157C136.721 137.24 159.437 131.181 182.682 128.144C182.7 128.146 182.722 128.149 182.749 128.152C182.833 128.161 182.958 128.176 183.122 128.198C183.45 128.242 183.934 128.313 184.551 128.422C185.785 128.641 187.553 129.011 189.675 129.617C193.922 130.829 199.582 132.982 205.239 136.744C216.529 144.253 227.856 158.202 227.856 184.044C227.856 209.933 218.374 230.227 202.467 244.056C186.552 257.892 164.162 265.292 138.294 265.292C112.403 265.292 92.6821 259.753 79.4512 251.309C66.2236 242.867 59.5047 231.543 59.5047 219.925C59.5047 208.237 63.8233 201.539 69.079 197.743C74.3635 193.927 80.6656 192.996 84.6814 192.996C88.6296 192.996 94.2337 194.736 98.8472 198.761C103.34 202.682 106.899 208.775 107.057 217.568C107.045 217.565 107.032 217.563 107.02 217.561C106.608 217.487 106.022 217.397 105.319 217.328C103.918 217.19 102.034 217.135 100.139 217.479C98.2448 217.822 96.3009 218.572 94.8285 220.075C93.3459 221.589 92.3938 223.814 92.3938 226.999C92.3938 233.436 96.9338 238.568 104.324 242.063C111.722 245.563 122.083 247.486 134.018 247.486C145.962 247.486 160.418 244.949 171.901 236.705C183.413 228.442 191.87 214.492 191.87 191.823C191.87 167.726 186.127 154.992 178.242 148.308C170.37 141.635 160.487 141.107 152.518 141.107H152.018V141.607V224.06V224.076L152.019 224.092C152.158 226.256 153.169 228.276 154.827 229.719Z" stroke="white" stroke-opacity="0.02"/>
</svg>
