<svg width="248" height="215" viewBox="0 0 248 215" fill="none" xmlns="http://www.w3.org/2000/svg">
<mask id="path-1-inside-1_1418_34524" fill="white">
<path fill-rule="evenodd" clip-rule="evenodd" d="M118.842 10.3687C112.521 18.1757 107.042 26.5927 102.267 35.4976C101.424 36.8394 100.019 37.8153 98.6145 37.8153C79.511 39.889 61.1099 44.1585 43.973 50.5017C45.3777 60.5044 47.7656 70.2632 50.9964 79.778C62.3741 74.7766 74.7352 70.9951 87.5176 68.4334C88.22 68.3114 88.7818 68.9214 88.6414 69.5313C85.2702 80.9978 83.1632 93.0743 82.1799 105.273C82.0394 106.981 80.9157 108.444 79.0897 109.054C75.0161 110.396 70.9426 111.982 67.15 113.812C71.364 120.643 75.9994 126.986 81.1966 133.207C81.618 133.817 82.0394 134.549 82.0394 135.403C83.3036 153.701 87.2367 171.389 93.5577 187.856C94.8219 191.272 96.2266 194.688 97.7717 197.981C98.1931 198.713 97.0694 199.445 96.2266 198.957C92.5744 196.517 88.9223 193.956 85.4106 191.272C64.7621 175.78 47.2038 157.36 33.4381 136.745C25.8529 125.644 19.5319 113.812 14.4751 101.491C10.2611 91.2446 6.8899 80.6319 4.50198 69.7753C1.83311 58.1867 0.287982 46.3542 0.00704955 34.1557C-0.133417 30.8621 1.83311 27.8125 5.20431 26.2267C17.2844 20.4934 29.9264 15.614 42.9898 11.7105C68.2737 4.14748 95.5242 0 123.758 0H125.865C126.708 0 127.129 0.853893 126.708 1.46382C124.039 4.26946 121.37 7.1971 118.842 10.3687ZM204.526 11.7157C217.73 15.7412 230.231 20.4986 242.311 26.2319C245.683 27.6957 247.649 30.7453 247.649 34.0389C247.228 46.1154 245.683 58.0699 243.154 69.6585C240.766 80.5151 237.395 91.1278 233.181 101.374C227.984 113.695 221.663 125.405 214.218 136.628C200.452 157.243 182.754 175.663 162.245 191.155C150.587 199.938 137.945 207.745 124.6 214.576C124.039 214.82 123.477 214.576 123.196 214.21C116.453 204.208 110.835 193.229 106.48 181.274C103.39 172.736 101.002 163.709 99.176 154.438C99.0356 153.584 100.159 153.096 100.862 153.706C107.885 160.049 115.47 165.782 123.617 171.15C146.935 155.902 166.459 136.262 180.506 113.817C187.248 103.082 192.727 91.7377 196.8 79.9052C200.031 70.5124 202.419 60.6316 203.824 50.6289C179.101 41.602 151.991 36.6006 123.617 36.6006H119.544C118.841 36.6006 118.42 35.9907 118.701 35.3808C126.146 22.6944 135.276 11.5938 145.53 2.4449C146.654 1.59101 148.058 1.10307 149.603 1.22505C168.707 2.93284 186.968 6.4704 204.526 11.7157Z"/>
</mask>
<path d="M102.267 35.4976L103.113 36.0294L103.132 36.0004L103.148 35.9702L102.267 35.4976ZM118.842 10.3687L119.619 10.998L119.624 10.9921L118.842 10.3687ZM98.6145 37.8153V36.8153H98.5604L98.5066 36.8211L98.6145 37.8153ZM43.973 50.5017L43.6259 49.5639L42.8708 49.8434L42.9828 50.6407L43.973 50.5017ZM50.9964 79.778L50.0495 80.0995L50.4002 81.1324L51.3988 80.6935L50.9964 79.778ZM87.5176 68.4334L87.3465 67.4482L87.3338 67.4504L87.3211 67.4529L87.5176 68.4334ZM88.6414 69.5313L89.6008 69.8133L89.6092 69.7848L89.6159 69.7557L88.6414 69.5313ZM82.1799 105.273L83.1765 105.355L83.1767 105.353L82.1799 105.273ZM79.0897 109.054L79.4025 110.004L79.4065 110.003L79.0897 109.054ZM67.15 113.812L66.7155 112.911L65.7167 113.393L66.2989 114.337L67.15 113.812ZM81.1966 133.207L82.0194 132.639L81.9934 132.601L81.9641 132.566L81.1966 133.207ZM82.0394 135.403H81.0394V135.438L81.0418 135.472L82.0394 135.403ZM93.5577 187.856L94.4956 187.509L94.4913 187.498L93.5577 187.856ZM97.7717 197.981L96.8664 198.406L96.8842 198.444L96.9051 198.48L97.7717 197.981ZM96.2266 198.957L95.6711 199.789L95.6978 199.806L95.7255 199.822L96.2266 198.957ZM85.4106 191.272L86.0179 190.477L86.0108 190.472L85.4106 191.272ZM33.4381 136.745L34.2697 136.19L34.2637 136.181L33.4381 136.745ZM14.4751 101.491L15.4002 101.112L15.3999 101.111L14.4751 101.491ZM4.50198 69.7753L5.47868 69.5604L5.47647 69.5508L4.50198 69.7753ZM0.00704955 34.1557L1.00678 34.1327L1.00656 34.1229L1.00614 34.1131L0.00704955 34.1557ZM5.20431 26.2267L5.62997 27.1316L5.63307 27.1301L5.20431 26.2267ZM42.9898 11.7105L43.2761 12.6687L43.2764 12.6686L42.9898 11.7105ZM126.708 1.46382L127.432 2.15304L127.486 2.09648L127.53 2.03225L126.708 1.46382ZM242.311 26.2319L241.883 27.1353L241.898 27.1425L241.913 27.1492L242.311 26.2319ZM204.526 11.7157L204.817 10.7592L204.812 10.7576L204.526 11.7157ZM247.649 34.0389L248.648 34.0738L248.649 34.0564V34.0389H247.649ZM243.154 69.6585L244.131 69.8733L244.131 69.8716L243.154 69.6585ZM233.181 101.374L234.102 101.763L234.106 101.755L233.181 101.374ZM214.218 136.628L215.05 137.183L215.051 137.181L214.218 136.628ZM162.245 191.155L162.847 191.954L162.848 191.953L162.245 191.155ZM124.6 214.576L124.999 215.494L125.028 215.481L125.056 215.466L124.6 214.576ZM123.196 214.21L122.367 214.769L122.384 214.795L122.403 214.819L123.196 214.21ZM106.48 181.274L105.54 181.615L105.541 181.617L106.48 181.274ZM99.176 154.438L98.1893 154.6L98.1919 154.616L98.1949 154.631L99.176 154.438ZM100.862 153.706L101.532 152.964L101.525 152.957L101.517 152.951L100.862 153.706ZM123.617 171.15L123.067 171.985L123.615 172.346L124.165 171.987L123.617 171.15ZM180.506 113.817L179.659 113.285L179.658 113.286L180.506 113.817ZM196.8 79.9052L197.746 80.2307L197.746 80.2304L196.8 79.9052ZM203.824 50.6289L204.814 50.7679L204.926 49.9669L204.167 49.6895L203.824 50.6289ZM118.701 35.3808L117.838 34.8747L117.813 34.9174L117.793 34.9624L118.701 35.3808ZM145.53 2.4449L144.925 1.64869L144.894 1.67251L144.864 1.69873L145.53 2.4449ZM149.603 1.22505L149.693 0.228973L149.682 0.228156L149.603 1.22505ZM103.148 35.9702C107.897 27.1148 113.341 18.7512 119.619 10.998L118.064 9.73944C111.7 17.6002 106.188 26.0706 101.385 35.0249L103.148 35.9702ZM98.6145 38.8153C100.466 38.8153 102.15 37.5633 103.113 36.0294L101.42 34.9657C100.698 36.1155 99.5723 36.8153 98.6145 36.8153V38.8153ZM44.3202 51.4395C61.3759 45.1263 79.6964 40.8748 98.7224 38.8094L98.5066 36.8211C79.3257 38.9032 60.8439 43.1906 43.6259 49.5639L44.3202 51.4395ZM51.9433 79.4565C48.7313 69.9969 46.3587 60.2992 44.9633 50.3626L42.9828 50.6407C44.3967 60.7096 46.8 70.5295 50.0495 80.0995L51.9433 79.4565ZM87.3211 67.4529C74.4758 70.0272 62.0448 73.829 50.594 78.8625L51.3988 80.6935C62.7035 75.7242 74.9945 71.963 87.7141 69.4139L87.3211 67.4529ZM89.6159 69.7557C89.9279 68.4008 88.704 67.2124 87.3465 67.4482L87.6888 69.4187C87.7007 69.4166 87.7004 69.4189 87.6941 69.4168C87.69 69.4154 87.6867 69.4133 87.6838 69.4104C87.6814 69.4079 87.6744 69.3999 87.669 69.3824C87.6629 69.3628 87.6603 69.3353 87.6669 69.3069L89.6159 69.7557ZM83.1767 105.353C84.1551 93.2149 86.2511 81.2068 89.6008 69.8133L87.682 69.2492C84.2893 80.7889 82.1713 92.9337 81.1831 105.192L83.1767 105.353ZM79.4065 110.003C81.5945 109.272 83.0018 107.48 83.1765 105.355L81.1833 105.191C81.0771 106.482 80.237 107.617 78.7728 108.106L79.4065 110.003ZM67.5845 114.712C71.33 112.905 75.3616 111.335 79.4025 110.004L78.7768 108.105C74.6706 109.457 70.5552 111.059 66.7155 112.911L67.5845 114.712ZM81.9641 132.566C76.7944 126.378 72.1876 120.073 68.0011 113.287L66.2989 114.337C70.5404 121.212 75.2044 127.594 80.4292 133.848L81.9641 132.566ZM83.0394 135.403C83.0394 134.224 82.4586 133.275 82.0194 132.639L80.3739 133.776C80.7774 134.36 81.0394 134.874 81.0394 135.403H83.0394ZM94.4913 187.498C88.2063 171.124 84.2945 153.534 83.0371 135.334L81.0418 135.472C82.3128 153.868 86.2671 171.653 92.6241 188.215L94.4913 187.498ZM98.677 197.556C97.1456 194.292 95.7515 190.903 94.4955 187.509L92.6199 188.204C93.8923 191.641 95.3075 195.083 96.8664 198.406L98.677 197.556ZM95.7255 199.822C96.5106 200.277 97.4044 200.158 98.0122 199.769C98.3211 199.571 98.6171 199.266 98.767 198.851C98.927 198.408 98.8896 197.919 98.6383 197.482L96.9051 198.48C96.8905 198.455 96.8706 198.407 96.8648 198.342C96.859 198.277 96.8692 198.218 96.8861 198.171C96.9175 198.084 96.9589 198.068 96.9342 198.084C96.9141 198.097 96.8755 198.112 96.8302 198.115C96.7902 198.117 96.7569 198.109 96.7276 198.092L95.7255 199.822ZM84.8034 192.067C88.3364 194.767 92.0067 197.341 95.6711 199.789L96.782 198.126C93.1422 195.694 89.5082 193.145 86.0178 190.477L84.8034 192.067ZM32.6064 137.3C46.4375 158.014 64.0753 176.515 84.8105 192.072L86.0108 190.472C65.4488 175.045 47.97 156.707 34.2697 136.19L32.6064 137.3ZM13.55 101.871C18.6325 114.254 24.9864 126.149 32.6124 137.309L34.2637 136.181C26.7193 125.14 20.4312 113.369 15.4002 101.112L13.55 101.871ZM3.52532 69.9901C5.92628 80.9059 9.31528 91.5739 13.5502 101.872L15.3999 101.111C11.2069 90.9152 7.85353 80.3578 5.47863 69.5604L3.52532 69.9901ZM-0.992685 34.1787C-0.710132 46.4476 0.84398 58.3476 3.52748 69.9997L5.47647 69.5508C2.82225 58.0259 1.2861 46.2608 1.00678 34.1327L-0.992685 34.1787ZM4.77865 25.3218C1.09327 27.0554 -1.15193 30.4494 -0.992042 34.1983L1.00614 34.1131C0.885095 31.2749 2.57296 28.5696 5.62996 27.1316L4.77865 25.3218ZM42.7035 10.7524C29.5907 14.6707 16.9012 19.5684 4.77554 25.3233L5.63307 27.1301C17.6677 21.4184 30.2621 16.5574 43.2761 12.6687L42.7035 10.7524ZM123.758 -1C95.4266 -1 68.0796 3.16178 42.7032 10.7525L43.2764 12.6686C68.4679 5.13318 95.6219 1 123.758 1V-1ZM125.865 -1H123.758V1H125.865V-1ZM127.53 2.03225C128.437 0.720815 127.467 -1 125.865 -1V1C125.903 1 125.911 1.00851 125.902 1.00364C125.896 1.00007 125.888 0.992884 125.883 0.982037C125.877 0.971912 125.872 0.9571 125.873 0.938107C125.874 0.916275 125.882 0.900309 125.885 0.895384L127.53 2.03225ZM119.624 10.9921C122.126 7.85306 124.772 4.94923 127.432 2.15304L125.983 0.774593C123.305 3.5897 120.614 6.54114 118.06 9.74534L119.624 10.9921ZM242.74 25.3285C230.611 19.5722 218.064 14.7976 204.817 10.7592L204.234 12.6723C217.396 16.6849 229.851 21.4251 241.883 27.1353L242.74 25.3285ZM248.649 34.0389C248.649 30.3286 246.429 26.9296 242.71 25.3147L241.913 27.1492C244.936 28.4618 246.649 31.1621 246.649 34.0389H248.649ZM244.131 69.8716C246.672 58.2263 248.225 46.2122 248.648 34.0738L246.65 34.0041C246.23 46.0187 244.693 57.9135 242.177 69.4453L244.131 69.8716ZM234.106 101.755C238.341 91.4571 241.73 80.7892 244.131 69.8733L242.177 69.4436C239.803 80.2411 236.449 90.7984 232.256 100.994L234.106 101.755ZM215.051 137.181C222.529 125.908 228.88 114.143 234.102 101.763L232.26 100.986C227.087 113.247 220.796 124.903 213.385 136.075L215.051 137.181ZM162.848 191.953C183.439 176.399 201.217 157.899 215.05 137.183L213.386 136.073C199.687 156.588 182.068 174.928 161.643 190.357L162.848 191.953ZM125.056 215.466C138.447 208.611 151.139 200.774 162.847 191.954L161.644 190.357C150.035 199.102 137.442 206.879 124.145 213.686L125.056 215.466ZM122.403 214.819C122.912 215.484 123.945 215.951 124.999 215.494L124.202 213.659C124.175 213.671 124.156 213.674 124.141 213.674C124.126 213.675 124.109 213.673 124.089 213.667C124.042 213.652 124.005 213.622 123.989 213.601L122.403 214.819ZM105.541 181.617C109.923 193.647 115.578 204.698 122.367 214.769L124.025 213.651C117.329 203.717 111.747 192.811 107.42 180.932L105.541 181.617ZM98.1949 154.631C100.029 163.942 102.429 173.02 105.54 181.615L107.421 180.934C104.351 172.451 101.975 163.475 100.157 154.245L98.1949 154.631ZM101.517 152.951C100.85 152.372 99.9776 152.313 99.3045 152.606C98.6203 152.903 98.0303 153.633 98.1893 154.6L100.163 154.276C100.164 154.283 100.166 154.303 100.16 154.331C100.155 154.359 100.144 154.383 100.132 154.403C100.109 154.441 100.089 154.445 100.101 154.44C100.112 154.435 100.131 154.432 100.151 154.434C100.166 154.436 100.184 154.442 100.206 154.461L101.517 152.951ZM124.167 170.315C116.055 164.97 108.512 159.268 101.532 152.964L100.191 154.448C107.258 160.831 114.885 166.594 123.067 171.985L124.167 170.315ZM179.658 113.286C165.693 135.602 146.274 155.139 123.07 170.313L124.165 171.987C147.596 156.664 167.226 136.923 181.354 114.347L179.658 113.286ZM195.855 79.5797C191.807 91.3371 186.363 102.613 179.659 113.285L181.353 114.349C188.134 103.552 193.646 92.1383 197.746 80.2307L195.855 79.5797ZM202.833 50.4898C201.438 60.4286 199.065 70.247 195.855 79.5799L197.746 80.2304C200.997 70.7777 203.4 60.8346 204.814 50.7679L202.833 50.4898ZM123.617 37.6006C151.874 37.6006 178.868 42.5812 203.481 51.5682L204.167 49.6895C179.335 40.6227 152.109 35.6006 123.617 35.6006V37.6006ZM119.544 37.6006H123.617V35.6006H119.544V37.6006ZM117.793 34.9624C117.511 35.5744 117.563 36.2561 117.931 36.7878C118.293 37.3121 118.896 37.6006 119.544 37.6006V35.6006C119.514 35.6006 119.51 35.5945 119.522 35.6007C119.534 35.6068 119.556 35.6217 119.576 35.651C119.597 35.6807 119.61 35.7168 119.612 35.7521C119.615 35.7883 119.606 35.8055 119.609 35.7991L117.793 34.9624ZM144.864 1.69873C134.531 10.9184 125.335 22.1005 117.838 34.8747L119.563 35.8869C126.957 23.2882 136.021 12.2691 146.196 3.19108L144.864 1.69873ZM149.682 0.228156C147.869 0.08501 146.225 0.660941 144.925 1.64869L146.135 3.24111C147.083 2.52108 148.248 2.12113 149.525 2.22195L149.682 0.228156ZM204.812 10.7576C187.189 5.4929 168.862 1.94275 149.693 0.229026L149.514 2.22108C168.552 3.92293 186.746 7.44789 204.24 12.6739L204.812 10.7576Z" fill="white" fill-opacity="0.02" mask="url(#path-1-inside-1_1418_34524)"/>
</svg>
