<svg width="24" height="24" viewBox="0 0 24 24" fill="none" xmlns="http://www.w3.org/2000/svg">
<g clip-path="url(#clip0_1445_31448)">
<path d="M8.89011 10.3907C9.39746 10.2382 9.91804 10.1337 10.445 10.0787C11.4773 9.95125 12.5213 9.94781 13.5545 10.0684C14.0811 10.12 14.6017 10.2212 15.1093 10.3707C15.2411 10.4125 15.3561 10.4951 15.4378 10.6066C15.5195 10.7181 15.5635 10.8528 15.5635 10.991C15.5635 11.1292 15.5195 11.2639 15.4378 11.3754C15.3561 11.4869 15.2411 11.5696 15.1093 11.6113C14.6017 11.7606 14.0811 11.8618 13.5545 11.9134C13.0385 11.9741 12.5193 12.0035 11.9997 12.0015C11.48 12.0001 10.9608 11.9673 10.445 11.9033C9.91806 11.8482 9.3975 11.7438 8.89012 11.5913C8.76316 11.5503 8.65246 11.4701 8.57394 11.3623C8.49542 11.2544 8.45312 11.1244 8.45312 10.991C8.45312 10.8576 8.49542 10.7276 8.57394 10.6197C8.65246 10.5119 8.76316 10.4317 8.89012 10.3907L8.89011 10.3907Z" fill="url(#paint0_linear_1445_31448)"/>
<path d="M9.06585 14.8101C9.54362 14.6578 10.0353 14.5533 10.5337 14.4981C11.5079 14.3707 12.4944 14.3672 13.4694 14.4879C13.9675 14.5397 14.4593 14.641 14.9373 14.7902C15.0673 14.8338 15.1803 14.9171 15.2604 15.0284C15.3405 15.1397 15.3835 15.2733 15.3835 15.4104C15.3835 15.5476 15.3405 15.6812 15.2604 15.7925C15.1803 15.9038 15.0673 15.9871 14.9373 16.0307C14.4592 16.1798 13.9675 16.281 13.4694 16.3328C12.9825 16.3935 12.4922 16.423 12.0016 16.4209C11.5107 16.4195 11.0204 16.3867 10.5337 16.3228C10.0353 16.2675 9.54365 16.163 9.06585 16.0108C8.94066 15.9679 8.83198 15.8871 8.75503 15.7794C8.67809 15.6718 8.63672 15.5428 8.63672 15.4105C8.63672 15.2781 8.67809 15.1491 8.75503 15.0415C8.83198 14.9339 8.94066 14.853 9.06585 14.8101V14.8101Z" fill="url(#paint1_linear_1445_31448)"/>
<path d="M19.0629 4.03959C18.9927 3.75673 18.8416 3.50045 18.6281 3.30214C18.4145 3.10383 18.1477 2.97211 17.8605 2.92309C15.9771 2.59091 14.0694 2.41591 12.157 2.3999C12.1047 2.3999 12.0525 2.40019 12.0002 2.40049L11.8642 2.40014C11.0035 2.40014 10.1372 2.44467 9.27111 2.52144C8.91845 2.55409 8.58845 2.70953 8.3387 2.96064L4.74649 6.55268C4.5118 6.78598 4.35975 7.08956 4.31348 7.41723C3.73634 11.6046 3.94764 15.863 4.93649 19.9727C5.00674 20.2555 5.15736 20.5119 5.37016 20.711C5.58295 20.91 5.84883 21.0432 6.13567 21.0945C8.07113 21.4309 10.032 21.6 11.9964 21.5999C13.9624 21.5998 15.9247 21.4308 17.8617 21.0948C18.1488 21.0436 18.4149 20.9103 18.6279 20.7111C18.8409 20.5118 18.9916 20.2552 19.0619 19.9722C20.3274 14.7367 20.3277 9.27518 19.0629 4.03959ZM17.1922 19.1764C15.4744 19.4558 13.7368 19.5965 11.9964 19.5971C10.2578 19.5966 8.52207 19.456 6.80607 19.1764C6.0233 15.7441 5.81895 12.2053 6.20144 8.70569C7.11674 8.60962 8.02642 8.46598 8.92679 8.27534C9.18514 8.21721 9.42169 8.08696 9.60895 7.89971C9.7962 7.71247 9.92648 7.47593 9.98463 7.21758C10.1783 6.30338 10.3235 5.37958 10.4196 4.45004C10.915 4.42193 11.3983 4.40288 11.8642 4.40288L12.0122 4.40317L12.157 4.40288C13.8454 4.41493 15.53 4.56217 17.1949 4.84321C18.2791 9.55954 18.2782 14.4605 17.1922 19.1764V19.1764Z" fill="url(#paint2_linear_1445_31448)"/>
</g>
<defs>
<linearGradient id="paint0_linear_1445_31448" x1="8.09286" y1="9.98047" x2="12.2755" y2="14.0647" gradientUnits="userSpaceOnUse">
<stop stop-color="#2DCCB7"/>
<stop offset="0.51117" stop-color="#8E89B6"/>
<stop offset="0.63344" stop-color="#A084AF"/>
<stop offset="0.87867" stop-color="#D0789C"/>
<stop offset="1" stop-color="#EA7192"/>
</linearGradient>
<linearGradient id="paint1_linear_1445_31448" x1="8.29488" y1="14.3999" x2="12.4666" y2="18.2651" gradientUnits="userSpaceOnUse">
<stop stop-color="#2DCCB7"/>
<stop offset="0.51117" stop-color="#8E89B6"/>
<stop offset="0.63344" stop-color="#A084AF"/>
<stop offset="0.87867" stop-color="#D0789C"/>
<stop offset="1" stop-color="#EA7192"/>
</linearGradient>
<linearGradient id="paint2_linear_1445_31448" x1="3.18466" y1="2.3999" x2="20.6519" y2="6.44387" gradientUnits="userSpaceOnUse">
<stop stop-color="#2DCCB7"/>
<stop offset="0.51117" stop-color="#8E89B6"/>
<stop offset="0.63344" stop-color="#A084AF"/>
<stop offset="0.87867" stop-color="#D0789C"/>
<stop offset="1" stop-color="#EA7192"/>
</linearGradient>
<clipPath id="clip0_1445_31448">
<rect width="24" height="24" fill="white"/>
</clipPath>
</defs>
</svg>
